<svg xmlns="http://www.w3.org/2000/svg" width="28" height="28" viewBox="-4 -4 28 28" id="ic-20-menu-corp-5-facff" x="121" y="28"><path fill="#5FACFF" d="M8.25 6.498a.75.75 0 110-1.5.75.75 0 010 1.5m0 3a.75.75 0 110-1.5.75.75 0 010 1.5m0 3a.75.75 0 110-1.5.75.75 0 010 1.5m-2.5-6a.75.75 0 110-1.5.75.75 0 010 1.5m0 3a.75.75 0 110-1.5.75.75 0 010 1.5m0 3a.75.75 0 110-1.5.75.75 0 010 1.5m11.5 4H17V9.503C17 8.674 16.326 8 15.497 8H11V3.503C11 2.674 10.326 2 9.497 2H4.503C3.674 2 3 2.674 3 3.503v12.995h-.25a.75.75 0 000 1.5h14.5a.75.75 0 000-1.5" fill-rule="evenodd"/></svg>