<svg xmlns="http://www.w3.org/2000/svg" width="28" height="28" viewBox="-4 -4 28 28" id="ic-20-menu-groups-5-facff" x="28" y="173"><path fill="#5FACFF" d="M9.022 11.403c.241-.126.544-.283.766-.405-.113-.12-.207-.223-.262-.284-.73-.833-.978-2.093-1.125-3.731-.107-1.188.12-2.296.642-3.211-.554-.504-1.264-.798-2.025-.77-.895.007-1.703.332-2.277.963-.649.713-.949 1.738-.846 2.884.144 1.591.363 2.424.759 2.875.08.091.266.29.467.5a.643.643 0 01.177.444v.668a1.035 1.035 0 01-.426.765c-.234.149-.656.371-1.157.632l-.12.064c-1.802.939-2.327 1.693-2.463 2.145a2.614 2.614 0 00-.131.851H1v1.326a.88.88 0 00.879.881h3.794a2.376 2.376 0 01-.173-.881l.001-1.342c.003-.408.036-.73.195-1.265.328-1.096 1.377-2.093 3.202-3.044l.124-.065zm9.977 4.39a2.664 2.664 0 00-.132-.851c-.136-.452-.66-1.206-2.463-2.145l-.114-.061c-.503-.262-.929-.485-1.168-.638a1.025 1.025 0 01-.419-.716l-.002-.714c0-.166.064-.326.176-.444.202-.211.388-.41.472-.504.392-.447.611-1.28.755-2.871.104-1.146-.196-2.171-.846-2.884a2.876 2.876 0 00-2.24-.963c-.895.007-1.703.332-2.277.963-.649.713-.949 1.738-.846 2.884.144 1.591.363 2.424.759 2.875.08.091.266.29.467.5a.643.643 0 01.177.444v.668a1.035 1.035 0 01-.426.765c-.234.149-.656.371-1.157.632l-.12.064c-1.802.939-2.327 1.693-2.463 2.145a2.614 2.614 0 00-.131.851H7v1.326a.88.88 0 00.879.881H18.12c.485 0 .88-.395.88-.881v-1.326h-.001z" fill-rule="evenodd"/></svg>