<svg xmlns="http://www.w3.org/2000/svg" width="33" height="33" viewBox="-4 -4 33 33" id="ic-25-gnb-dark-contact-000000" x="99" y="429"><g fill="none" fill-rule="evenodd"><path d="M0 0h25v25H0z"/><path d="M20.747 21H4.254c-.09 0-.17-.03-.254-.053 0-.44.018-.668.166-1.163.167-.56 1.887-1.494 4.119-2.657l.149-.077c.62-.324 1.143-.599 1.432-.782.282-.189.504-.566.527-.949v-.827a.792.792 0 00-.22-.549 24.821 24.821 0 01-.576-.618c-.491-.559-.763-1.591-.941-3.56-.127-1.418.244-2.687 1.047-3.57.712-.782 1.712-1.183 2.82-1.193 1.063-.038 2.063.41 2.774 1.193.804.883 1.176 2.152 1.047 3.571-.177 1.968-.45 3-.934 3.553-.104.117-.336.365-.584.624a.792.792 0 00-.22.549l.003.885c.022.318.235.692.519.887.297.187.823.465 1.446.79l.142.073c2.232 1.163 3.952 2.097 4.12 2.656.146.494.164.723.164 1.164-.082.023-.163.053-.253.053M21.5 1h-18A2.5 2.5 0 001 3.5v18A2.5 2.5 0 003.5 24h18a2.5 2.5 0 002.5-2.5v-18A2.5 2.5 0 0021.5 1" fill-opacity=".9" fill="#000"/></g></svg>