<?xml version="1.0" encoding="utf-8"?><svg width="289" height="273" viewBox="0 0 289 273" xmlns="http://www.w3.org/2000/svg" xmlns:xlink="http://www.w3.org/1999/xlink"><svg width="24" height="24" viewBox="-4 -4 24 24" id="ic-16-add" x="261" y="28" xmlns="http://www.w3.org/2000/svg"><path fill="#767676" d="M12 7H9V4a1 1 0 10-2 0v3H4a1 1 0 100 2h3v3a1 1 0 102 0V9h3a1 1 0 100-2" fill-rule="evenodd"/></svg><svg width="24" height="24" viewBox="-4 -4 24 24" id="ic-16-like-434343" x="261" y="52" xmlns="http://www.w3.org/2000/svg"><g fill="none" fill-rule="evenodd"><path fill="none" d="M0 0h16v16H0z"/><path stroke="#434343" d="M7.998 14.29l6.619-6.687c1.242-1.442 1.165-3.654-.177-5.028C13.745 1.862 12.932 1.5 12 1.5c-.983 0-1.964.397-2.624 1.075L8 3.985l-.358-.365-1.024-1.045C5.957 1.896 4.98 1.5 4 1.5c-.935 0-1.751.362-2.445 1.074-1.407 1.44-1.407 3.79-.002 5.23l6.445 6.486z"/></g></svg><svg width="24" height="24" viewBox="-4 -4 24 24" id="ic-16-more" x="261" y="76" xmlns="http://www.w3.org/2000/svg"><path fill="#767676" fill-rule="evenodd" d="M8.5 5a1.5 1.5 0 110-3 1.5 1.5 0 010 3zm0 5a1.5 1.5 0 110-3 1.5 1.5 0 010 3zm0 5a1.5 1.5 0 110-3 1.5 1.5 0 010 3z"/></svg><svg width="24" height="24" viewBox="-4 -4 24 24" id="ic-16-setting" x="261" y="100" xmlns="http://www.w3.org/2000/svg"><path fill="#767676" d="M7.777 9.928a1.9 1.9 0 01-1.888-1.91 1.9 1.9 0 011.888-1.91 1.9 1.9 0 011.889 1.91 1.9 1.9 0 01-1.889 1.91zm4.41-2.532L13.5 6.069 12.278 3.93l-1.82.494a4.476 4.476 0 00-.996-.573L8.971 2H6.528L6.03 3.876a4.484 4.484 0 00-.946.558L3.222 3.93 2 6.07l1.362 1.377a4.492 4.492 0 00-.003 1.11L2 9.93l1.222 2.14 1.827-.496c.303.239.635.438.993.592L6.528 14h2.443l.48-1.811a4.443 4.443 0 001.041-.604l1.786.484 1.222-2.14-1.31-1.322a4.421 4.421 0 00-.004-1.211z" fill-rule="nonzero"/></svg><svg width="24" height="24" viewBox="-4 -4 24 24" id="ic-16-trash" x="261" y="124" xmlns="http://www.w3.org/2000/svg"><path fill="#767676" d="M10 11.478a.5.5 0 01-1 0v-6a.5.5 0 011 0v6zm-2 0a.5.5 0 01-1 0v-6a.5.5 0 011 0v6zm-2 0a.5.5 0 01-1 0v-6a.5.5 0 011 0v6zm3-9.481v.981H5.997L5.995 2 9 1.997zm3.5.981H10v-.981A.997.997 0 009.005 1h-3.01A.997.997 0 005 1.997v.981H2.5a.5.5 0 000 1H3v8.503c0 .827.67 1.497 1.497 1.497h6.006c.827 0 1.497-.67 1.497-1.497V3.978h.5a.5.5 0 000-1z" fill-rule="nonzero"/></svg><svg width="28" height="28" viewBox="-4 -4 28 28" id="ic-20-menu-bookmark" y="33" xmlns="http://www.w3.org/2000/svg"><path fill="#222" d="M10.454 3.977L8.979 8.069a.963.963 0 01-.825.617l-4.196.298 3.264 2.791c.275.24.392.613.306.974L6.5 17.024l3.484-2.361a.94.94 0 011.03 0l3.564 2.345-1.106-4.261a.98.98 0 01.307-.974l3.228-2.826-4.164-.261a.959.959 0 01-.821-.615l-1.57-4.094zm-4 14.022a.952.952 0 01-.54-.171.977.977 0 01-.385-1.036l1.026-4.277-3.221-2.816a.98.98 0 01-.282-1.056.957.957 0 01.835-.657l4.199-.299 1.527-4.068A.948.948 0 0110.5 3c.396 0 .743.243.888.619l1.567 4.093 4.158.274c.383.029.71.285.835.657a.984.984 0 01-.282 1.056l-3.23 2.828 1.036 4.265a.978.978 0 01-.387 1.036.936.936 0 01-1.055.016L10.5 15.52l-3.53 2.324a.941.941 0 01-.516.155z" fill-rule="nonzero"/></svg><svg width="28" height="28" viewBox="-4 -4 28 28" id="ic-20-menu-bookmark-5-facff" x="28" y="33" xmlns="http://www.w3.org/2000/svg"><g fill-rule="nonzero" fill="none"><path d="M0 0h20v20H0z"/><path fill="#5FACFF" d="M17.948 8.643a.956.956 0 00-.836-.656l-4.157-.275-1.568-4.092A.948.948 0 0010.5 3a.95.95 0 00-.888.62L8.086 7.688l-4.2.299a.956.956 0 00-.834.656.985.985 0 00.282 1.057l3.22 2.815-1.026 4.277a.98.98 0 00.387 1.037.943.943 0 001.054.015L10.5 15.52l3.53 2.323a.938.938 0 001.055-.015.98.98 0 00.386-1.037l-1.035-4.264 3.23-2.828a.985.985 0 00.282-1.057"/></g></svg><svg width="28" height="28" viewBox="-4 -4 28 28" id="ic-20-menu-bookmark-d-5-d-5-d-6" x="65" xmlns="http://www.w3.org/2000/svg"><path fill="#D5D5D6" d="M10.454 3.977L8.979 8.069a.963.963 0 01-.825.617l-4.196.298 3.264 2.791c.275.24.392.613.306.974L6.5 17.024l3.484-2.361a.94.94 0 011.03 0l3.564 2.345-1.106-4.261a.98.98 0 01.307-.974l3.228-2.826-4.164-.261a.959.959 0 01-.821-.615l-1.57-4.094zm-4 14.022a.952.952 0 01-.54-.171.977.977 0 01-.385-1.036l1.026-4.277-3.221-2.816a.98.98 0 01-.282-1.056.957.957 0 01.835-.657l4.199-.299 1.527-4.068A.948.948 0 0110.5 3c.396 0 .743.243.888.619l1.567 4.093 4.158.274c.383.029.71.285.835.657a.984.984 0 01-.282 1.056l-3.23 2.828 1.036 4.265a.978.978 0 01-.387 1.036.936.936 0 01-1.055.016L10.5 15.52l-3.53 2.324a.941.941 0 01-.516.155z" fill-rule="nonzero"/></svg><svg width="28" height="28" viewBox="-4 -4 28 28" id="ic-20-menu-bookmark-ffffff" x="65" y="28" xmlns="http://www.w3.org/2000/svg"><path d="M10.454 3.977L8.979 8.069a.963.963 0 01-.825.617l-4.196.298 3.264 2.791c.275.24.392.613.306.974L6.5 17.024l3.484-2.361a.94.94 0 011.03 0l3.564 2.345-1.106-4.261a.98.98 0 01.307-.974l3.228-2.826-4.164-.261a.959.959 0 01-.821-.615l-1.57-4.094zm-4 14.022a.952.952 0 01-.54-.171.977.977 0 01-.385-1.036l1.026-4.277-3.221-2.816a.98.98 0 01-.282-1.056.957.957 0 01.835-.657l4.199-.299 1.527-4.068A.948.948 0 0110.5 3c.396 0 .743.243.888.619l1.567 4.093 4.158.274c.383.029.71.285.835.657a.984.984 0 01-.282 1.056l-3.23 2.828 1.036 4.265a.978.978 0 01-.387 1.036.936.936 0 01-1.055.016L10.5 15.52l-3.53 2.324a.941.941 0 01-.516.155z" fill="#FFF" fill-rule="nonzero"/></svg><svg width="28" height="28" viewBox="-4 -4 28 28" id="ic-20-menu-bookmark-hover" y="61" xmlns="http://www.w3.org/2000/svg"><path fill="#434343" d="M10.454 3.977L8.979 8.069a.963.963 0 01-.825.617l-4.196.298 3.264 2.791c.275.24.392.613.306.974L6.5 17.024l3.484-2.361a.94.94 0 011.03 0l3.564 2.345-1.106-4.261a.98.98 0 01.307-.974l3.228-2.826-4.164-.261a.959.959 0 01-.821-.615l-1.57-4.094zm-4 14.022a.952.952 0 01-.54-.171.977.977 0 01-.385-1.036l1.026-4.277-3.221-2.816a.98.98 0 01-.282-1.056.957.957 0 01.835-.657l4.199-.299 1.527-4.068A.948.948 0 0110.5 3c.396 0 .743.243.888.619l1.567 4.093 4.158.274c.383.029.71.285.835.657a.984.984 0 01-.282 1.056l-3.23 2.828 1.036 4.265a.978.978 0 01-.387 1.036.936.936 0 01-1.055.016L10.5 15.52l-3.53 2.324a.941.941 0 01-.516.155z" fill-rule="nonzero"/></svg><svg width="28" height="28" viewBox="-4 -4 28 28" id="ic-20-menu-bookmark-on" x="28" y="61" xmlns="http://www.w3.org/2000/svg"><g fill-rule="nonzero" fill="none"><path d="M0 0h20v20H0z"/><path fill="#157EFB" d="M17.948 8.643a.956.956 0 00-.836-.656l-4.157-.275-1.568-4.092A.948.948 0 0010.5 3a.95.95 0 00-.888.62L8.086 7.688l-4.2.299a.956.956 0 00-.834.656.985.985 0 00.282 1.057l3.22 2.815-1.026 4.277a.98.98 0 00.387 1.037.943.943 0 001.054.015L10.5 15.52l3.53 2.323a.938.938 0 001.055-.015.98.98 0 00.386-1.037l-1.035-4.264 3.23-2.828a.985.985 0 00.282-1.057"/></g></svg><svg width="28" height="28" viewBox="-4 -4 28 28" id="ic-20-menu-contact" x="56" y="61" xmlns="http://www.w3.org/2000/svg"><path fill="#222" d="M17 16a1 1 0 01-1 1h-.041c.013-.068.041-.131.041-.203l-.001-.133a2.558 2.558 0 00-.124-.813c-.163-.552-.995-1.228-2.471-2.006l-.094-.051a15.337 15.337 0 01-.86-.473.326.326 0 01-.114-.192v-.543l.001-.001a17.627 17.627 0 00.393-.428c.382-.449.58-1.168.703-2.553.07-.777-.066-1.505-.393-2.107a2.846 2.846 0 00-.422-.587c-.555-.606-1.343-.95-2.115-.909-.834-.033-1.57.305-2.146.932-.12.132-.225.282-.341.484a3.41 3.41 0 00-.426 1.289 2.442 2.442 0 00-.025.145c-.021.242-.021.495.002.753.118 1.323.303 2.038.673 2.513a.48.48 0 00.052.067c.069.078.215.236.366.404l.007.013v.497a.332.332 0 01-.104.215c-.175.113-.494.282-.872.482l-.092.049c-1.477.779-2.309 1.455-2.472 2.008a2.605 2.605 0 00-.125.816v.133c0 .07.028.132.04.199H5a1 1 0 01-1-1V5a1 1 0 011-1h11a1 1 0 011 1v11zM6.19 17a.194.194 0 01-.19-.195l.001-.133c.002-.2.014-.301.082-.535.048-.126.496-.625 1.981-1.409l.093-.049c.41-.217.754-.402.955-.532.31-.21.527-.597.552-1.016l.001-.537a.997.997 0 00-.102-.432 1.015 1.015 0 00-.173-.265 16.9 16.9 0 01-.345-.372l-.01-.011c-.226-.263-.372-.879-.472-1.999a3.155 3.155 0 01.002-.591l.021-.107c.045-.34.143-.641.293-.897.082-.141.149-.239.237-.332.357-.392.851-.629 1.272-.597.038.008.103.006.144.01.493-.026.992.195 1.368.602.099.108.187.234.262.372.232.426.327.96.275 1.541-.099 1.11-.243 1.725-.466 1.991l-.021.023c-.066.075-.198.218-.344.371a.587.587 0 00-.125.185.66.66 0 00-.077.137 1.019 1.019 0 00-.069.372l.002.567c.024.388.241.775.561.993.191.122.535.307.944.523l.095.051c1.484.783 1.932 1.282 1.979 1.404.069.238.081.339.083.539l.001.129a.195.195 0 01-.19.199H6.19zM16 3H5a2 2 0 00-2 2v11a2 2 0 002 2h11a2 2 0 002-2V5a2 2 0 00-2-2z" fill-rule="evenodd"/></svg><svg width="28" height="28" viewBox="-4 -4 28 28" id="ic-20-menu-contact-5-facff" x="93" xmlns="http://www.w3.org/2000/svg"><path fill="#5FACFF" d="M5.54 16.5a.69.69 0 01-.04-.204v-.067a2.15 2.15 0 01.104-.68c.107-.362.812-.966 2.226-1.717l.094-.05c.197-.104.378-.201.532-.286l.224-.127c.056-.033.109-.064.151-.092a.633.633 0 00.117-.104l.009-.009a.853.853 0 00.207-.494l.001-.539a.516.516 0 00-.036-.192c-.004-.011-.014-.02-.02-.032a.506.506 0 00-.083-.132 19.261 19.261 0 01-.366-.398l-.002-.003-.001-.001c-.307-.357-.479-1.023-.592-2.295-.061-.687.056-1.32.333-1.834.093-.172.204-.33.33-.473l.021-.017a2.23 2.23 0 011.736-.752l.015.001.015-.001a2.23 2.23 0 011.733.749c.008.008.017.013.023.02.208.233.358.515.471.821.165.442.24.943.194 1.486-.114 1.272-.286 1.938-.593 2.295l-.001.001-.002.003c-.063.072-.209.231-.366.398a.464.464 0 00-.081.13c-.006.012-.018.022-.022.034a.537.537 0 00-.036.192l.001.539a.853.853 0 00.207.494l.013.012a.626.626 0 00.113.101c.028.019.067.041.102.063.079.047.167.097.273.156.154.085.335.182.532.286l.094.05c1.414.751 2.119 1.355 2.225 1.717.085.291.102.439.105.68v.067c0 .072-.021.139-.04.204H5.54zM17.843 4.222A2 2 0 0016 3H5a2.002 2.002 0 00-2 2v11a1.994 1.994 0 001.597 1.959c.13.027.265.041.403.041h11a2 2 0 002-2V5c0-.276-.056-.539-.157-.778z" fill-rule="nonzero"/></svg><svg width="28" height="28" viewBox="-4 -4 28 28" id="ic-20-menu-contact-d-5-d-5-d-6" x="93" y="28" xmlns="http://www.w3.org/2000/svg"><path fill="#D5D5D6" d="M17 16a1 1 0 01-1 1h-.041c.013-.068.041-.131.041-.203l-.001-.133a2.558 2.558 0 00-.124-.813c-.163-.552-.995-1.228-2.471-2.006l-.094-.051a15.337 15.337 0 01-.86-.473.326.326 0 01-.114-.192v-.543l.001-.001a17.627 17.627 0 00.393-.428c.382-.449.58-1.168.703-2.553.07-.777-.066-1.505-.393-2.107a2.846 2.846 0 00-.422-.587c-.555-.606-1.343-.95-2.115-.909-.834-.033-1.57.305-2.146.932-.12.132-.225.282-.341.484a3.41 3.41 0 00-.426 1.289 2.442 2.442 0 00-.025.145c-.021.242-.021.495.002.753.118 1.323.303 2.038.673 2.513a.48.48 0 00.052.067c.069.078.215.236.366.404l.007.013v.497a.332.332 0 01-.104.215c-.175.113-.494.282-.872.482l-.092.049c-1.477.779-2.309 1.455-2.472 2.008a2.605 2.605 0 00-.125.816v.133c0 .07.028.132.04.199H5a1 1 0 01-1-1V5a1 1 0 011-1h11a1 1 0 011 1v11zM6.19 17a.194.194 0 01-.19-.195l.001-.133c.002-.2.014-.301.082-.535.048-.126.496-.625 1.981-1.409l.093-.049c.41-.217.754-.402.955-.532.31-.21.527-.597.552-1.016l.001-.537a.997.997 0 00-.102-.432 1.015 1.015 0 00-.173-.265 16.9 16.9 0 01-.345-.372l-.01-.011c-.226-.263-.372-.879-.472-1.999a3.155 3.155 0 01.002-.591l.021-.107c.045-.34.143-.641.293-.897.082-.141.149-.239.237-.332.357-.392.851-.629 1.272-.597.038.008.103.006.144.01.493-.026.992.195 1.368.602.099.108.187.234.262.372.232.426.327.96.275 1.541-.099 1.11-.243 1.725-.466 1.991l-.021.023c-.066.075-.198.218-.344.371a.587.587 0 00-.125.185.66.66 0 00-.077.137 1.019 1.019 0 00-.069.372l.002.567c.024.388.241.775.561.993.191.122.535.307.944.523l.095.051c1.484.783 1.932 1.282 1.979 1.404.069.238.081.339.083.539l.001.129a.195.195 0 01-.19.199H6.19zM16 3H5a2 2 0 00-2 2v11a2 2 0 002 2h11a2 2 0 002-2V5a2 2 0 00-2-2z" fill-rule="nonzero"/></svg><svg width="28" height="28" viewBox="-4 -4 28 28" id="ic-20-menu-contact-official" x="93" y="56" xmlns="http://www.w3.org/2000/svg"><path fill="#767676" fill-rule="evenodd" d="M6.001 18h12V2h-12v16zm9.395-11.719l1.34 1.339-5.95 6.38-3.104-3.105 1.337-1.337 1.723 1.723 4.654-5zM2 18h3.001V2H2v16z"/></svg><svg width="28" height="28" viewBox="-4 -4 28 28" id="ic-20-menu-contact-official-5-facff" y="89" xmlns="http://www.w3.org/2000/svg"><path fill="#5facff" fill-rule="evenodd" d="M6.001 18h12V2h-12v16zm9.395-11.719l1.34 1.339-5.95 6.38-3.104-3.105 1.337-1.337 1.723 1.723 4.654-5zM2 18h3.001V2H2v16z"/></svg><svg width="28" height="28" viewBox="-4 -4 28 28" id="ic-20-menu-contact-official-d-5-d-5-d-6" x="28" y="89" xmlns="http://www.w3.org/2000/svg"><path fill="#d5d5d6" fill-rule="evenodd" d="M6.001 18h12V2h-12v16zm9.395-11.719l1.34 1.339-5.95 6.38-3.104-3.105 1.337-1.337 1.723 1.723 4.654-5zM2 18h3.001V2H2v16z"/></svg><svg width="28" height="28" viewBox="-4 -4 28 28" id="ic-20-menu-contact-official-on" x="56" y="89" xmlns="http://www.w3.org/2000/svg"><path fill="#157EFB" fill-rule="evenodd" d="M6.001 18h12V2h-12v16zm9.395-11.719l1.34 1.339-5.95 6.38-3.104-3.105 1.337-1.337 1.723 1.723 4.654-5zM2 18h3.001V2H2v16z"/></svg><svg width="28" height="28" viewBox="-4 -4 28 28" id="ic-20-menu-contact-on" x="84" y="89" xmlns="http://www.w3.org/2000/svg"><path d="M5.54 16.5a.69.69 0 01-.04-.204v-.067a2.15 2.15 0 01.104-.68c.107-.362.812-.966 2.226-1.717l.094-.05c.197-.104.378-.201.532-.286l.224-.127c.056-.033.109-.064.151-.092a.633.633 0 00.117-.104l.009-.009a.853.853 0 00.207-.494l.001-.539a.516.516 0 00-.036-.192c-.004-.011-.014-.02-.02-.032a.506.506 0 00-.083-.132 19.261 19.261 0 01-.366-.398l-.002-.003-.001-.001c-.307-.357-.479-1.023-.592-2.295-.061-.687.056-1.32.333-1.834.093-.172.204-.33.33-.473l.021-.017a2.23 2.23 0 011.736-.752l.015.001.015-.001a2.23 2.23 0 011.733.749c.008.008.017.013.023.02.208.233.358.515.471.821.165.442.24.943.194 1.486-.114 1.272-.286 1.938-.593 2.295l-.001.001-.002.003c-.063.072-.209.231-.366.398a.464.464 0 00-.081.13c-.006.012-.018.022-.022.034a.537.537 0 00-.036.192l.001.539a.853.853 0 00.207.494l.013.012a.626.626 0 00.113.101c.028.019.067.041.102.063.079.047.167.097.273.156.154.085.335.182.532.286l.094.05c1.414.751 2.119 1.355 2.225 1.717.085.291.102.439.105.68v.067c0 .072-.021.139-.04.204H5.54zM17.843 4.222A2 2 0 0016 3H5a2.002 2.002 0 00-2 2v11a1.994 1.994 0 001.597 1.959c.13.027.265.041.403.041h11a2 2 0 002-2V5c0-.276-.056-.539-.157-.778z" fill="#157EFB" fill-rule="nonzero"/></svg><svg width="28" height="28" viewBox="-4 -4 28 28" id="ic-20-menu-corp" x="121" xmlns="http://www.w3.org/2000/svg"><path fill="#222" d="M8.75 12.498a.75.75 0 100-1.5.75.75 0 000 1.5m-2.5 0a.75.75 0 100-1.5.75.75 0 000 1.5m2.5-3a.75.75 0 100-1.5.75.75 0 000 1.5m-2.5 0a.75.75 0 100-1.5.75.75 0 000 1.5m2.5-3a.75.75 0 100-1.5.75.75 0 000 1.5m-2.5 0a.75.75 0 100-1.5.75.75 0 000 1.5m11.25 10.5H17V9.503C17 8.674 16.326 8 15.497 8H12V3.503C12 2.674 11.326 2 10.497 2H4.503C3.674 2 3 2.674 3 3.503v13.494h1V3.503C4 3.226 4.226 3 4.503 3h5.994c.277 0 .503.226.503.503v13.494h1V9h3.497c.277 0 .503.226.503.503v7.495H2.5a.5.5 0 000 1h15a.5.5 0 000-1" fill-rule="evenodd"/></svg><svg width="28" height="28" viewBox="-4 -4 28 28" id="ic-20-menu-corp-5-facff" x="121" y="28" xmlns="http://www.w3.org/2000/svg"><path fill="#5FACFF" d="M8.25 6.498a.75.75 0 110-1.5.75.75 0 010 1.5m0 3a.75.75 0 110-1.5.75.75 0 010 1.5m0 3a.75.75 0 110-1.5.75.75 0 010 1.5m-2.5-6a.75.75 0 110-1.5.75.75 0 010 1.5m0 3a.75.75 0 110-1.5.75.75 0 010 1.5m0 3a.75.75 0 110-1.5.75.75 0 010 1.5m11.5 4H17V9.503C17 8.674 16.326 8 15.497 8H11V3.503C11 2.674 10.326 2 9.497 2H4.503C3.674 2 3 2.674 3 3.503v12.995h-.25a.75.75 0 000 1.5h14.5a.75.75 0 000-1.5" fill-rule="evenodd"/></svg><svg width="28" height="28" viewBox="-4 -4 28 28" id="ic-20-menu-corp-d-5-d-5-d-6" x="121" y="56" xmlns="http://www.w3.org/2000/svg"><path fill="#D5D5D6" d="M8.75 12.498a.75.75 0 100-1.5.75.75 0 000 1.5m-2.5 0a.75.75 0 100-1.5.75.75 0 000 1.5m2.5-3a.75.75 0 100-1.5.75.75 0 000 1.5m-2.5 0a.75.75 0 100-1.5.75.75 0 000 1.5m2.5-3a.75.75 0 100-1.5.75.75 0 000 1.5m-2.5 0a.75.75 0 100-1.5.75.75 0 000 1.5m11.25 10.5H17V9.503C17 8.674 16.326 8 15.497 8H12V3.503C12 2.674 11.326 2 10.497 2H4.503C3.674 2 3 2.674 3 3.503v13.494h1V3.503C4 3.226 4.226 3 4.503 3h5.994c.277 0 .503.226.503.503v13.494h1V9h3.497c.277 0 .503.226.503.503v7.495H2.5a.5.5 0 000 1h15a.5.5 0 000-1" fill-rule="evenodd"/></svg><svg width="28" height="28" viewBox="-4 -4 28 28" id="ic-20-menu-corp-on" x="121" y="84" xmlns="http://www.w3.org/2000/svg"><path d="M8.25 6.498a.75.75 0 110-1.5.75.75 0 010 1.5m0 3a.75.75 0 110-1.5.75.75 0 010 1.5m0 3a.75.75 0 110-1.5.75.75 0 010 1.5m-2.5-6a.75.75 0 110-1.5.75.75 0 010 1.5m0 3a.75.75 0 110-1.5.75.75 0 010 1.5m0 3a.75.75 0 110-1.5.75.75 0 010 1.5m11.5 4H17V9.503C17 8.674 16.326 8 15.497 8H11V3.503C11 2.674 10.326 2 9.497 2H4.503C3.674 2 3 2.674 3 3.503v12.995h-.25a.75.75 0 000 1.5h14.5a.75.75 0 000-1.5" fill="#157EFB" fill-rule="evenodd"/></svg><svg width="28" height="28" viewBox="-4 -4 28 28" id="ic-20-menu-export" y="117" xmlns="http://www.w3.org/2000/svg"><path fill="#222" d="M3.344 4h3.313c.098 0 .183.042.2.058L8.396 5.83a.5.5 0 00.377.172l5.31-.004c.524.045.918.47.918.989v2.01a.5.5 0 101 0v-2.01C16 5.944 15.212 5.09 14.125 5L9 5.002 7.59 3.378A1.321 1.321 0 006.657 3H3.344C2.603 3 2 3.604 2 4.346v10.652C2 16.102 2.898 17 4 17h4a.5.5 0 100-1H4c-.552 0-1-.45-1-1.002V4.346C3 4.155 3.155 4 3.344 4m14.618 10.309a.49.49 0 00-.11-.163l-2.492-2.494a.5.5 0 00-.707.707l1.64 1.64H10.5a.5.5 0 000 1h5.793l-1.64 1.642a.499.499 0 00.353.853c.128 0 .256-.05.354-.146l2.493-2.494a.502.502 0 00.109-.545" fill-rule="evenodd"/></svg><svg width="28" height="28" viewBox="-4 -4 28 28" id="ic-20-menu-export-5-facff" x="28" y="117" xmlns="http://www.w3.org/2000/svg"><path fill="#5FACFF" d="M17.441 14.537a.755.755 0 01-.162.243l-2.494 2.494a.746.746 0 01-1.061 0l-.002-.003a.733.733 0 01-.168-.271.747.747 0 01.17-.786L14.938 15h-4.189a.75.75 0 010-1.5h4.189l-1.214-1.214a.75.75 0 111.061-1.061l2.494 2.495a.751.751 0 01.162.817m1.386-1.147a2.232 2.232 0 00-.488-.731L16 10.319V6.987a1.996 1.996 0 00-1.834-1.985H9L7.613 3.403v.001A1.335 1.335 0 006.656 3H3.343C2.601 3 2 3.602 2 4.346v10.652C2 16.103 2.895 17 4 17h8.021c.055.488.269.961.643 1.335.424.425.99.659 1.59.659.601 0 1.166-.234 1.591-.659l2.494-2.494c.208-.208.373-.453.487-.728a2.27 2.27 0 00.001-1.723" fill-rule="evenodd"/></svg><svg width="28" height="28" viewBox="-4 -4 28 28" id="ic-20-menu-export-d-5-d-5-d-6" x="56" y="117" xmlns="http://www.w3.org/2000/svg"><path fill="#D5D5D6" d="M3.344 4h3.313a.37.37 0 01.201.058L8.395 5.83a.5.5 0 00.377.172l5.311-.004c.523.045.917.47.917.989v2.011a.5.5 0 001 0V6.987C16 5.944 15.212 5.09 14.125 5L9 5.002 7.59 3.378A1.32 1.32 0 006.657 3H3.344C2.603 3 2 3.604 2 4.346v10.652C2 16.102 2.898 17 4 17h4a.5.5 0 100-1H4c-.552 0-1-.449-1-1.002V4.346C3 4.155 3.155 4 3.344 4m14.618 10.309a.502.502 0 00-.109-.163l-2.493-2.494a.5.5 0 00-.707.707L16.293 14H10.5a.5.5 0 000 1h5.793l-1.64 1.641a.499.499 0 00.353.853.502.502 0 00.354-.146l2.493-2.494a.502.502 0 00.109-.545" fill-rule="evenodd"/></svg><svg width="28" height="28" viewBox="-4 -4 28 28" id="ic-20-menu-export-on" x="84" y="117" xmlns="http://www.w3.org/2000/svg"><path d="M17.441 14.537a.755.755 0 01-.162.243l-2.494 2.494a.746.746 0 01-1.061 0l-.002-.003a.733.733 0 01-.168-.271.747.747 0 01.17-.786L14.938 15h-4.189a.75.75 0 010-1.5h4.189l-1.214-1.214a.75.75 0 111.061-1.061l2.494 2.495a.751.751 0 01.162.817m1.386-1.147a2.232 2.232 0 00-.488-.731L16 10.319V6.987a1.996 1.996 0 00-1.834-1.985H9L7.613 3.403v.001A1.335 1.335 0 006.656 3H3.343C2.601 3 2 3.602 2 4.346v10.652C2 16.103 2.895 17 4 17h8.021c.055.488.269.961.643 1.335.424.425.99.659 1.59.659.601 0 1.166-.234 1.591-.659l2.494-2.494c.208-.208.373-.453.487-.728a2.27 2.27 0 00.001-1.723" fill="#157EFB" fill-rule="evenodd"/></svg><svg width="28" height="28" viewBox="-4 -4 28 28" id="ic-20-menu-external" x="112" y="117" xmlns="http://www.w3.org/2000/svg"><path fill="#222" d="M15.046 3h-7c-1.103 0-2 .897-2 2a.5.5 0 001 0 1 1 0 011-1h7a1 1 0 011 1v11a1 1 0 01-1 1h-7a1 1 0 01-1-1 .5.5 0 00-1 0c0 1.103.897 2 2 2h7c1.103 0 2-.897 2-2V5c0-1.103-.897-2-2-2zM9.762 13.555a.5.5 0 00.707.707l3.43-3.43a.503.503 0 00.001-.709l-3.431-3.431a.5.5 0 00-.707.707l2.577 2.579h-9.84a.5.5 0 000 1h9.84l-2.577 2.577z" fill-rule="evenodd"/></svg><svg width="28" height="28" viewBox="-4 -4 28 28" id="ic-20-menu-external-5-facff" x="149" xmlns="http://www.w3.org/2000/svg"><path fill="#5FACFF" d="M15.238 10.764a.749.749 0 01-.162.244l-3.431 3.43c-.146.147-.338.22-.53.22s-.384-.073-.53-.22a.749.749 0 010-1.06l2.15-2.15H4.25a.75.75 0 010-1.5h8.485l-2.15-2.152a.749.749 0 111.06-1.06l3.431 3.432a.749.749 0 01.162.816M16.046 3h-7c-1.103 0-2 .898-2 2v3.228H4.25A2.252 2.252 0 002 10.478c0 1.24 1.009 2.25 2.25 2.25h2.796V16c0 1.103.897 2 2 2h7c1.102 0 2-.897 2-2V5c0-1.102-.898-2-2-2" fill-rule="evenodd"/></svg><svg width="28" height="28" viewBox="-4 -4 28 28" id="ic-20-menu-external-d-5-d-5-d-6" x="149" y="28" xmlns="http://www.w3.org/2000/svg"><path fill="#D5D5D6" d="M15.046 3h-7c-1.103 0-2 .897-2 2a.5.5 0 001 0 1 1 0 011-1h7a1 1 0 011 1v11a1 1 0 01-1 1h-7a1 1 0 01-1-1 .5.5 0 00-1 0c0 1.103.897 2 2 2h7c1.103 0 2-.897 2-2V5c0-1.103-.897-2-2-2zM9.762 13.555a.5.5 0 00.707.707l3.43-3.43a.503.503 0 00.001-.709l-3.431-3.431a.5.5 0 00-.707.707l2.577 2.579h-9.84a.5.5 0 000 1h9.84l-2.577 2.577z" fill-rule="evenodd"/></svg><svg width="28" height="28" viewBox="-4 -4 28 28" id="ic-20-menu-external-ffffff" x="149" y="56" xmlns="http://www.w3.org/2000/svg"><path d="M15.046 3h-7c-1.103 0-2 .897-2 2a.5.5 0 001 0 1 1 0 011-1h7a1 1 0 011 1v11a1 1 0 01-1 1h-7a1 1 0 01-1-1 .5.5 0 00-1 0c0 1.103.897 2 2 2h7c1.103 0 2-.897 2-2V5c0-1.103-.897-2-2-2zM9.762 13.555a.5.5 0 00.707.707l3.43-3.43a.503.503 0 00.001-.709l-3.431-3.431a.5.5 0 00-.707.707l2.577 2.579h-9.84a.5.5 0 000 1h9.84l-2.577 2.577z" fill="#FFF" fill-rule="evenodd"/></svg><svg width="28" height="28" viewBox="-4 -4 28 28" id="ic-20-menu-external-hover" x="149" y="84" xmlns="http://www.w3.org/2000/svg"><path fill="#434343" d="M15.046 3h-7c-1.103 0-2 .897-2 2a.5.5 0 001 0 1 1 0 011-1h7a1 1 0 011 1v11a1 1 0 01-1 1h-7a1 1 0 01-1-1 .5.5 0 00-1 0c0 1.103.897 2 2 2h7c1.103 0 2-.897 2-2V5c0-1.103-.897-2-2-2zM9.762 13.555a.5.5 0 00.707.707l3.43-3.43a.503.503 0 00.001-.709l-3.431-3.431a.5.5 0 00-.707.707l2.577 2.579h-9.84a.5.5 0 000 1h9.84l-2.577 2.577z" fill-rule="evenodd"/></svg><svg width="28" height="28" viewBox="-4 -4 28 28" id="ic-20-menu-external-on" x="149" y="112" xmlns="http://www.w3.org/2000/svg"><path d="M15.238 10.764a.749.749 0 01-.162.244l-3.431 3.43c-.146.147-.338.22-.53.22s-.384-.073-.53-.22a.749.749 0 010-1.06l2.15-2.15H4.25a.75.75 0 010-1.5h8.485l-2.15-2.152a.749.749 0 111.06-1.06l3.431 3.432a.749.749 0 01.162.816M16.046 3h-7c-1.103 0-2 .898-2 2v3.228H4.25A2.252 2.252 0 002 10.478c0 1.24 1.009 2.25 2.25 2.25h2.796V16c0 1.103.897 2 2 2h7c1.102 0 2-.897 2-2V5c0-1.102-.898-2-2-2" fill="#157EFB" fill-rule="evenodd"/></svg><svg width="28" height="28" viewBox="-4 -4 28 28" id="ic-20-menu-folder" y="145" xmlns="http://www.w3.org/2000/svg"><path fill="#222" d="M7.656 3H4.343C3.601 3 3 3.603 3 4.346v10.652A2 2 0 005 17h10c1.104 0 2-.896 2-2.002V6.987a1.996 1.996 0 00-1.834-1.985H10L8.613 3.403v.001A1.335 1.335 0 007.656 3m0 1c.104 0 .181.046.229.09l1.359 1.567.3.345h5.574a.99.99 0 01.882.985v8.011c0 .553-.448 1.002-1 1.002H5c-.552 0-1-.449-1-1.002V4.346C4 4.155 4.154 4 4.343 4h3.313" fill-rule="nonzero"/></svg><svg width="28" height="28" viewBox="-4 -4 28 28" id="ic-20-menu-folder-5-facff" x="28" y="145" xmlns="http://www.w3.org/2000/svg"><path fill="#5FACFF" d="M15.166 5.002H10L8.613 3.403A1.338 1.338 0 007.656 3H4.344C3.602 3 3 3.603 3 4.346v10.652A2 2 0 005 17h10c1.104 0 2-.896 2-2.002V6.987a1.996 1.996 0 00-1.834-1.985" fill-rule="nonzero"/></svg><svg width="28" height="28" viewBox="-4 -4 28 28" id="ic-20-menu-folder-at-5-facff" x="56" y="145" xmlns="http://www.w3.org/2000/svg"><path fill="#5FACFF" d="M13.41 14.397c-.381 0-.718-.325-.718-.763 0-.527.371-.954.841-.954.45 0 .731.325.731.786 0 .471-.315.931-.854.931M17 10.544V6.987c0-1.048-.809-1.9-1.834-1.986H10L8.613 3.403v.001A1.335 1.335 0 007.656 3H4.344C3.601 3 3 3.602 3 4.345v10.653C3 16.103 3.895 17 5 17h5.825c.771.616 1.732 1 2.787 1 .888 0 1.56-.214 2.031-.516l-.516-1.123c-.392.247-.808.37-1.515.37-1.772 0-3.186-1.47-3.186-3.231 0-1.774 1.414-3.233 3.186-3.233 1.763 0 3.075 1.336 3.075 2.885 0 .707-.235 1.279-.684 1.279-.258 0-.46-.169-.439-.551l.136-2.344h-1.325l-.011.337c-.213-.292-.538-.461-1.01-.461-1.099 0-2.007 1.01-2.007 2.311 0 1.191.739 1.943 1.716 1.943.594 0 1.043-.303 1.324-.82.269.594.886.808 1.492.808 1.459 0 2.121-1.279 2.121-2.514 0-.972-.381-1.875-1-2.596" fill-rule="evenodd"/></svg><svg width="28" height="28" viewBox="-4 -4 28 28" id="ic-20-menu-folder-at-d-5-d-5-d-6" x="84" y="145" xmlns="http://www.w3.org/2000/svg"><path fill="#D5D5D6" d="M13.612 9a4.514 4.514 0 00-4.499 4.5c0 .924.283 1.784.766 2.5H5c-.552 0-1-.449-1-1.002V4.346C4 4.155 4.154 4 4.343 4h3.313c.099 0 .184.042.201.058L9.394 5.83a.501.501 0 00.377.172l5.312-.004c.522.045.917.47.917.989v2.69A4.523 4.523 0 0013.612 9m-.202 5.397c-.381 0-.718-.325-.718-.762 0-.528.371-.954.842-.954.449 0 .729.325.729.786 0 .47-.314.93-.853.93M17 10.545V6.987C17 5.944 16.212 5.09 15.125 5L10 5.002 8.59 3.378A1.324 1.324 0 007.656 3H4.343C3.602 3 3 3.604 3 4.346v10.652C3 16.102 3.897 17 5 17h5.825c.77.616 1.732 1 2.787 1 .888 0 1.56-.214 2.031-.516l-.516-1.123c-.392.247-.808.37-1.515.37-1.772 0-3.187-1.469-3.187-3.231 0-1.773 1.415-3.232 3.187-3.232 1.763 0 3.075 1.336 3.075 2.884 0 .707-.235 1.28-.684 1.28-.258 0-.46-.169-.439-.551l.136-2.345h-1.325l-.011.337c-.213-.292-.538-.461-1.01-.461-1.099 0-2.008 1.011-2.008 2.312 0 1.19.74 1.942 1.717 1.942.594 0 1.043-.303 1.323-.819.27.593.887.807 1.493.807 1.46 0 2.121-1.279 2.121-2.513 0-.973-.381-1.875-1-2.596" fill-rule="evenodd"/></svg><svg width="28" height="28" viewBox="-4 -4 28 28" id="ic-20-menu-folder-d-5-d-5-d-6" x="112" y="145" xmlns="http://www.w3.org/2000/svg"><path fill="#D5D5D6" d="M7.656 3H4.343C3.601 3 3 3.603 3 4.346v10.652A2 2 0 005 17h10c1.104 0 2-.896 2-2.002V6.987a1.996 1.996 0 00-1.834-1.985H10L8.613 3.403v.001A1.335 1.335 0 007.656 3m0 1c.104 0 .181.046.229.09l1.359 1.567.3.345h5.574a.99.99 0 01.882.985v8.011c0 .553-.448 1.002-1 1.002H5c-.552 0-1-.449-1-1.002V4.346C4 4.155 4.154 4 4.343 4h3.313" fill-rule="nonzero"/></svg><svg width="28" height="28" viewBox="-4 -4 28 28" id="ic-20-menu-folder-domain" x="140" y="145" xmlns="http://www.w3.org/2000/svg"><path fill="#222" d="M13.612 9a4.514 4.514 0 00-4.499 4.5c0 .924.283 1.784.766 2.5H5c-.552 0-1-.449-1-1.002V4.346C4 4.155 4.154 4 4.343 4h3.313c.099 0 .184.042.201.058L9.394 5.83a.501.501 0 00.377.172l5.312-.004c.522.045.917.47.917.989v2.69A4.523 4.523 0 0013.612 9m-.202 5.397c-.381 0-.718-.325-.718-.762 0-.528.371-.954.842-.954.449 0 .729.325.729.786 0 .47-.314.93-.853.93M17 10.545V6.987C17 5.944 16.212 5.09 15.125 5L10 5.002 8.59 3.378A1.324 1.324 0 007.656 3H4.343C3.602 3 3 3.604 3 4.346v10.652C3 16.102 3.897 17 5 17h5.825c.77.616 1.732 1 2.787 1 .888 0 1.56-.214 2.031-.516l-.516-1.123c-.392.247-.808.37-1.515.37-1.772 0-3.187-1.469-3.187-3.231 0-1.773 1.415-3.232 3.187-3.232 1.763 0 3.075 1.336 3.075 2.884 0 .707-.235 1.28-.684 1.28-.258 0-.46-.169-.439-.551l.136-2.345h-1.325l-.011.337c-.213-.292-.538-.461-1.01-.461-1.099 0-2.008 1.011-2.008 2.312 0 1.19.74 1.942 1.717 1.942.594 0 1.043-.303 1.323-.819.27.593.887.807 1.493.807 1.46 0 2.121-1.279 2.121-2.513 0-.973-.381-1.875-1-2.596" fill-rule="evenodd"/></svg><svg width="28" height="28" viewBox="-4 -4 28 28" id="ic-20-menu-folder-domain-on" x="177" xmlns="http://www.w3.org/2000/svg"><path d="M13.41 14.397c-.381 0-.718-.325-.718-.763 0-.527.371-.954.841-.954.45 0 .731.325.731.786 0 .471-.315.931-.854.931M17 10.544V6.987c0-1.048-.809-1.9-1.834-1.986H10L8.613 3.403v.001A1.335 1.335 0 007.656 3H4.344C3.601 3 3 3.602 3 4.345v10.653C3 16.103 3.895 17 5 17h5.825c.771.616 1.732 1 2.787 1 .888 0 1.56-.214 2.031-.516l-.516-1.123c-.392.247-.808.37-1.515.37-1.772 0-3.186-1.47-3.186-3.231 0-1.774 1.414-3.233 3.186-3.233 1.763 0 3.075 1.336 3.075 2.885 0 .707-.235 1.279-.684 1.279-.258 0-.46-.169-.439-.551l.136-2.344h-1.325l-.011.337c-.213-.292-.538-.461-1.01-.461-1.099 0-2.007 1.01-2.007 2.311 0 1.191.739 1.943 1.716 1.943.594 0 1.043-.303 1.324-.82.269.594.886.808 1.492.808 1.459 0 2.121-1.279 2.121-2.514 0-.972-.381-1.875-1-2.596" fill="#157EFB" fill-rule="evenodd"/></svg><svg width="28" height="28" viewBox="-4 -4 28 28" id="ic-20-menu-folder-lock-157-efb" x="177" y="28" xmlns="http://www.w3.org/2000/svg"><path fill="#157EFB" d="M18 17a1 1 0 01-1 1h-5a1 1 0 01-1-1v-3a1 1 0 011-1v-1.5c0-1.375 1.125-2.5 2.5-2.5s2.5 1.125 2.5 2.5V13a1 1 0 011 1v3zm0-4.731V11.5a3.48 3.48 0 00-1-2.441V6.987a1.996 1.996 0 00-1.834-1.985H10L8.613 3.403v.001A1.335 1.335 0 007.656 3H4.344C3.602 3 3 3.603 3 4.346v10.652C3 16.104 3.896 17 5 17h5c0 1.103.897 2 2 2h5c1.103 0 2-.897 2-2v-3a2 2 0 00-1-1.731zm-3.5-2.067a1.3 1.3 0 00-1.298 1.298V13h2.595v-1.5c0-.716-.582-1.298-1.297-1.298z" fill-rule="evenodd"/></svg><svg width="28" height="28" viewBox="-4 -4 28 28" id="ic-20-menu-folder-lock-5-facff" x="177" y="56" xmlns="http://www.w3.org/2000/svg"><path fill="#5FACFF" d="M18 17a1 1 0 01-1 1h-5a1 1 0 01-1-1v-3a1 1 0 011-1v-1.5c0-1.375 1.125-2.5 2.5-2.5s2.5 1.125 2.5 2.5V13a1 1 0 011 1v3zm0-4.731V11.5a3.48 3.48 0 00-1-2.441V6.987a1.996 1.996 0 00-1.834-1.985H10L8.613 3.403v.001A1.335 1.335 0 007.656 3H4.344C3.602 3 3 3.603 3 4.346v10.652C3 16.104 3.896 17 5 17h5c0 1.103.897 2 2 2h5c1.103 0 2-.897 2-2v-3a2 2 0 00-1-1.731zm-3.5-2.067a1.3 1.3 0 00-1.298 1.298V13h2.595v-1.5c0-.716-.582-1.298-1.297-1.298z" fill-rule="evenodd"/></svg><svg width="28" height="28" viewBox="-4 -4 28 28" id="ic-20-menu-folder-lock-767676" x="177" y="84" xmlns="http://www.w3.org/2000/svg"><path fill="#222" d="M15.797 13h-2.595v-1.5a1.3 1.3 0 011.298-1.298c.715 0 1.297.582 1.297 1.298V13zM17 13v-1.5c0-1.375-1.125-2.5-2.5-2.5S12 10.125 12 11.5V13a1 1 0 00-1 1v3a1 1 0 001 1h5a1 1 0 001-1v-3a1 1 0 00-1-1zM4.344 4h3.312c.099 0 .184.042.202.058L9.395 5.83a.498.498 0 00.377.172l5.31-.004c.524.045.918.47.918.989v1.048a.5.5 0 101 0V6.987C17 5.944 16.212 5.09 15.125 5L10 5.002 8.59 3.378A1.322 1.322 0 007.656 3H4.344C3.603 3 3 3.604 3 4.346v10.652C3 16.102 3.898 17 5 17h4.25a.5.5 0 000-1H5c-.552 0-1-.449-1-1.002V4.346C4 4.155 4.154 4 4.344 4z" fill-rule="evenodd"/></svg><svg width="28" height="28" viewBox="-4 -4 28 28" id="ic-20-menu-folder-lock-d-5-d-5-d-6" x="177" y="112" xmlns="http://www.w3.org/2000/svg"><path fill="#D5D5D6" d="M15.797 13h-2.595v-1.5a1.3 1.3 0 011.298-1.298c.715 0 1.297.582 1.297 1.298V13zM17 13v-1.5c0-1.375-1.125-2.5-2.5-2.5S12 10.125 12 11.5V13a1 1 0 00-1 1v3a1 1 0 001 1h5a1 1 0 001-1v-3a1 1 0 00-1-1zM4.344 4h3.312c.099 0 .184.042.202.058L9.395 5.83a.498.498 0 00.377.172l5.31-.004c.524.045.918.47.918.989v1.048a.5.5 0 101 0V6.987C17 5.944 16.212 5.09 15.125 5L10 5.002 8.59 3.378A1.322 1.322 0 007.656 3H4.344C3.603 3 3 3.604 3 4.346v10.652C3 16.102 3.898 17 5 17h4.25a.5.5 0 000-1H5c-.552 0-1-.449-1-1.002V4.346C4 4.155 4.154 4 4.344 4z" fill-rule="evenodd"/></svg><svg width="28" height="28" viewBox="-4 -4 28 28" id="ic-20-menu-folder-on" x="177" y="140" xmlns="http://www.w3.org/2000/svg"><path d="M15.166 5.002H10L8.613 3.403A1.338 1.338 0 007.656 3H4.344C3.602 3 3 3.603 3 4.346v10.652A2 2 0 005 17h10c1.104 0 2-.896 2-2.002V6.987a1.996 1.996 0 00-1.834-1.985" fill="#157EFB" fill-rule="nonzero"/></svg><svg width="28" height="28" viewBox="-4 -4 28 28" id="ic-20-menu-groups" y="173" xmlns="http://www.w3.org/2000/svg"><path fill="#222" d="M17.693 17H8.306A.315.315 0 018 16.679l.001-1.234c.002-.225.012-.356.1-.658.067-.225.396-.844 2.015-1.703l.107-.058c.477-.253.877-.467 1.109-.618.342-.234.581-.665.608-1.128v-.624c0-.284-.106-.553-.298-.756a17.257 17.257 0 01-.414-.45c-.28-.325-.458-1.066-.576-2.401-.06-.681.051-1.301.309-1.806.004-.012.01-.022.014-.035.091-.173.2-.333.327-.475.423-.472 1.017-.725 1.734-.731L13.11 4c.594 0 1.169.265 1.587.733.502.562.732 1.384.65 2.316-.118 1.335-.295 2.074-.567 2.391-.075.085-.244.269-.423.461a1.1 1.1 0 00-.298.756l.002.701c.028.396.269.816.613 1.054.227.147.629.363 1.108.618l.104.055c1.617.858 1.946 1.477 2.011 1.701.084.288.099.418.102.659L18 16.679a.315.315 0 01-.307.321zM3 16.678l.001-1.233c.002-.226.012-.357.1-.658.067-.226.397-.846 2.015-1.703l.107-.058c.477-.253.877-.467 1.109-.618.342-.234.581-.665.608-1.128v-.624c0-.282-.106-.551-.299-.757-.178-.19-.344-.371-.413-.448-.281-.326-.459-1.067-.576-2.403-.082-.931.148-1.752.65-2.315.423-.472 1.017-.725 1.734-.731.63-.038 1.225.243 1.661.73.089.101.171.226.251.366a4.378 4.378 0 00-.292 2.039c.143 1.62.372 2.452.814 2.966.077.087.253.279.47.553l.001.594a.475.475 0 01-.164.325 16.97 16.97 0 01-1.024.57l-.108.057c-1.435.762-2.278 1.536-2.503 2.304A3.016 3.016 0 007 15.44v1.239c0 .114.037.216.064.321H3.306A.315.315 0 013 16.678zm15.999-1.238v-.004a2.996 2.996 0 00-.142-.93c-.225-.767-1.066-1.542-2.503-2.305l-.104-.055a17.447 17.447 0 01-1.02-.565.496.496 0 01-.17-.258l.027-.738c.187-.2.362-.392.447-.487.438-.512.666-1.342.809-2.961.108-1.209-.212-2.299-.9-3.07-.635-.712-1.556-1.101-2.43-1.065-.977.008-1.849.387-2.457 1.065-.021.024-.034.054-.054.078-.02-.025-.038-.054-.059-.078-.636-.712-1.548-1.101-2.43-1.065-.977.008-1.849.387-2.457 1.065-.687.771-1.008 1.861-.9 3.069.142 1.621.371 2.453.818 2.972.076.086.25.277.466.548l.001.594a.475.475 0 01-.164.325 16.97 16.97 0 01-1.024.57l-.108.057c-1.434.76-2.277 1.535-2.503 2.304A3.012 3.012 0 002 15.44v1.238C2 17.407 2.586 18 3.306 18h14.387c.721 0 1.307-.593 1.307-1.321l-.001-1.239z" fill-rule="evenodd"/></svg><svg width="28" height="28" viewBox="-4 -4 28 28" id="ic-20-menu-groups-5-facff" x="28" y="173" xmlns="http://www.w3.org/2000/svg"><path fill="#5FACFF" d="M9.022 11.403c.241-.126.544-.283.766-.405-.113-.12-.207-.223-.262-.284-.73-.833-.978-2.093-1.125-3.731-.107-1.188.12-2.296.642-3.211-.554-.504-1.264-.798-2.025-.77-.895.007-1.703.332-2.277.963-.649.713-.949 1.738-.846 2.884.144 1.591.363 2.424.759 2.875.08.091.266.29.467.5a.643.643 0 01.177.444v.668a1.035 1.035 0 01-.426.765c-.234.149-.656.371-1.157.632l-.12.064c-1.802.939-2.327 1.693-2.463 2.145a2.614 2.614 0 00-.131.851H1v1.326a.88.88 0 00.879.881h3.794a2.376 2.376 0 01-.173-.881l.001-1.342c.003-.408.036-.73.195-1.265.328-1.096 1.377-2.093 3.202-3.044l.124-.065zm9.977 4.39a2.664 2.664 0 00-.132-.851c-.136-.452-.66-1.206-2.463-2.145l-.114-.061c-.503-.262-.929-.485-1.168-.638a1.025 1.025 0 01-.419-.716l-.002-.714c0-.166.064-.326.176-.444.202-.211.388-.41.472-.504.392-.447.611-1.28.755-2.871.104-1.146-.196-2.171-.846-2.884a2.876 2.876 0 00-2.24-.963c-.895.007-1.703.332-2.277.963-.649.713-.949 1.738-.846 2.884.144 1.591.363 2.424.759 2.875.08.091.266.29.467.5a.643.643 0 01.177.444v.668a1.035 1.035 0 01-.426.765c-.234.149-.656.371-1.157.632l-.12.064c-1.802.939-2.327 1.693-2.463 2.145a2.614 2.614 0 00-.131.851H7v1.326a.88.88 0 00.879.881H18.12c.485 0 .88-.395.88-.881v-1.326h-.001z" fill-rule="evenodd"/></svg><svg width="28" height="28" viewBox="-4 -4 28 28" id="ic-20-menu-groups-d-5-d-5-d-6" x="56" y="173" xmlns="http://www.w3.org/2000/svg"><path fill="#D5D5D6" d="M17.693 17H8.306A.315.315 0 018 16.679l.001-1.234c.002-.225.012-.356.1-.658.067-.225.396-.844 2.015-1.703l.107-.058c.477-.253.877-.467 1.109-.618.342-.234.581-.665.608-1.128v-.624c0-.284-.106-.553-.298-.756a17.257 17.257 0 01-.414-.45c-.28-.325-.458-1.066-.576-2.401-.06-.681.051-1.301.309-1.806.004-.012.01-.022.014-.035.091-.173.2-.333.327-.475.423-.472 1.017-.725 1.734-.731L13.11 4c.594 0 1.169.265 1.587.733.502.562.732 1.384.65 2.316-.118 1.335-.295 2.074-.567 2.391-.075.085-.244.269-.423.461a1.1 1.1 0 00-.298.756l.002.701c.028.396.269.816.613 1.054.227.147.629.363 1.108.618l.104.055c1.617.858 1.946 1.477 2.011 1.701.084.288.099.418.102.659L18 16.679a.315.315 0 01-.307.321zM3 16.678l.001-1.233c.002-.226.012-.357.1-.658.067-.226.397-.846 2.015-1.703l.107-.058c.477-.253.877-.467 1.109-.618.342-.234.581-.665.608-1.128v-.624c0-.282-.106-.551-.299-.757-.178-.19-.344-.371-.413-.448-.281-.326-.459-1.067-.576-2.403-.082-.931.148-1.752.65-2.315.423-.472 1.017-.725 1.734-.731.63-.038 1.225.243 1.661.73.089.101.171.226.251.366a4.378 4.378 0 00-.292 2.039c.143 1.62.372 2.452.814 2.966.077.087.253.279.47.553l.001.594a.475.475 0 01-.164.325 16.97 16.97 0 01-1.024.57l-.108.057c-1.435.762-2.278 1.536-2.503 2.304A3.016 3.016 0 007 15.44v1.239c0 .114.037.216.064.321H3.306A.315.315 0 013 16.678zm15.999-1.238v-.004a2.996 2.996 0 00-.142-.93c-.225-.767-1.066-1.542-2.503-2.305l-.104-.055a17.447 17.447 0 01-1.02-.565.496.496 0 01-.17-.258l.027-.738c.187-.2.362-.392.447-.487.438-.512.666-1.342.809-2.961.108-1.209-.212-2.299-.9-3.07-.635-.712-1.556-1.101-2.43-1.065-.977.008-1.849.387-2.457 1.065-.021.024-.034.054-.054.078-.02-.025-.038-.054-.059-.078-.636-.712-1.548-1.101-2.43-1.065-.977.008-1.849.387-2.457 1.065-.687.771-1.008 1.861-.9 3.069.142 1.621.371 2.453.818 2.972.076.086.25.277.466.548l.001.594a.475.475 0 01-.164.325 16.97 16.97 0 01-1.024.57l-.108.057c-1.434.76-2.277 1.535-2.503 2.304A3.012 3.012 0 002 15.44v1.238C2 17.407 2.586 18 3.306 18h14.387c.721 0 1.307-.593 1.307-1.321l-.001-1.239z" fill-rule="evenodd"/></svg><svg width="28" height="28" viewBox="-4 -4 28 28" id="ic-20-menu-groups-ffffff" x="84" y="173" xmlns="http://www.w3.org/2000/svg"><path fill="#fff" d="M17.693 17H8.306A.315.315 0 018 16.679l.001-1.234c.002-.225.012-.356.1-.658.067-.225.396-.844 2.015-1.703l.107-.058c.477-.253.877-.467 1.109-.618.342-.234.581-.665.608-1.128v-.624c0-.284-.106-.553-.298-.756a17.257 17.257 0 01-.414-.45c-.28-.325-.458-1.066-.576-2.401-.06-.681.051-1.301.309-1.806.004-.012.01-.022.014-.035.091-.173.2-.333.327-.475.423-.472 1.017-.725 1.734-.731L13.11 4c.594 0 1.169.265 1.587.733.502.562.732 1.384.65 2.316-.118 1.335-.295 2.074-.567 2.391-.075.085-.244.269-.423.461a1.1 1.1 0 00-.298.756l.002.701c.028.396.269.816.613 1.054.227.147.629.363 1.108.618l.104.055c1.617.858 1.946 1.477 2.011 1.701.084.288.099.418.102.659L18 16.679a.315.315 0 01-.307.321zM3 16.678l.001-1.233c.002-.226.012-.357.1-.658.067-.226.397-.846 2.015-1.703l.107-.058c.477-.253.877-.467 1.109-.618.342-.234.581-.665.608-1.128v-.624c0-.282-.106-.551-.299-.757-.178-.19-.344-.371-.413-.448-.281-.326-.459-1.067-.576-2.403-.082-.931.148-1.752.65-2.315.423-.472 1.017-.725 1.734-.731.63-.038 1.225.243 1.661.73.089.101.171.226.251.366a4.378 4.378 0 00-.292 2.039c.143 1.62.372 2.452.814 2.966.077.087.253.279.47.553l.001.594a.475.475 0 01-.164.325 16.97 16.97 0 01-1.024.57l-.108.057c-1.435.762-2.278 1.536-2.503 2.304A3.016 3.016 0 007 15.44v1.239c0 .114.037.216.064.321H3.306A.315.315 0 013 16.678zm15.999-1.238v-.004a2.996 2.996 0 00-.142-.93c-.225-.767-1.066-1.542-2.503-2.305l-.104-.055a17.447 17.447 0 01-1.02-.565.496.496 0 01-.17-.258l.027-.738c.187-.2.362-.392.447-.487.438-.512.666-1.342.809-2.961.108-1.209-.212-2.299-.9-3.07-.635-.712-1.556-1.101-2.43-1.065-.977.008-1.849.387-2.457 1.065-.021.024-.034.054-.054.078-.02-.025-.038-.054-.059-.078-.636-.712-1.548-1.101-2.43-1.065-.977.008-1.849.387-2.457 1.065-.687.771-1.008 1.861-.9 3.069.142 1.621.371 2.453.818 2.972.076.086.25.277.466.548l.001.594a.475.475 0 01-.164.325 16.97 16.97 0 01-1.024.57l-.108.057c-1.434.76-2.277 1.535-2.503 2.304A3.012 3.012 0 002 15.44v1.238C2 17.407 2.586 18 3.306 18h14.387c.721 0 1.307-.593 1.307-1.321l-.001-1.239z" fill-rule="evenodd"/></svg><svg width="28" height="28" viewBox="-4 -4 28 28" id="ic-20-menu-groups-hover" x="112" y="173" xmlns="http://www.w3.org/2000/svg"><path fill="#434343" d="M17.693 17H8.306A.315.315 0 018 16.679l.001-1.234c.002-.225.012-.356.1-.658.067-.225.396-.844 2.015-1.703l.107-.058c.477-.253.877-.467 1.109-.618.342-.234.581-.665.608-1.128v-.624c0-.284-.106-.553-.298-.756a17.257 17.257 0 01-.414-.45c-.28-.325-.458-1.066-.576-2.401-.06-.681.051-1.301.309-1.806.004-.012.01-.022.014-.035.091-.173.2-.333.327-.475.423-.472 1.017-.725 1.734-.731L13.11 4c.594 0 1.169.265 1.587.733.502.562.732 1.384.65 2.316-.118 1.335-.295 2.074-.567 2.391-.075.085-.244.269-.423.461a1.1 1.1 0 00-.298.756l.002.701c.028.396.269.816.613 1.054.227.147.629.363 1.108.618l.104.055c1.617.858 1.946 1.477 2.011 1.701.084.288.099.418.102.659L18 16.679a.315.315 0 01-.307.321zM3 16.678l.001-1.233c.002-.226.012-.357.1-.658.067-.226.397-.846 2.015-1.703l.107-.058c.477-.253.877-.467 1.109-.618.342-.234.581-.665.608-1.128v-.624c0-.282-.106-.551-.299-.757-.178-.19-.344-.371-.413-.448-.281-.326-.459-1.067-.576-2.403-.082-.931.148-1.752.65-2.315.423-.472 1.017-.725 1.734-.731.63-.038 1.225.243 1.661.73.089.101.171.226.251.366a4.378 4.378 0 00-.292 2.039c.143 1.62.372 2.452.814 2.966.077.087.253.279.47.553l.001.594a.475.475 0 01-.164.325 16.97 16.97 0 01-1.024.57l-.108.057c-1.435.762-2.278 1.536-2.503 2.304A3.016 3.016 0 007 15.44v1.239c0 .114.037.216.064.321H3.306A.315.315 0 013 16.678zm15.999-1.238v-.004a2.996 2.996 0 00-.142-.93c-.225-.767-1.066-1.542-2.503-2.305l-.104-.055a17.447 17.447 0 01-1.02-.565.496.496 0 01-.17-.258l.027-.738c.187-.2.362-.392.447-.487.438-.512.666-1.342.809-2.961.108-1.209-.212-2.299-.9-3.07-.635-.712-1.556-1.101-2.43-1.065-.977.008-1.849.387-2.457 1.065-.021.024-.034.054-.054.078-.02-.025-.038-.054-.059-.078-.636-.712-1.548-1.101-2.43-1.065-.977.008-1.849.387-2.457 1.065-.687.771-1.008 1.861-.9 3.069.142 1.621.371 2.453.818 2.972.076.086.25.277.466.548l.001.594a.475.475 0 01-.164.325 16.97 16.97 0 01-1.024.57l-.108.057c-1.434.76-2.277 1.535-2.503 2.304A3.012 3.012 0 002 15.44v1.238C2 17.407 2.586 18 3.306 18h14.387c.721 0 1.307-.593 1.307-1.321l-.001-1.239z" fill-rule="evenodd"/></svg><svg width="28" height="28" viewBox="-4 -4 28 28" id="ic-20-menu-groups-on" x="140" y="173" xmlns="http://www.w3.org/2000/svg"><path d="M9.022 11.403c.241-.126.544-.283.766-.405-.113-.12-.207-.223-.262-.284-.73-.833-.978-2.093-1.125-3.731-.107-1.188.12-2.296.642-3.211-.554-.504-1.264-.798-2.025-.77-.895.007-1.703.332-2.277.963-.649.713-.949 1.738-.846 2.884.144 1.591.363 2.424.759 2.875.08.091.266.29.467.5a.643.643 0 01.177.444v.668a1.035 1.035 0 01-.426.765c-.234.149-.656.371-1.157.632l-.12.064c-1.802.939-2.327 1.693-2.463 2.145a2.614 2.614 0 00-.131.851H1v1.326a.88.88 0 00.879.881h3.794a2.376 2.376 0 01-.173-.881l.001-1.342c.003-.408.036-.73.195-1.265.328-1.096 1.377-2.093 3.202-3.044l.124-.065zm9.977 4.39a2.664 2.664 0 00-.132-.851c-.136-.452-.66-1.206-2.463-2.145l-.114-.061c-.503-.262-.929-.485-1.168-.638a1.025 1.025 0 01-.419-.716l-.002-.714c0-.166.064-.326.176-.444.202-.211.388-.41.472-.504.392-.447.611-1.28.755-2.871.104-1.146-.196-2.171-.846-2.884a2.876 2.876 0 00-2.24-.963c-.895.007-1.703.332-2.277.963-.649.713-.949 1.738-.846 2.884.144 1.591.363 2.424.759 2.875.08.091.266.29.467.5a.643.643 0 01.177.444v.668a1.035 1.035 0 01-.426.765c-.234.149-.656.371-1.157.632l-.12.064c-1.802.939-2.327 1.693-2.463 2.145a2.614 2.614 0 00-.131.851H7v1.326a.88.88 0 00.879.881H18.12c.485 0 .88-.395.88-.881v-1.326h-.001z" fill="#157EFB" fill-rule="evenodd"/></svg><svg width="28" height="28" viewBox="-4 -4 28 28" id="ic-20-menu-help-767676" x="168" y="173" xmlns="http://www.w3.org/2000/svg"><g fill="none" fill-rule="evenodd"><path d="M0 0h20v20H0z"/><path fill="#767676" d="M11.725 10.09c-.798.463-.978.721-1.056 1.225-.09.402-.324.637-.75.637-.51 0-.81-.349-.81-.841v-.084c0-.708.366-1.177 1.074-1.59.774-.463 1.008-.763 1.008-1.316 0-.587-.456-.995-1.115-.995-.59 0-.985.288-1.177.822-.15.383-.42.552-.786.552-.475 0-.769-.293-.769-.75 0-.258.06-.486.18-.715.384-.792 1.344-1.301 2.635-1.301 1.704 0 2.85.936 2.85 2.334 0 .906-.437 1.524-1.284 2.022m-1.794 4.533c-.54 0-.978-.415-.978-.943s.437-.942.978-.942c.546 0 .985.414.985.942s-.439.943-.985.943M10 2c-4.419 0-8 3.582-8 8a8 8 0 1016 0c0-4.418-3.583-8-8-8"/></g></svg><svg width="28" height="28" viewBox="-4 -4 28 28" id="ic-20-menu-help-d-5-d-5-d-6" x="205" xmlns="http://www.w3.org/2000/svg"><path fill="#D5D5D6" fill-rule="evenodd" d="M10.049 4.5c-1.724 0-3.592.854-3.535 3.246h1.764c.007-.934.563-1.668 1.667-1.668.836 0 1.61.419 1.61 1.418 0 .781-.475 1.135-1.233 1.684-.869.627-1.521 1.368-1.465 2.56l.008.539h1.756v-.434c0-.903.346-1.168 1.288-1.861.765-.563 1.578-1.216 1.578-2.593 0-1.949-1.626-2.891-3.438-2.891m-.242 8.568c-.773 0-1.32.499-1.32 1.224 0 .709.547 1.208 1.32 1.208.805 0 1.353-.499 1.353-1.208 0-.725-.548-1.224-1.353-1.224M10 18c-4.411 0-8-3.589-8-8s3.589-8 8-8 8 3.589 8 8-3.589 8-8 8m0-18C4.477 0 0 4.477 0 10s4.477 10 10 10 10-4.477 10-10S15.523 0 10 0"/></svg><svg width="28" height="28" viewBox="-4 -4 28 28" id="ic-20-menu-help-ffffff" x="205" y="28" xmlns="http://www.w3.org/2000/svg"><path fill="#FFF" fill-rule="evenodd" d="M10.049 4.5c-1.724 0-3.592.854-3.535 3.246h1.764c.007-.934.563-1.668 1.667-1.668.836 0 1.61.419 1.61 1.418 0 .781-.475 1.135-1.233 1.684-.869.627-1.521 1.368-1.465 2.56l.008.539h1.756v-.434c0-.903.346-1.168 1.288-1.861.765-.563 1.578-1.216 1.578-2.593 0-1.949-1.626-2.891-3.438-2.891m-.242 8.568c-.773 0-1.32.499-1.32 1.224 0 .709.547 1.208 1.32 1.208.805 0 1.353-.499 1.353-1.208 0-.725-.548-1.224-1.353-1.224M10 18c-4.411 0-8-3.589-8-8s3.589-8 8-8 8 3.589 8 8-3.589 8-8 8m0-18C4.477 0 0 4.477 0 10s4.477 10 10 10 10-4.477 10-10S15.523 0 10 0"/></svg><svg width="28" height="28" viewBox="-4 -4 28 28" id="ic-20-menu-help-line" x="205" y="56" xmlns="http://www.w3.org/2000/svg"><path fill="#767676" d="M10.18 5.2c-1.451 0-2.532.573-2.964 1.465a1.664 1.664 0 00-.203.804c0 .513.331.843.864.843.412 0 .716-.189.885-.621.216-.6.662-.925 1.323-.925.743 0 1.256.459 1.256 1.121 0 .622-.263.959-1.134 1.479-.797.466-1.209.992-1.209 1.789v.095c0 .554.338.945.912.945.479 0 .743-.264.844-.716.088-.567.29-.857 1.189-1.378.952-.56 1.444-1.255 1.444-2.275 0-1.572-1.289-2.626-3.207-2.626m-.257 7.88c-.607 0-1.1.466-1.1 1.059 0 .595.493 1.061 1.1 1.061.614 0 1.108-.466 1.108-1.061 0-.593-.494-1.059-1.108-1.059M10 17.5c-4.135 0-7.5-3.364-7.5-7.5S5.865 2.5 10 2.5c4.136 0 7.5 3.364 7.5 7.5s-3.364 7.5-7.5 7.5M10 1a9 9 0 100 18 9 9 0 000-18" fill-rule="evenodd"/></svg><svg width="28" height="28" viewBox="-4 -4 28 28" id="ic-20-menu-help-line-434343" x="205" y="84" xmlns="http://www.w3.org/2000/svg"><path fill="#434343" d="M10.18 5.2c-1.451 0-2.532.573-2.964 1.465a1.664 1.664 0 00-.203.804c0 .513.331.843.864.843.412 0 .716-.189.885-.621.216-.6.662-.925 1.323-.925.743 0 1.256.459 1.256 1.121 0 .622-.263.959-1.134 1.479-.797.466-1.209.992-1.209 1.789v.095c0 .554.338.945.912.945.479 0 .743-.264.844-.716.088-.567.29-.857 1.189-1.378.952-.56 1.444-1.255 1.444-2.275 0-1.572-1.289-2.626-3.207-2.626m-.257 7.88c-.607 0-1.1.466-1.1 1.059 0 .595.493 1.061 1.1 1.061.614 0 1.108-.466 1.108-1.061 0-.593-.494-1.059-1.108-1.059M10 17.5c-4.135 0-7.5-3.364-7.5-7.5S5.865 2.5 10 2.5c4.136 0 7.5 3.364 7.5 7.5s-3.364 7.5-7.5 7.5M10 1a9 9 0 100 18 9 9 0 000-18" fill-rule="evenodd"/></svg><svg width="28" height="28" viewBox="-4 -4 28 28" id="ic-20-menu-help2-d-5-d-5-d-6" x="205" y="112" xmlns="http://www.w3.org/2000/svg"><g fill="none" fill-rule="evenodd"><path d="M0 0h20v20H0z"/><path fill="#D5D5D6" d="M11.675 9.904c-.775.543-1.073.749-1.073 1.472v.331H8.931l-.013-.352c-.073-1.007.404-1.663 1.166-2.174.623-.417 1.021-.702 1.021-1.305 0-.723-.57-1.028-1.173-1.028-.795 0-1.206.524-1.213 1.2H7.002C6.936 6.08 8.5 5.324 10.037 5.324c1.584 0 2.963.802 2.963 2.452 0 1.167-.682 1.684-1.325 2.128M9.82 14.675c-.723 0-1.207-.423-1.207-1.053 0-.643.484-1.067 1.207-1.067.742 0 1.225.424 1.225 1.067 0 .63-.476 1.053-1.225 1.053M10 2a8 8 0 100 16 8 8 0 000-16"/></g></svg><svg width="28" height="28" viewBox="-4 -4 28 28" id="ic-20-menu-import" x="205" y="140" xmlns="http://www.w3.org/2000/svg"><path fill="#222" d="M3.344 4h3.313c.098 0 .183.042.2.058L8.396 5.83a.5.5 0 00.377.172l5.31-.004c.524.045.918.47.918.989v2.01a.5.5 0 101 0v-2.01C16 5.944 15.212 5.09 14.125 5L9 5.002 7.59 3.378A1.321 1.321 0 006.657 3H3.344C2.603 3 2 3.604 2 4.346v10.652C2 16.102 2.898 17 4 17h4a.5.5 0 100-1H4c-.552 0-1-.45-1-1.002V4.346C3 4.155 3.155 4 3.344 4M17.5 14h-5.793l1.64-1.641a.499.499 0 10-.706-.707l-2.493 2.494a.505.505 0 000 .708l2.493 2.494a.5.5 0 00.707-.707L11.707 15H17.5a.5.5 0 100-1" fill-rule="evenodd"/></svg><svg width="28" height="28" viewBox="-4 -4 28 28" id="ic-20-menu-import-5-facff" x="205" y="168" xmlns="http://www.w3.org/2000/svg"><path fill="#5FACFF" d="M16.748 15h-4.189l1.213 1.214c.213.213.267.52.17.786a.732.732 0 01-.7.494.744.744 0 01-.53-.22l-2.494-2.494a.75.75 0 010-1.06l2.494-2.494a.749.749 0 111.06 1.06L12.559 13.5h4.189a.75.75 0 010 1.5m0-3H16V6.987c0-1.048-.809-1.9-1.834-1.985H9l-1.387-1.6v.002A1.331 1.331 0 006.656 3H3.344C2.602 3 2 3.603 2 4.346v10.652A2 2 0 004 17h6.316l1.335 1.335c.425.425.991.659 1.591.659.601 0 1.166-.234 1.591-.66.501-.5.716-1.18.644-1.834h1.271c1.24 0 2.25-1.01 2.25-2.25S17.988 12 16.748 12" fill-rule="evenodd"/></svg><svg width="28" height="28" viewBox="-4 -4 28 28" id="ic-20-menu-import-d-5-d-5-d-6" y="201" xmlns="http://www.w3.org/2000/svg"><path fill="#D5D5D6" d="M3.344 4h3.313c.098 0 .183.042.2.058L8.396 5.83a.5.5 0 00.377.172l5.31-.004c.524.045.918.47.918.989v2.01a.5.5 0 101 0v-2.01C16 5.944 15.212 5.09 14.125 5L9 5.002 7.59 3.378A1.321 1.321 0 006.657 3H3.344C2.603 3 2 3.604 2 4.346v10.652C2 16.102 2.898 17 4 17h4a.5.5 0 100-1H4c-.552 0-1-.45-1-1.002V4.346C3 4.155 3.155 4 3.344 4M17.5 14h-5.793l1.64-1.641a.499.499 0 10-.706-.707l-2.493 2.494a.505.505 0 000 .708l2.493 2.494a.5.5 0 00.707-.707L11.707 15H17.5a.5.5 0 100-1" fill-rule="evenodd"/></svg><svg width="28" height="28" viewBox="-4 -4 28 28" id="ic-20-menu-import-on" x="28" y="201" xmlns="http://www.w3.org/2000/svg"><path d="M16.748 15h-4.189l1.213 1.214c.213.213.267.52.17.786a.732.732 0 01-.7.494.744.744 0 01-.53-.22l-2.494-2.494a.75.75 0 010-1.06l2.494-2.494a.749.749 0 111.06 1.06L12.559 13.5h4.189a.75.75 0 010 1.5m0-3H16V6.987c0-1.048-.809-1.9-1.834-1.985H9l-1.387-1.6v.002A1.331 1.331 0 006.656 3H3.344C2.602 3 2 3.603 2 4.346v10.652A2 2 0 004 17h6.316l1.335 1.335c.425.425.991.659 1.591.659.601 0 1.166-.234 1.591-.66.501-.5.716-1.18.644-1.834h1.271c1.24 0 2.25-1.01 2.25-2.25S17.988 12 16.748 12" fill="#157EFB" fill-rule="evenodd"/></svg><svg width="28" height="28" viewBox="-4 -4 28 28" id="ic-20-menu-myprofile" x="56" y="201" xmlns="http://www.w3.org/2000/svg"><path fill="#767676" d="M13.498 14H6.501L6.5 12.349c0-.182.087-.353.232-.455l2.311-1.382v-.485l-.072-.057a1.778 1.778 0 01-.647-1.374V7.74C8.324 6.781 9.076 6 10 6c.924 0 1.675.781 1.675 1.74v.856c0 .532-.241 1.046-.647 1.374l-.071.057v.485l2.31 1.382a.556.556 0 01.232.455L13.498 14zM2 18h16V2H2v16z" fill-rule="nonzero"/></svg><svg width="28" height="28" viewBox="-4 -4 28 28" id="ic-20-menu-myprofile-d-5-d-5-d-6" x="84" y="201" xmlns="http://www.w3.org/2000/svg"><path fill="#D5D5D6" d="M13.498 14H6.501L6.5 12.349c0-.182.087-.353.232-.455l2.311-1.382v-.485l-.072-.057a1.778 1.778 0 01-.647-1.374V7.74C8.324 6.781 9.076 6 10 6c.924 0 1.675.781 1.675 1.74v.856c0 .532-.241 1.046-.647 1.374l-.071.057v.485l2.31 1.382a.556.556 0 01.232.455L13.498 14zM2 18h16V2H2v16z" fill-rule="nonzero"/></svg><svg width="28" height="28" viewBox="-4 -4 28 28" id="ic-20-menu-mytag-157-efb" x="112" y="201" xmlns="http://www.w3.org/2000/svg"><path d="M15 10.999a1 1 0 110-2 1 1 0 010 2zM9 17a1 1 0 01-1 1H3a1 1 0 01-1-1v-3.001A1 1 0 013 13v-1.5C3 10.125 4.125 9 5.5 9S8 10.125 8 11.5V13a1 1 0 011 1v3zm10.726-7.681v-.003l-.008-.008-.021-.023-4.156-4.561v.003a1.994 1.994 0 00-1.375-.726L11 4H7l-3.166.001A1.995 1.995 0 002 5.986v6.283A2 2 0 001 14v3c0 1.103.897 2 2 2h5c1.103 0 2-.897 2-2v-1.001h4c.624 0 1.174-.292 1.541-.74v.015l4.185-4.584v-.011a.993.993 0 00.274-.68.993.993 0 00-.274-.68zM5.5 10.202A1.3 1.3 0 004.202 11.5V13h2.595v-1.5c0-.716-.582-1.298-1.297-1.298z" fill="#157EFB" fill-rule="evenodd"/></svg><svg width="28" height="28" viewBox="-4 -4 28 28" id="ic-20-menu-mytag-5-facff" x="140" y="201" xmlns="http://www.w3.org/2000/svg"><path d="M15 10.999a1 1 0 110-2 1 1 0 010 2zM9 17a1 1 0 01-1 1H3a1 1 0 01-1-1v-3.001A1 1 0 013 13v-1.5C3 10.125 4.125 9 5.5 9S8 10.125 8 11.5V13a1 1 0 011 1v3zm10.726-7.681v-.003l-.008-.008-.021-.023-4.156-4.561v.003a1.994 1.994 0 00-1.375-.726L11 4H7l-3.166.001A1.995 1.995 0 002 5.986v6.283A2 2 0 001 14v3c0 1.103.897 2 2 2h5c1.103 0 2-.897 2-2v-1.001h4c.624 0 1.174-.292 1.541-.74v.015l4.185-4.584v-.011a.993.993 0 00.274-.68.993.993 0 00-.274-.68zM5.5 10.202A1.3 1.3 0 004.202 11.5V13h2.595v-1.5c0-.716-.582-1.298-1.297-1.298z" fill="#5FACFF" fill-rule="evenodd"/></svg><svg width="28" height="28" viewBox="-4 -4 28 28" id="ic-20-menu-mytag-767676" x="168" y="201" xmlns="http://www.w3.org/2000/svg"><path d="M5.797 13.001H3.202v-1.5A1.3 1.3 0 014.5 10.203c.715 0 1.297.582 1.297 1.298v1.5zm1.203 0v-1.5c0-1.375-1.125-2.5-2.5-2.5S2 10.126 2 11.501v1.5a1 1 0 00-1 1v3a1 1 0 001 1h5a1 1 0 001-1v-3a1 1 0 00-1-1zM15 10a1 1 0 10-2 0 1 1 0 002 0zm3.695-.715L14.54 4.727a1.988 1.988 0 00-1.367-.725L13.147 4h-.028L2.79 4.004C1.787 4.09 1 4.961 1 5.987v2.01a.5.5 0 001 0v-2.01c0-.511.385-.945.834-.985L13.103 5c.257.026.496.157.73.433l4.166 4.56-.062.079-4.028 4.412c-.05.041-.097.088-.142.143A.995.995 0 0113 15h-3a.5.5 0 000 1h3c.595 0 1.156-.27 1.533-.734a.543.543 0 00.084-.075l4.11-4.512A1 1 0 0019 10c0-.248-.097-.488-.305-.715z" fill="#222" fill-rule="evenodd"/></svg><svg width="28" height="28" viewBox="-4 -4 28 28" id="ic-20-menu-mytag-d-5-d-5-d-6" x="196" y="201" xmlns="http://www.w3.org/2000/svg"><path d="M5.797 13H3.202v-1.5A1.3 1.3 0 014.5 10.204c.715 0 1.297.582 1.297 1.298V13zM7 13v-1.5C7 10.127 5.875 9 4.5 9S2 10.127 2 11.5V13a1 1 0 00-1 1v3a1 1 0 001 1h5a1 1 0 001-1v-3a1 1 0 00-1-1zm8-3A1 1 0 1013.002 10 1 1 0 0015 10zm3.695-.715L14.54 4.727a1.992 1.992 0 00-1.367-.725c-.01 0-.018 0-.026-.002h-.028L2.79 4.004C1.787 4.09 1 4.96 1 5.987v2.01a.5.5 0 001 0v-2.01c0-.51.385-.945.834-.985L13.103 5c.257.026.496.157.73.433l4.166 4.56-.062.08-4.028 4.41c-.05.042-.097.089-.142.144A.995.995 0 0113 15h-3a.5.5 0 000 1h3c.595 0 1.156-.27 1.533-.734a.5.5 0 00.084-.075l4.11-4.512a.994.994 0 00.273-.68c0-.247-.097-.487-.305-.714z" fill="#D5D5D6" fill-rule="evenodd"/></svg><svg width="28" height="28" viewBox="-4 -4 28 28" id="ic-20-menu-setting" x="233" xmlns="http://www.w3.org/2000/svg"><path fill="#767676" d="M10.5 11.5c-.827 0-1.5-.673-1.5-1.5s.673-1.5 1.5-1.5S12 9.173 12 10s-.673 1.5-1.5 1.5zm0-4.5a3.001 3.001 0 000 6 3 3 0 000-6zm5.979 7.63l-1.472-.368a1.47 1.47 0 00-.581-.118c-.304 0-.604.091-.86.27a5.357 5.357 0 01-.836.475 1.5 1.5 0 00-.857 1.139l-.42 1.472H9.485l-.417-1.463-.013-.09a1.504 1.504 0 00-.835-1.083 5.343 5.343 0 01-.83-.483 1.492 1.492 0 00-1.419-.175l-1.482.371-.984-1.708 1.058-1.094.074-.059c.363-.314.553-.782.514-1.261A5.677 5.677 0 015.127 10c0-.173.01-.343.026-.512a1.5 1.5 0 00-.474-1.241c-.026-.023-.052-.046-.078-.067L3.535 7.078 4.52 5.37l1.47.368a1.46 1.46 0 00.584.118 1.5 1.5 0 00.86-.27c.252-.177.534-.337.835-.475a1.497 1.497 0 00.857-1.14l.42-1.471h1.968l.418 1.463a1.501 1.501 0 00.847 1.173c.296.138.574.302.829.483a1.499 1.499 0 001.42.175l1.482-.371.984 1.708-1.057 1.094-.07.055a1.501 1.501 0 00-.518 1.263c.01.151.023.303.023.457 0 .172-.01.343-.026.511-.044.466.132.925.474 1.242.026.023.052.046.078.067l1.066 1.102-.986 1.708zm.908-3.946c-.014-.015-.032-.018-.046-.032.019-.214.032-.432.032-.652 0-.195-.013-.389-.03-.58.025-.021.053-.027.075-.051l1.206-1.248c.404-.418.497-1.174.207-1.678l-1.06-1.834c-.24-.419-.764-.694-1.258-.694-.101 0-.2.011-.295.035l-1.683.421c-.021.006-.034.021-.055.027a6.787 6.787 0 00-1.06-.62c-.006-.031.003-.057-.007-.09l-.476-1.669C12.777 1.458 12.17 1 11.589 1H9.474c-.582 0-1.19.458-1.35 1.019l-.476 1.669c-.005.021 0 .039-.004.06a6.913 6.913 0 00-1.07.608c-.028-.009-.047-.03-.078-.038l-1.683-.422a1.258 1.258 0 00-.294-.035c-.495 0-1.02.277-1.261.696L2.2 6.391c-.291.504-.197 1.259.207 1.677l1.206 1.248c.015.015.033.018.047.032-.02.215-.033.432-.033.652 0 .195.014.389.029.58-.023.021-.051.027-.074.051l-1.206 1.248c-.404.418-.497 1.173-.206 1.678l1.058 1.834c.24.419.765.694 1.259.694.1 0 .2-.011.295-.035l1.683-.421c.02-.006.034-.021.055-.027.333.238.687.444 1.06.62.006.031-.003.057.007.09l.476 1.669C8.223 18.542 8.83 19 9.41 19h2.116c.58 0 1.189-.458 1.349-1.019l.476-1.669c.006-.021 0-.039.004-.06a6.913 6.913 0 001.07-.608c.028.009.048.03.079.038l1.682.422c.095.023.195.035.294.035.496 0 1.019-.277 1.26-.696l1.059-1.834c.29-.504.198-1.258-.207-1.677l-1.206-1.248z" fill-rule="evenodd"/></svg><svg width="28" height="28" viewBox="-4 -4 28 28" id="ic-20-menu-setting-434343" x="233" y="28" xmlns="http://www.w3.org/2000/svg"><path fill="#434343" d="M10.5 11.5c-.827 0-1.5-.673-1.5-1.5s.673-1.5 1.5-1.5S12 9.173 12 10s-.673 1.5-1.5 1.5zm0-4.5a3.001 3.001 0 000 6 3 3 0 000-6zm5.979 7.63l-1.472-.368a1.47 1.47 0 00-.581-.118c-.304 0-.604.091-.86.27a5.357 5.357 0 01-.836.475 1.5 1.5 0 00-.857 1.139l-.42 1.472H9.485l-.417-1.463-.013-.09a1.504 1.504 0 00-.835-1.083 5.343 5.343 0 01-.83-.483 1.492 1.492 0 00-1.419-.175l-1.482.371-.984-1.708 1.058-1.094.074-.059c.363-.314.553-.782.514-1.261A5.677 5.677 0 015.127 10c0-.173.01-.343.026-.512a1.5 1.5 0 00-.474-1.241c-.026-.023-.052-.046-.078-.067L3.535 7.078 4.52 5.37l1.47.368a1.46 1.46 0 00.584.118 1.5 1.5 0 00.86-.27c.252-.177.534-.337.835-.475a1.497 1.497 0 00.857-1.14l.42-1.471h1.968l.418 1.463a1.501 1.501 0 00.847 1.173c.296.138.574.302.829.483a1.499 1.499 0 001.42.175l1.482-.371.984 1.708-1.057 1.094-.07.055a1.501 1.501 0 00-.518 1.263c.01.151.023.303.023.457 0 .172-.01.343-.026.511-.044.466.132.925.474 1.242.026.023.052.046.078.067l1.066 1.102-.986 1.708zm.908-3.946c-.014-.015-.032-.018-.046-.032.019-.214.032-.432.032-.652 0-.195-.013-.389-.03-.58.025-.021.053-.027.075-.051l1.206-1.248c.404-.418.497-1.174.207-1.678l-1.06-1.834c-.24-.419-.764-.694-1.258-.694-.101 0-.2.011-.295.035l-1.683.421c-.021.006-.034.021-.055.027a6.787 6.787 0 00-1.06-.62c-.006-.031.003-.057-.007-.09l-.476-1.669C12.777 1.458 12.17 1 11.589 1H9.474c-.582 0-1.19.458-1.35 1.019l-.476 1.669c-.005.021 0 .039-.004.06a6.913 6.913 0 00-1.07.608c-.028-.009-.047-.03-.078-.038l-1.683-.422a1.258 1.258 0 00-.294-.035c-.495 0-1.02.277-1.261.696L2.2 6.391c-.291.504-.197 1.259.207 1.677l1.206 1.248c.015.015.033.018.047.032-.02.215-.033.432-.033.652 0 .195.014.389.029.58-.023.021-.051.027-.074.051l-1.206 1.248c-.404.418-.497 1.173-.206 1.678l1.058 1.834c.24.419.765.694 1.259.694.1 0 .2-.011.295-.035l1.683-.421c.02-.006.034-.021.055-.027.333.238.687.444 1.06.62.006.031-.003.057.007.09l.476 1.669C8.223 18.542 8.83 19 9.41 19h2.116c.58 0 1.189-.458 1.349-1.019l.476-1.669c.006-.021 0-.039.004-.06a6.913 6.913 0 001.07-.608c.028.009.048.03.079.038l1.682.422c.095.023.195.035.294.035.496 0 1.019-.277 1.26-.696l1.059-1.834c.29-.504.198-1.258-.207-1.677l-1.206-1.248z" fill-rule="evenodd"/></svg><svg width="28" height="28" viewBox="-4 -4 28 28" id="ic-20-menu-setting-d-5-d-5-d-6" x="233" y="56" xmlns="http://www.w3.org/2000/svg"><path fill="#D5D5D6" d="M10.5 11.5c-.827 0-1.5-.673-1.5-1.5s.673-1.5 1.5-1.5S12 9.173 12 10s-.673 1.5-1.5 1.5zm0-4.5a3.001 3.001 0 000 6 3 3 0 000-6zm5.979 7.63l-1.472-.368a1.47 1.47 0 00-.581-.118c-.304 0-.604.091-.86.27a5.357 5.357 0 01-.836.475 1.5 1.5 0 00-.857 1.139l-.42 1.472H9.485l-.417-1.463-.013-.09a1.504 1.504 0 00-.835-1.083 5.343 5.343 0 01-.83-.483 1.492 1.492 0 00-1.419-.175l-1.482.371-.984-1.708 1.058-1.094.074-.059c.363-.314.553-.782.514-1.261A5.677 5.677 0 015.127 10c0-.173.01-.343.026-.512a1.5 1.5 0 00-.474-1.241c-.026-.023-.052-.046-.078-.067L3.535 7.078 4.52 5.37l1.47.368a1.46 1.46 0 00.584.118 1.5 1.5 0 00.86-.27c.252-.177.534-.337.835-.475a1.497 1.497 0 00.857-1.14l.42-1.471h1.968l.418 1.463a1.501 1.501 0 00.847 1.173c.296.138.574.302.829.483a1.499 1.499 0 001.42.175l1.482-.371.984 1.708-1.057 1.094-.07.055a1.501 1.501 0 00-.518 1.263c.01.151.023.303.023.457 0 .172-.01.343-.026.511-.044.466.132.925.474 1.242.026.023.052.046.078.067l1.066 1.102-.986 1.708zm.908-3.946c-.014-.015-.032-.018-.046-.032.019-.214.032-.432.032-.652 0-.195-.013-.389-.03-.58.025-.021.053-.027.075-.051l1.206-1.248c.404-.418.497-1.174.207-1.678l-1.06-1.834c-.24-.419-.764-.694-1.258-.694-.101 0-.2.011-.295.035l-1.683.421c-.021.006-.034.021-.055.027a6.787 6.787 0 00-1.06-.62c-.006-.031.003-.057-.007-.09l-.476-1.669C12.777 1.458 12.17 1 11.589 1H9.474c-.582 0-1.19.458-1.35 1.019l-.476 1.669c-.005.021 0 .039-.004.06a6.913 6.913 0 00-1.07.608c-.028-.009-.047-.03-.078-.038l-1.683-.422a1.258 1.258 0 00-.294-.035c-.495 0-1.02.277-1.261.696L2.2 6.391c-.291.504-.197 1.259.207 1.677l1.206 1.248c.015.015.033.018.047.032-.02.215-.033.432-.033.652 0 .195.014.389.029.58-.023.021-.051.027-.074.051l-1.206 1.248c-.404.418-.497 1.173-.206 1.678l1.058 1.834c.24.419.765.694 1.259.694.1 0 .2-.011.295-.035l1.683-.421c.02-.006.034-.021.055-.027.333.238.687.444 1.06.62.006.031-.003.057.007.09l.476 1.669C8.223 18.542 8.83 19 9.41 19h2.116c.58 0 1.189-.458 1.349-1.019l.476-1.669c.006-.021 0-.039.004-.06a6.913 6.913 0 001.07-.608c.028.009.048.03.079.038l1.682.422c.095.023.195.035.294.035.496 0 1.019-.277 1.26-.696l1.059-1.834c.29-.504.198-1.258-.207-1.677l-1.206-1.248z" fill-rule="evenodd"/></svg><svg width="28" height="28" viewBox="-4 -4 28 28" id="ic-20-menu-setting-ffffff" x="233" y="84" xmlns="http://www.w3.org/2000/svg"><path d="M10.5 11.5c-.827 0-1.5-.673-1.5-1.5s.673-1.5 1.5-1.5S12 9.173 12 10s-.673 1.5-1.5 1.5zm0-4.5a3.001 3.001 0 000 6 3 3 0 000-6zm5.979 7.63l-1.472-.368a1.47 1.47 0 00-.581-.118c-.304 0-.604.091-.86.27a5.357 5.357 0 01-.836.475 1.5 1.5 0 00-.857 1.139l-.42 1.472H9.485l-.417-1.463-.013-.09a1.504 1.504 0 00-.835-1.083 5.343 5.343 0 01-.83-.483 1.492 1.492 0 00-1.419-.175l-1.482.371-.984-1.708 1.058-1.094.074-.059c.363-.314.553-.782.514-1.261A5.677 5.677 0 015.127 10c0-.173.01-.343.026-.512a1.5 1.5 0 00-.474-1.241c-.026-.023-.052-.046-.078-.067L3.535 7.078 4.52 5.37l1.47.368a1.46 1.46 0 00.584.118 1.5 1.5 0 00.86-.27c.252-.177.534-.337.835-.475a1.497 1.497 0 00.857-1.14l.42-1.471h1.968l.418 1.463a1.501 1.501 0 00.847 1.173c.296.138.574.302.829.483a1.499 1.499 0 001.42.175l1.482-.371.984 1.708-1.057 1.094-.07.055a1.501 1.501 0 00-.518 1.263c.01.151.023.303.023.457 0 .172-.01.343-.026.511-.044.466.132.925.474 1.242.026.023.052.046.078.067l1.066 1.102-.986 1.708zm.908-3.946c-.014-.015-.032-.018-.046-.032.019-.214.032-.432.032-.652 0-.195-.013-.389-.03-.58.025-.021.053-.027.075-.051l1.206-1.248c.404-.418.497-1.174.207-1.678l-1.06-1.834c-.24-.419-.764-.694-1.258-.694-.101 0-.2.011-.295.035l-1.683.421c-.021.006-.034.021-.055.027a6.787 6.787 0 00-1.06-.62c-.006-.031.003-.057-.007-.09l-.476-1.669C12.777 1.458 12.17 1 11.589 1H9.474c-.582 0-1.19.458-1.35 1.019l-.476 1.669c-.005.021 0 .039-.004.06a6.913 6.913 0 00-1.07.608c-.028-.009-.047-.03-.078-.038l-1.683-.422a1.258 1.258 0 00-.294-.035c-.495 0-1.02.277-1.261.696L2.2 6.391c-.291.504-.197 1.259.207 1.677l1.206 1.248c.015.015.033.018.047.032-.02.215-.033.432-.033.652 0 .195.014.389.029.58-.023.021-.051.027-.074.051l-1.206 1.248c-.404.418-.497 1.173-.206 1.678l1.058 1.834c.24.419.765.694 1.259.694.1 0 .2-.011.295-.035l1.683-.421c.02-.006.034-.021.055-.027.333.238.687.444 1.06.62.006.031-.003.057.007.09l.476 1.669C8.223 18.542 8.83 19 9.41 19h2.116c.58 0 1.189-.458 1.349-1.019l.476-1.669c.006-.021 0-.039.004-.06a6.913 6.913 0 001.07-.608c.028.009.048.03.079.038l1.682.422c.095.023.195.035.294.035.496 0 1.019-.277 1.26-.696l1.059-1.834c.29-.504.198-1.258-.207-1.677l-1.206-1.248z" fill="#FFF" fill-rule="evenodd"/></svg><svg width="28" height="28" viewBox="-4 -4 28 28" id="ic-20-menu-tag-157-efb" x="233" y="112" xmlns="http://www.w3.org/2000/svg"><path d="M14 10.999a1 1 0 110-2 1 1 0 010 2m4.726-1.68v-.003l-.008-.008-.021-.023-4.156-4.561v.003a1.994 1.994 0 00-1.375-.726L10 4H6l-3.166.001A1.995 1.995 0 001 5.986v8.01c0 1.107.896 2.003 2 2.003h10c.624 0 1.174-.292 1.541-.74v.015l4.185-4.584v-.011a.993.993 0 00.274-.68.993.993 0 00-.274-.68" fill="#157EFB" fill-rule="evenodd"/></svg><svg width="28" height="28" viewBox="-4 -4 28 28" id="ic-20-menu-tag-5-facff" x="233" y="140" xmlns="http://www.w3.org/2000/svg"><path fill="#5FACFF" d="M14 10.999a1 1 0 110-2 1 1 0 010 2m4.726-1.68v-.003l-.008-.008-.021-.023-4.156-4.561v.003a1.994 1.994 0 00-1.375-.726L10 4H6l-3.166.001A1.995 1.995 0 001 5.986v8.01c0 1.107.896 2.003 2 2.003h10c.624 0 1.174-.292 1.541-.74v.015l4.185-4.584v-.011a.993.993 0 00.274-.68.993.993 0 00-.274-.68" fill-rule="evenodd"/></svg><svg width="28" height="28" viewBox="-4 -4 28 28" id="ic-20-menu-tag-767676" x="233" y="168" xmlns="http://www.w3.org/2000/svg"><path fill="#222" d="M14 8.999a1 1 0 100 2 1 1 0 000-2m3.911 1.101l-4.003 4.384a.989.989 0 00-.141.141.988.988 0 01-.767.374H3c-.552 0-1-.45-1-1.003v-8.01a.99.99 0 01.883-.985L6 5h4l3.117.001c.253.03.484.157.653.362.023.03.048.057.076.082l4.142 4.546.001-.002.006.007a.977.977 0 00-.084.104m.815-.781v-.003l-.008-.008-.021-.023-4.156-4.561v.003a1.994 1.994 0 00-1.375-.726L10 4H6l-3.166.001A1.995 1.995 0 001 5.986v8.01c0 1.107.896 2.003 2 2.003h10c.624 0 1.174-.292 1.541-.74v.015l4.185-4.584v-.011a.993.993 0 00.274-.68.993.993 0 00-.274-.68" fill-rule="evenodd"/></svg><svg width="28" height="28" viewBox="-4 -4 28 28" id="ic-20-menu-tag-d-5-d-5-d-6" x="233" y="196" xmlns="http://www.w3.org/2000/svg"><path fill="#D5D5D6" d="M14 8.999a1 1 0 100 2 1 1 0 000-2m3.911 1.101l-4.003 4.384a.989.989 0 00-.141.141.988.988 0 01-.767.374H3c-.552 0-1-.45-1-1.003v-8.01a.99.99 0 01.883-.985L6 5h4l3.117.001c.253.03.484.157.653.362.023.03.048.057.076.082l4.142 4.546.001-.002.006.007a.977.977 0 00-.084.104m.815-.781v-.003l-.008-.008-.021-.023-4.156-4.561v.003a1.994 1.994 0 00-1.375-.726L10 4H6l-3.166.001A1.995 1.995 0 001 5.986v8.01c0 1.107.896 2.003 2 2.003h10c.624 0 1.174-.292 1.541-.74v.015l4.185-4.584v-.011a.993.993 0 00.274-.68.993.993 0 00-.274-.68" fill-rule="evenodd"/></svg><svg width="28" height="28" viewBox="-4 -4 28 28" id="ic-20-menu-trash" y="229" xmlns="http://www.w3.org/2000/svg"><path fill="#222" d="M6.5 16a.5.5 0 00.5-.5v-7a.5.5 0 10-1 0v7a.5.5 0 00.5.5zm6 0a.5.5 0 00.5-.5v-7a.5.5 0 10-1 0v7a.5.5 0 00.5.5zm-3 0a.5.5 0 00.5-.5v-7a.5.5 0 10-1 0v7a.5.5 0 00.5.5zm5.5 1a1 1 0 01-1 1H5a1 1 0 01-1-1V6h11v11zM12 2.995V5H6.999l-.004-2L12 2.994zM17.5 5H13V2.995a.997.997 0 00-.995-.996h-5.01A.997.997 0 006 2.995V5H1.5a.5.5 0 100 1H3v11a2 2 0 002 2h9a2 2 0 002-2V6h1.5a.5.5 0 000-1z" fill-rule="nonzero"/></svg><svg width="28" height="28" viewBox="-4 -4 28 28" id="ic-20-menu-trash-5-facff" x="28" y="229" xmlns="http://www.w3.org/2000/svg"><path fill="#5FACFF" d="M12.005 2c.686 0 1.245.558 1.245 1.245V5h4a.75.75 0 110 1.5H16V17a2 2 0 01-2 2H5a2 2 0 01-2-2V6.5H1.75a.75.75 0 010-1.5h4V3.245C5.75 2.558 6.309 2 6.995 2zm.495 6a.5.5 0 00-.5.5v7a.5.5 0 001 0v-7a.5.5 0 00-.5-.5zm-3 0a.5.5 0 00-.5.5v7a.5.5 0 001 0v-7a.5.5 0 00-.5-.5zm-3 0a.5.5 0 00-.5.5v7a.5.5 0 001 0v-7a.5.5 0 00-.5-.5zm5.25-4.5h-4.5V5h4.5V3.5z" fill-rule="nonzero"/></svg><svg width="28" height="28" viewBox="-4 -4 28 28" id="ic-20-menu-trash-d-5-d-5-d-6" x="56" y="229" xmlns="http://www.w3.org/2000/svg"><path fill="#D5D5D6" d="M6.5 16a.5.5 0 00.5-.5v-7a.5.5 0 10-1 0v7a.5.5 0 00.5.5zm6 0a.5.5 0 00.5-.5v-7a.5.5 0 10-1 0v7a.5.5 0 00.5.5zm-3 0a.5.5 0 00.5-.5v-7a.5.5 0 10-1 0v7a.5.5 0 00.5.5zm5.5 1a1 1 0 01-1 1H5a1 1 0 01-1-1V6h11v11zM12 2.995V5H6.999l-.004-2L12 2.994zM17.5 5H13V2.995a.997.997 0 00-.995-.996h-5.01A.997.997 0 006 2.995V5H1.5a.5.5 0 100 1H3v11a2 2 0 002 2h9a2 2 0 002-2V6h1.5a.5.5 0 000-1z" fill-rule="nonzero"/></svg><svg width="28" height="28" viewBox="-4 -4 28 28" id="ic-20-menu-trash-on" x="84" y="229" xmlns="http://www.w3.org/2000/svg"><path fill="#157EFB" d="M12.005 2c.686 0 1.245.558 1.245 1.245V5h4a.75.75 0 110 1.5H16V17a2 2 0 01-2 2H5a2 2 0 01-2-2V6.5H1.75a.75.75 0 010-1.5h4V3.245C5.75 2.558 6.309 2 6.995 2zm.495 6a.5.5 0 00-.5.5v7a.5.5 0 001 0v-7a.5.5 0 00-.5-.5zm-3 0a.5.5 0 00-.5.5v7a.5.5 0 001 0v-7a.5.5 0 00-.5-.5zm-3 0a.5.5 0 00-.5.5v7a.5.5 0 001 0v-7a.5.5 0 00-.5-.5zm5.25-4.5h-4.5V5h4.5V3.5z" fill-rule="nonzero"/></svg><svg width="28" height="28" viewBox="-4 -4 28 28" id="ic-20-menu-vip" x="112" y="229" xmlns="http://www.w3.org/2000/svg"><path fill="#222" d="M14.938 10.124H13.5V8h1.438C15.523 8 16 8.477 16 9.062c0 .585-.477 1.062-1.062 1.062m0-3.124H13a.5.5 0 00-.5.5v5a.5.5 0 101 0v-1.376h1.438A2.064 2.064 0 0017 9.062 2.064 2.064 0 0014.938 7m-6.215.053a.501.501 0 00-.671.223L6 11.382 3.947 7.276a.5.5 0 00-.895.448l2.5 5a.501.501 0 00.895 0l2.5-5a.5.5 0 00-.224-.671M10.5 7a.5.5 0 00-.5.5v5a.5.5 0 101 0v-5a.5.5 0 00-.5-.5m2.5 9H7c-3.309 0-6-2.691-6-6s2.691-6 6-6h6c3.308 0 6 2.691 6 6s-2.692 6-6 6m0-13H7c-3.867 0-7 3.134-7 7s3.133 7 7 7h6a7 7 0 100-14" fill-rule="evenodd"/></svg><svg width="28" height="28" viewBox="-4 -4 28 28" id="ic-20-menu-vip-5-facff" x="140" y="229" xmlns="http://www.w3.org/2000/svg"><path fill="#5FACFF" d="M15.5 11H14v1.25a.75.75 0 01-1.5 0v-4.5a.75.75 0 01.75-.75h2.25c1.103 0 2 .897 2 2s-.897 2-2 2zm-4 1.25a.75.75 0 01-1.5 0v-4.5a.75.75 0 011.5 0v4.5zM8.921 8.085l-2.25 4.5a.749.749 0 01-1.342 0l-2.25-4.5a.75.75 0 011.342-.67L6 10.573l1.579-3.158a.75.75 0 011.342.67zM13 3H7a7 7 0 100 14h6a7 7 0 100-14zm2.5 5.5H14v1h1.5c.275 0 .5-.225.5-.5s-.225-.5-.5-.5z" fill-rule="nonzero"/></svg><svg width="28" height="28" viewBox="-4 -4 28 28" id="ic-20-menu-vip-d-5-d-5-d-6" x="168" y="229" xmlns="http://www.w3.org/2000/svg"><path fill="#D5D5D6" d="M14.938 10.124H13.5V8h1.438C15.523 8 16 8.477 16 9.062c0 .585-.477 1.062-1.062 1.062m0-3.124H13a.5.5 0 00-.5.5v5a.5.5 0 101 0v-1.376h1.438A2.064 2.064 0 0017 9.062 2.064 2.064 0 0014.938 7m-6.215.053a.501.501 0 00-.671.223L6 11.382 3.947 7.276a.5.5 0 00-.895.448l2.5 5a.501.501 0 00.895 0l2.5-5a.5.5 0 00-.224-.671M10.5 7a.5.5 0 00-.5.5v5a.5.5 0 101 0v-5a.5.5 0 00-.5-.5m2.5 9H7c-3.309 0-6-2.691-6-6s2.691-6 6-6h6c3.308 0 6 2.691 6 6s-2.692 6-6 6m0-13H7c-3.867 0-7 3.134-7 7s3.133 7 7 7h6a7 7 0 100-14" fill-rule="nonzero"/></svg><svg width="28" height="28" viewBox="-4 -4 28 28" id="ic-20-menu-vip-ffffff" x="196" y="229" xmlns="http://www.w3.org/2000/svg"><path d="M14.938 10.124H13.5V8h1.438C15.523 8 16 8.477 16 9.062c0 .585-.477 1.062-1.062 1.062m0-3.124H13a.5.5 0 00-.5.5v5a.5.5 0 101 0v-1.376h1.438A2.064 2.064 0 0017 9.062 2.064 2.064 0 0014.938 7m-6.215.053a.501.501 0 00-.671.223L6 11.382 3.947 7.276a.5.5 0 00-.895.448l2.5 5a.501.501 0 00.895 0l2.5-5a.5.5 0 00-.224-.671M10.5 7a.5.5 0 00-.5.5v5a.5.5 0 101 0v-5a.5.5 0 00-.5-.5m2.5 9H7c-3.309 0-6-2.691-6-6s2.691-6 6-6h6c3.308 0 6 2.691 6 6s-2.692 6-6 6m0-13H7c-3.867 0-7 3.134-7 7s3.133 7 7 7h6a7 7 0 100-14" fill="#FFF" fill-rule="nonzero"/></svg><svg width="28" height="28" viewBox="-4 -4 28 28" id="ic-20-menu-vip-hover" x="224" y="229" xmlns="http://www.w3.org/2000/svg"><path fill="#434343" d="M14.938 10.124H13.5V8h1.438C15.523 8 16 8.477 16 9.062c0 .585-.477 1.062-1.062 1.062m0-3.124H13a.5.5 0 00-.5.5v5a.5.5 0 101 0v-1.376h1.438A2.064 2.064 0 0017 9.062 2.064 2.064 0 0014.938 7m-6.215.053a.501.501 0 00-.671.223L6 11.382 3.947 7.276a.5.5 0 00-.895.448l2.5 5a.501.501 0 00.895 0l2.5-5a.5.5 0 00-.224-.671M10.5 7a.5.5 0 00-.5.5v5a.5.5 0 101 0v-5a.5.5 0 00-.5-.5m2.5 9H7c-3.309 0-6-2.691-6-6s2.691-6 6-6h6c3.308 0 6 2.691 6 6s-2.692 6-6 6m0-13H7c-3.867 0-7 3.134-7 7s3.133 7 7 7h6a7 7 0 100-14" fill-rule="nonzero"/></svg><svg width="28" height="28" viewBox="-4 -4 28 28" id="ic-20-menu-vip-on" x="261" xmlns="http://www.w3.org/2000/svg"><path d="M15.5 11H14v1.25a.75.75 0 01-1.5 0v-4.5a.75.75 0 01.75-.75h2.25c1.103 0 2 .897 2 2s-.897 2-2 2zm-4 1.25a.75.75 0 01-1.5 0v-4.5a.75.75 0 011.5 0v4.5zM8.921 8.085l-2.25 4.5a.749.749 0 01-1.342 0l-2.25-4.5a.75.75 0 011.342-.67L6 10.573l1.579-3.158a.75.75 0 011.342.67zM13 3H7a7 7 0 100 14h6a7 7 0 100-14zm2.5 5.5H14v1h1.5c.275 0 .5-.225.5-.5s-.225-.5-.5-.5z" fill="#157EFB" fill-rule="nonzero"/></svg><svg width="33" height="33" viewBox="-4 -4 33 33" id="ic-25-lnb-light-add" xmlns="http://www.w3.org/2000/svg"><g fill="none" fill-rule="evenodd"><path d="M0 0h25v25H0z"/><path fill="#FFF" d="M11 11V3h2v8h8v2h-8v8h-2v-8H3v-2h8z"/></g></svg><svg width="32" height="32" viewBox="-4 -4 32 32" id="ic-25-lnb-light-add-ffffff" x="33" xmlns="http://www.w3.org/2000/svg"><g fill="none" fill-rule="evenodd"><path d="M0 0h24v24H0z"/><path fill="#FFF" d="M19.68 10.8h-6.96V3.84a.96.96 0 00-1.92 0v6.96H3.84a.96.96 0 000 1.92h6.96v6.96a.96.96 0 001.92 0v-6.96h6.96a.96.96 0 000-1.92"/></g></svg><svg width="16" height="16" viewBox="-4 -4 16 16" id="ic-8-arrow-down-ffffff" x="261" y="220" xmlns="http://www.w3.org/2000/svg"><path fill="#FFF" d="M8 2L4 6 0 2h8z"/></svg><svg width="16" height="16" viewBox="-4 -4 16 16" id="ic-8-arrow-line-close" x="261" y="236" xmlns="http://www.w3.org/2000/svg"><path fill="#787878" fill-rule="evenodd" d="M2.25.002l-.752.707L4.995 4 1.499 7.292l.75.705L6.5 4z"/></svg><svg width="16" height="16" viewBox="-4 -4 16 16" id="ic-8-arrow-line-close-c-5-c-5-c-6" y="257" xmlns="http://www.w3.org/2000/svg"><path fill="#C5C5C6" fill-rule="evenodd" d="M2.25.002l-.752.707L4.995 4 1.499 7.292l.75.705L6.5 4z"/></svg><svg width="16" height="16" viewBox="-4 -4 16 16" id="ic-8-arrow-line-open" x="16" y="257" xmlns="http://www.w3.org/2000/svg"><path fill="#767676" fill-rule="evenodd" d="M7.997 2.251L7.29 1.5 3.998 4.995.706 1.5 0 2.251 3.998 6.5z"/></svg><svg width="16" height="16" viewBox="-4 -4 16 16" id="ic-8-arrow-line-open-c-5-c-5-c-6" x="32" y="257" xmlns="http://www.w3.org/2000/svg"><path fill="#C5C5C6" fill-rule="evenodd" d="M7.997 2.251L7.29 1.5 3.998 4.995.706 1.5 0 2.251 3.998 6.5z"/></svg><svg width="16" height="16" viewBox="-4 -4 16 16" id="ic-8-arrow-up-ffffff" x="48" y="257" xmlns="http://www.w3.org/2000/svg"><path fill="#fff" d="M8 6H0l4-4z"/></svg><svg width="24" height="24" viewBox="-4 -4 24 24" id="ic16_add_c5c5c6" x="261" y="148" xmlns="http://www.w3.org/2000/svg"><path fill="#C5C5C6" fill-rule="evenodd" d="M6.999 3v4H3v2h3.999v4h2V9h4V7h-4V3z"/></svg><svg width="24" height="24" viewBox="-4 -4 24 24" id="ic16_more_c5c5c6" x="261" y="172" xmlns="http://www.w3.org/2000/svg"><path fill="#C5C5C6" fill-rule="evenodd" d="M8.5 12a1.5 1.5 0 110 3 1.5 1.5 0 010-3zm0-5a1.5 1.5 0 110 3 1.5 1.5 0 010-3zm0-5a1.5 1.5 0 110 3 1.5 1.5 0 010-3z"/></svg><svg width="24" height="24" viewBox="-4 -4 24 24" id="ic16_setting_c5c5c6" x="261" y="196" xmlns="http://www.w3.org/2000/svg"><path fill="#C5C5C6" d="M7.777 9.928a1.9 1.9 0 01-1.888-1.91 1.9 1.9 0 011.888-1.91 1.9 1.9 0 011.889 1.91 1.9 1.9 0 01-1.889 1.91zm4.41-2.532L13.5 6.069 12.278 3.93l-1.82.494a4.44 4.44 0 00-.996-.573L8.971 2H6.528L6.03 3.876a4.484 4.484 0 00-.946.558L3.222 3.93 2 6.07l1.362 1.377a4.517 4.517 0 00-.003 1.11L2 9.93l1.222 2.14 1.827-.496c.303.239.635.438.993.592L6.528 14h2.443l.48-1.811a4.387 4.387 0 001.041-.604l1.786.484 1.222-2.14-1.31-1.322a4.553 4.553 0 00-.004-1.211z"/></svg><svg width="16" height="16" viewBox="-4 -4 16 16" id="ic8_arrow_line_close_c5c5c6" x="64" y="257" xmlns="http://www.w3.org/2000/svg"><path fill="#C5C5C6" d="M2.25.002l-.752.707L4.995 4 1.499 7.292l.75.705L6.5 4z" fill-rule="evenodd"/></svg><svg width="16" height="16" viewBox="-4 -4 16 16" id="ic8_arrow_line_open_c5c5c6" x="80" y="257" xmlns="http://www.w3.org/2000/svg"><path fill="#C5C5C6" fill-rule="evenodd" d="M7.997 2.251L7.29 1.5 3.998 4.995.706 1.5 0 2.251 3.998 6.5z"/></svg></svg>