<svg xmlns="http://www.w3.org/2000/svg" width="34" height="33" viewBox="-4 -4 34 33" id="ic-25-gnb-light-message-ffffff" x="35" y="396">
  <g fill="none" fill-rule="evenodd">
    <path d="M0 0h25v25H0z" />
    <path d="M19 12.493a1.5 1.5 0 11.001-3.001 1.5 1.5 0 01-.001 3m-6 0a1.5 1.5 0 11.001-3 1.5 1.5 0 01-.001 3m-6 0a1.5 1.5 0 11.001-3 1.5 1.5 0 01-.001 3M22.5 1h-19A2.5 2.5 0 001 3.5v19.993a1.5 1.5 0 001.5 1.5c.459 0 .865-.211 1.141-.534l.006.002L6.99 21H22.5a2.5 2.5 0 002.5-2.5v-15A2.5 2.5 0 0022.5 1" fill="#FFF" />
  </g>
</svg>
