<svg xmlns="http://www.w3.org/2000/svg" width="28" height="28" viewBox="-4 -4 28 28" id="ic-20-menu-groups" y="173"><path fill="#222" d="M17.693 17H8.306A.315.315 0 018 16.679l.001-1.234c.002-.225.012-.356.1-.658.067-.225.396-.844 2.015-1.703l.107-.058c.477-.253.877-.467 1.109-.618.342-.234.581-.665.608-1.128v-.624c0-.284-.106-.553-.298-.756a17.257 17.257 0 01-.414-.45c-.28-.325-.458-1.066-.576-2.401-.06-.681.051-1.301.309-1.806.004-.012.01-.022.014-.035.091-.173.2-.333.327-.475.423-.472 1.017-.725 1.734-.731L13.11 4c.594 0 1.169.265 1.587.733.502.562.732 1.384.65 2.316-.118 1.335-.295 2.074-.567 2.391-.075.085-.244.269-.423.461a1.1 1.1 0 00-.298.756l.002.701c.028.396.269.816.613 1.054.227.147.629.363 1.108.618l.104.055c1.617.858 1.946 1.477 2.011 1.701.084.288.099.418.102.659L18 16.679a.315.315 0 01-.307.321zM3 16.678l.001-1.233c.002-.226.012-.357.1-.658.067-.226.397-.846 2.015-1.703l.107-.058c.477-.253.877-.467 1.109-.618.342-.234.581-.665.608-1.128v-.624c0-.282-.106-.551-.299-.757-.178-.19-.344-.371-.413-.448-.281-.326-.459-1.067-.576-2.403-.082-.931.148-1.752.65-2.315.423-.472 1.017-.725 1.734-.731.63-.038 1.225.243 1.661.73.089.101.171.226.251.366a4.378 4.378 0 00-.292 2.039c.143 1.62.372 2.452.814 2.966.077.087.253.279.47.553l.001.594a.475.475 0 01-.164.325 16.97 16.97 0 01-1.024.57l-.108.057c-1.435.762-2.278 1.536-2.503 2.304A3.016 3.016 0 007 15.44v1.239c0 .114.037.216.064.321H3.306A.315.315 0 013 16.678zm15.999-1.238v-.004a2.996 2.996 0 00-.142-.93c-.225-.767-1.066-1.542-2.503-2.305l-.104-.055a17.447 17.447 0 01-1.02-.565.496.496 0 01-.17-.258l.027-.738c.187-.2.362-.392.447-.487.438-.512.666-1.342.809-2.961.108-1.209-.212-2.299-.9-3.07-.635-.712-1.556-1.101-2.43-1.065-.977.008-1.849.387-2.457 1.065-.021.024-.034.054-.054.078-.02-.025-.038-.054-.059-.078-.636-.712-1.548-1.101-2.43-1.065-.977.008-1.849.387-2.457 1.065-.687.771-1.008 1.861-.9 3.069.142 1.621.371 2.453.818 2.972.076.086.25.277.466.548l.001.594a.475.475 0 01-.164.325 16.97 16.97 0 01-1.024.57l-.108.057c-1.434.76-2.277 1.535-2.503 2.304A3.012 3.012 0 002 15.44v1.238C2 17.407 2.586 18 3.306 18h14.387c.721 0 1.307-.593 1.307-1.321l-.001-1.239z" fill-rule="evenodd"/></svg>