<svg xmlns="http://www.w3.org/2000/svg" width="33" height="33" viewBox="-4 -4 33 33" id="ic-25-gnb-light-calendar-ffffff" x="300" y="396">
  <g fill="none" fill-rule="evenodd">
    <path d="M0 0h25v25H0z" />
    <path d="M24 7v14.5a2.5 2.5 0 01-2.5 2.5h-18A2.5 2.5 0 011 21.5V7h23zM9.631 10.5c-.51 0-.964.085-1.349.254a2.84 2.84 0 00-.975.689.885.885 0 00-.202.498.723.723 0 00.177.518.682.682 0 00.478.273.668.668 0 00.544-.191c.205-.182.41-.321.605-.413.192-.093.432-.139.71-.139.462 0 .8.087 1.003.257.202.17.3.392.3.68v.036c0 .395-.12.694-.354.885-.238.194-.622.294-1.142.294h-.504c-.215 0-.375.074-.476.222a.894.894 0 00-.144.51c0 .199.05.37.144.51.101.147.261.223.476.223h.636c.6 0 1.035.095 1.295.285.257.184.382.465.382.857v.097c0 .16-.029.312-.087.453a.872.872 0 01-.268.359 1.323 1.323 0 01-.498.241 2.97 2.97 0 01-.788.089c-.287 0-.55-.036-.786-.106a2.953 2.953 0 01-.765-.381c-.199-.12-.39-.159-.567-.115-.179.044-.33.168-.45.367a.85.85 0 00-.123.584c.03.209.147.382.348.514.356.227.74.394 1.137.498.397.101.84.152 1.315.152.516 0 .982-.07 1.381-.209a3.093 3.093 0 001.006-.562c.27-.236.478-.512.62-.823.138-.308.21-.642.21-.989v-.12c0-.322-.054-.607-.157-.844a1.782 1.782 0 00-.419-.603 1.958 1.958 0 00-.596-.381 2.738 2.738 0 00-.442-.142 1.96 1.96 0 00.397-.233c.18-.136.337-.3.465-.488.127-.184.226-.391.292-.61.065-.221.098-.443.098-.667v-.059c0-.299-.058-.588-.174-.862a1.923 1.923 0 00-.54-.726 2.73 2.73 0 00-.919-.496 4.09 4.09 0 00-1.294-.186zm7.89.061a1.54 1.54 0 00-.465.075c-.156.05-.342.134-.552.248l-2.032 1.138a.664.664 0 00-.358.482.846.846 0 00.091.562.847.847 0 00.443.401c.194.074.404.053.623-.07l1.45-.838v6.148c0 .257.086.446.257.565.162.111.358.167.58.167.22 0 .415-.056.578-.167.17-.119.258-.308.258-.565v-7.414c0-.256-.088-.445-.258-.564a1.07 1.07 0 00-.615-.168zM21.5 1A2.5 2.5 0 0124 3.5V5H1V3.5A2.5 2.5 0 013.5 1z" fill="#FFF" />
  </g>
</svg>
