<svg xmlns="http://www.w3.org/2000/svg" xmlns:xlink="http://www.w3.org/1999/xlink">
  <defs>
    <g  width="33" height="33" viewBox="-4 -4 33 33" id="board" y="429">
    <g fill="none" fill-rule="evenodd">
        <path d="M0 0h25v25H0z" />
        <path d="M18.01 14h-10a1 1 0 110-2h10a1 1 0 110 2m0 5h-10a1 1 0 110-2h10a1 1 0 110 2M12.247 7.342l2.367-2.704A1.954 1.954 0 0114.5 4a2 2 0 112 2c-.133 0-.261-.015-.386-.039l-2.361 2.697A.994.994 0 0113 9a1 1 0 01-.753-1.658M21.5 2h-1.556c-.695-1.189-1.97-2-3.444-2s-2.75.811-3.443 2H4.5A2.5 2.5 0 002 4.5v18A2.5 2.5 0 004.5 25h17a2.5 2.5 0 002.5-2.5v-18A2.5 2.5 0 0021.5 2" fill-opacity=".9" fill="#000" />
    </g>
    </g>
    <g width="33" height="33" viewBox="-4 -4 33 33" id="btn_toggle" x="399" y="396">
    <g fill="none" fill-rule="evenodd">
    <path d="M0 0h25v25H0z"/>
    <path d="M21 17a1 1 0 010 2H4a1 1 0 010-2h17zm0-6a1 1 0 010 2H4a1 1 0 010-2h17zm0-6a1 1 0 010 2H4a1 1 0 110-2h17z" fill="#222"/>
    </g>
    </g>
  </defs>
</svg>