<svg xmlns="http://www.w3.org/2000/svg" width="33" height="33" viewBox="-4 -4 33 33" id="ic-25-gnb-light-form-ffffff" x="234" y="396">
  <g fill="none" fill-rule="evenodd">
    <path d="M0 0h25v25H0z" />
    <path d="M16 0a2 2 0 012 2h3.5A2.5 2.5 0 0124 4.5v18a2.5 2.5 0 01-2.5 2.5h-18A2.5 2.5 0 011 22.5v-18A2.5 2.5 0 013.5 2H7a2 2 0 012-2zM7 16a2 2 0 10.001 4.001A2 2 0 007 16zm12 1h-5.765a1 1 0 100 2H19a1 1 0 100-2zm-8.627-9.091a1 1 0 00-1.413.07l-1.923 2.122-.639-.76a1 1 0 10-1.531 1.287l1.376 1.636c.187.22.458.35.747.356h.019c.282 0 .551-.119.741-.328l2.692-2.97c.37-.409.34-1.042-.069-1.413zM19 10h-5.765a1 1 0 100 2H19a1 1 0 100-2zm-3-8H9v2h7V2z" fill="#FFF" fill-rule="nonzero" />
  </g>
</svg>
