<svg xmlns="http://www.w3.org/2000/svg" width="33" height="33" viewBox="-4 -4 33 33" id="ic-25-gnb-dark-mail-000000" x="432" y="396"><g fill="none" fill-rule="evenodd"><path d="M0 0h25v25H0z"/><path d="M14.394 14.328a3.003 3.003 0 01-1.894.668 3.002 3.002 0 01-1.893-.668L1 6.529V20.5A2.5 2.5 0 003.5 23h18a2.5 2.5 0 002.5-2.5V6.529l-9.606 7.799zm-1.26-1.553L23.95 3.996A2.502 2.502 0 0021.5 2h-18a2.5 2.5 0 00-2.45 1.996l10.817 8.779c.367.297.9.297 1.267 0z" fill-opacity=".9" fill="#000"/></g></svg>