<?xml version="1.0" encoding="utf-8"?><svg width="332" height="309" viewBox="0 0 332 309" xmlns="http://www.w3.org/2000/svg" xmlns:xlink="http://www.w3.org/1999/xlink"><svg width="36" height="26" viewBox="-4 -4 36 26" id="bt-18-vip-c5c5c6" x="222" y="76" xmlns="http://www.w3.org/2000/svg"><g fill="none" fill-rule="evenodd"><path d="M19 .5a8.47 8.47 0 016.01 2.49C26.55 4.528 27.5 6.653 27.5 9s-.951 4.472-2.49 6.01A8.465 8.465 0 0119 17.5h0H9a8.47 8.47 0 01-6.01-2.49C1.45 13.472.5 11.347.5 9s.951-4.472 2.49-6.01A8.465 8.465 0 019 .5h0z" fill="none" fill-opacity="0" stroke="#C5C5C6"/><path fill="#C5C5C6" fill-rule="nonzero" d="M9.799 13H7.74L5 5h1.91l1.866 6.276h.04L10.68 5h1.86l-2.742 8zm5.49 0h-1.707V5h1.707v8zm1.567-8h3.318C21.847 5 23 6.092 23 7.739c0 1.64-1.193 2.738-2.911 2.738h-1.526V13h-1.707V5zm1.707 1.325v2.844h1.153c.978 0 1.549-.51 1.549-1.425 0-.909-.566-1.419-1.543-1.419h-1.16z"/></g></svg><svg width="36" height="26" viewBox="-4 -4 36 26" id="bt-18-vip-fd472b" x="222" y="102" xmlns="http://www.w3.org/2000/svg"><g fill="none" fill-rule="evenodd"><path stroke="#FD472B" d="M19 .5a8.47 8.47 0 016.01 2.49C26.55 4.528 27.5 6.653 27.5 9s-.951 4.472-2.49 6.01A8.465 8.465 0 0119 17.5h0H9a8.47 8.47 0 01-6.01-2.49C1.45 13.472.5 11.347.5 9s.951-4.472 2.49-6.01A8.465 8.465 0 019 .5h0z"/><path fill="#FD472B" fill-rule="nonzero" d="M9.799 13H7.74L5 5h1.91l1.866 6.276h.04L10.68 5h1.86l-2.742 8zm5.49 0h-1.707V5h1.707v8zm1.567-8h3.318C21.847 5 23 6.092 23 7.739c0 1.64-1.193 2.738-2.911 2.738h-1.526V13h-1.707V5zm1.707 1.325v2.844h1.153c.978 0 1.549-.51 1.549-1.425 0-.909-.566-1.419-1.543-1.419h-1.16z"/></g></svg><svg width="38" height="38" viewBox="-4 -4 38 38" id="bt-30-arrow-swipe-left-989898" x="222" xmlns="http://www.w3.org/2000/svg"><path d="M22.384 27.676L9.738 15.03 22.384 2.383l-.706-.707L8.324 15.03l13.354 13.353z" fill="#989898" fill-rule="nonzero"/></svg><svg width="38" height="38" viewBox="-4 -4 38 38" id="bt-30-arrow-swipe-right-989898" x="222" y="38" xmlns="http://www.w3.org/2000/svg"><path d="M8.324 2.384L20.97 15.03 8.324 27.677l.706.707L22.384 15.03 9.03 1.677z" fill="#989898" fill-rule="nonzero"/></svg><svg width="26" height="19" viewBox="-4 -4 26 19" id="bubble-anchor-fill-11" x="260" y="168" xmlns="http://www.w3.org/2000/svg"><path fill="#157EFB" fill-rule="evenodd" d="M0 11L9 0l9 11H0z"/></svg><svg width="24" height="18" viewBox="-4 -4 24 18" id="bubble_anchor_line" x="260" y="187" xmlns="http://www.w3.org/2000/svg"><g fill="none" fill-rule="evenodd"><path fill="#FFF" d="M.448 10L8 1.504 15.553 10z"/><path fill="#989898" d="M0 9l8-9 8 9v1h-.447L8 1.503.448 9.999H0z"/></g></svg><svg width="20" height="20" viewBox="-4 -4 20 20" id="ic-12-admin-157efb" x="128" y="72" xmlns="http://www.w3.org/2000/svg"><g fill="none" fill-rule="evenodd"><path fill="none" d="M0 0h12v12H0z"/><path fill="#157EFB" fill-rule="nonzero" d="M8.798 8.798H7.574V5.144l-1.575 2.39h-.031l-1.56-2.366v3.63H3.201V3.201h1.327l1.471 2.367 1.472-2.367h1.327v5.597zM2 1c-.551 0-1 .449-1 1v8c0 .55.449 1 1 1h8c.55 0 1-.45 1-1V2c0-.551-.45-1-1-1H2z"/></g></svg><svg width="20" height="20" viewBox="-4 -4 20 20" id="ic-12-arrow-line-close-767676" x="70" y="187" xmlns="http://www.w3.org/2000/svg"><path fill="#767676" d="M.969 9.25L.25 8.528 6 2.75l5.75 5.778-.719.722L6 4.194z" fill-rule="nonzero"/></svg><svg width="20" height="20" viewBox="-4 -4 20 20" id="ic-12-arrow-line-first-767676" x="90" y="187" xmlns="http://www.w3.org/2000/svg"><g fill="#767676"><path d="M11.25.969L6.194 6l5.056 5.031-.722.719L4.75 6 10.528.25z"/><path d="M6.5.969L1.444 6 6.5 11.031l-.722.719L0 6 5.778.25z"/></g></svg><svg width="20" height="20" viewBox="-4 -4 20 20" id="ic-12-arrow-line-last-767676" x="110" y="187" xmlns="http://www.w3.org/2000/svg"><g fill="#767676"><path d="M.75.969L1.472.25 7.25 6l-5.778 5.75-.722-.719L5.806 6z"/><path d="M5.5.969L6.222.25 12 6l-5.778 5.75-.722-.719L10.556 6z"/></g></svg><svg width="20" height="21" viewBox="-4 -4 20 21" id="ic-12-arrow-line-next-767676" x="288" y="264" xmlns="http://www.w3.org/2000/svg"><path fill="#767676" d="M2.75.969L3.472.25 9.25 6l-5.778 5.75-.722-.719L7.806 6z"/></svg><svg width="20" height="20" viewBox="-4 -4 20 20" id="ic-12-arrow-line-next-c-5-c-5-c-6" x="130" y="187" xmlns="http://www.w3.org/2000/svg"><path fill="#C5C5C6" d="M2.75.969L3.472.25 9.25 6l-5.778 5.75-.722-.719L7.806 6z" fill-rule="nonzero"/></svg><svg width="20" height="20" viewBox="-4 -4 20 20" id="ic-12-arrow-line-open-767676" x="150" y="187" xmlns="http://www.w3.org/2000/svg"><path fill="#767676" d="M11.031 2.75l.719.722L6 9.25.25 3.472l.719-.722L6 7.806z" fill-rule="nonzero"/></svg><svg width="20" height="21" viewBox="-4 -4 20 21" id="ic-12-arrow-line-previous-767676" x="201" y="72" xmlns="http://www.w3.org/2000/svg"><path fill="#767676" d="M9.25.969L4.194 6l5.056 5.031-.722.719L2.75 6 8.528.25z"/></svg><svg width="20" height="20" viewBox="-4 -4 20 20" id="ic-12-arrow-table-filter-434343" x="170" y="187" xmlns="http://www.w3.org/2000/svg"><g fill="none" fill-rule="evenodd"><path d="M0 0h12v12H0z"/><path fill="#434343" d="M2 1v2h1V2h6.999v1h1V1H2zm1 2v1h1v1h1V4h2.999v1h1V4h1V3H3zm3.999 7h1V5h-1v5zM5 5v6h1.999v-1H6V5H5z"/></g></svg><svg width="20" height="20" viewBox="-4 -4 20 20" id="ic-12-arrow-table-filter-down-434343" x="190" y="187" xmlns="http://www.w3.org/2000/svg"><g fill="none" fill-rule="evenodd"><path d="M0 0h12v12H0z"/><path fill="#434343" d="M6 0h1v8.736l2.163-2.07.837.837L6.5 11 3 7.503l.836-.836L6 8.737z"/></g></svg><svg width="20" height="20" viewBox="-4 -4 20 20" id="ic-12-arrow-table-filter-up-434343" x="240" y="285" xmlns="http://www.w3.org/2000/svg"><g fill="none" fill-rule="evenodd"><path fill="none" d="M0 12h12V0H0z"/><path fill="#434343" d="M6 11h1V2.264l2.163 2.07.837-.837L6.5 0 3 3.497l.836.836L6 2.263z"/></g></svg><svg width="20" height="20" viewBox="-4 -4 20 20" id="ic-12-close-767676" x="260" y="285" xmlns="http://www.w3.org/2000/svg"><path fill="#767676" d="M10.23 1l.77.77L6.769 6 11 10.23l-.77.77L6 6.769 1.77 11 1 10.23 5.231 6 1 1.77 1.77 1 6 5.23 10.23 1z"/></svg><svg width="20" height="20" viewBox="-4 -4 20 20" id="ic-12-close-ffffff" x="280" y="285" xmlns="http://www.w3.org/2000/svg"><path fill="#FFF" d="M6.77 6L11 10.23l-.77.77L6 6.77 1.77 11 1 10.23 5.23 6 1 1.77 1.77 1 6 5.23 10.23 1l.77.77L6.77 6z"/></svg><svg width="20" height="20" viewBox="-4 -4 20 20" id="ic-12-private-line-767676" x="312" xmlns="http://www.w3.org/2000/svg"><path d="M2 4h8v7H2V4zm7 1H3v5h6V5zM6.75 6.75v1.5h-1.5v-1.5h1.5zM6 1a2.5 2.5 0 012.495 2.336L8.5 3.5V4h-1v-.468L7.498 3.4A1.5 1.5 0 006 2a1.5 1.5 0 00-1.48 1.237l-.015.131L4.5 3.5V4h-1v-.5l.005-.164A2.5 2.5 0 016 1z" fill="#767676" fill-rule="nonzero"/></svg><svg width="24" height="24" viewBox="-4 -4 24 24" id="ic-16-absence" x="260" y="205" xmlns="http://www.w3.org/2000/svg"><g fill="none" fill-rule="evenodd"><path d="M8 .25c-2.14 0-4.078.867-5.48 2.27A7.726 7.726 0 00.25 8c0 2.14.867 4.078 2.27 5.48A7.726 7.726 0 008 15.75c2.14 0 4.078-.867 5.48-2.27A7.726 7.726 0 0015.75 8c0-2.14-.867-4.078-2.27-5.48A7.726 7.726 0 008 .25z" stroke-opacity=".1" stroke="#000" stroke-width=".5" fill="#999"/><path fill="#FFF" d="M9 5.562L8.69 9H7.31L7 5.562V4h2zM7 11.999h2V10H7z"/></g></svg><svg width="24" height="24" viewBox="-4 -4 24 24" id="ic-16-add" x="194" y="110" xmlns="http://www.w3.org/2000/svg"><path fill="#157EFB" d="M6.999 3v4H3v2h3.999v4h2V9h4V7h-4V3z" fill-rule="evenodd"/></svg><svg width="44" height="24" viewBox="-4 -4 44 24" id="ic-16-away" x="150" y="110" xmlns="http://www.w3.org/2000/svg"><g fill="none" fill-rule="evenodd"><path fill="#989898" d="M2 2h32a1 1 0 011 1v10a1 1 0 01-1 1H2a1 1 0 01-1-1V3a1 1 0 011-1z"/><path d="M7.25 5L5 11.34h1.147l.545-1.62h2.334l.535 1.62h1.218L8.524 5H7.25zm.576 1.209h.075l.861 2.614H6.956l.87-2.614zM17.964 5l-1.085 4.72h-.062L15.552 5h-1.007l-1.248 4.72h-.065L12.145 5h-1.181l1.7 6.34h1.068l1.284-4.49h.065l1.293 4.49h1.063l1.7-6.34zm3.612 0l-2.25 6.34h1.147l.545-1.62h2.334l.535 1.62h1.218L22.85 5h-1.274zm.576 1.209h.075l.861 2.614h-1.806l.87-2.614zM29.358 5l-1.506 2.712h-.075L26.265 5h-1.244l2.224 3.863v2.478h1.134V8.863L30.602 5z" fill="#FFF"/></g></svg><svg width="24" height="24" viewBox="-4 -4 24 24" id="ic-16-away2" y="237" xmlns="http://www.w3.org/2000/svg"><g fill="none" fill-rule="evenodd"><circle stroke-opacity=".1" stroke="#000" stroke-width=".5" fill="#FFC043" fill-rule="nonzero" cx="8" cy="8" r="7.75"/><path fill="#FFF" d="M7.004 4h2v3.171l2.243 2.243-1.414 1.414L7.004 8z"/></g></svg><svg width="24" height="24" viewBox="-4 -4 24 24" id="ic-16-bookmark-157efb" x="24" y="237" xmlns="http://www.w3.org/2000/svg"><g fill="none" fill-rule="evenodd"><path d="M0 0h16v16H0z"/><path fill="#157EFB" d="M7.668 2.247L6.332 6.18l-3.988.115a.357.357 0 00-.327.26.387.387 0 00.123.413l3.158 2.547-1.126 4.001a.388.388 0 00.129.41.34.34 0 00.209.072.33.33 0 00.197-.065L8 11.57l3.292 2.363a.333.333 0 00.406-.007.388.388 0 00.13-.41l-1.126-4.001 3.158-2.547a.387.387 0 00.123-.412.357.357 0 00-.327-.26L9.668 6.18 8.332 2.247A.356.356 0 008 2a.355.355 0 00-.332.247z"/></g></svg><svg width="24" height="24" viewBox="-4 -4 24 24" id="ic-16-bookmark-c-5-c-5-c-6" x="48" y="237" xmlns="http://www.w3.org/2000/svg"><g fill="none" fill-rule="evenodd"><path d="M0 0h16v16H0z"/><path fill="#C5C5C6" d="M8 2a.355.355 0 00-.332.247L6.332 6.18l-3.988.115a.357.357 0 00-.327.26.387.387 0 00.123.413l3.158 2.547-1.126 4.001a.388.388 0 00.129.41.34.34 0 00.209.072.33.33 0 00.197-.065L8 11.57l3.292 2.363a.333.333 0 00.406-.007.388.388 0 00.13-.41l-1.126-4.001 3.158-2.547a.387.387 0 00.123-.412.357.357 0 00-.327-.26L9.668 6.18 8.332 2.247A.356.356 0 008 2"/></g></svg><svg width="24" height="24" viewBox="-4 -4 24 24" id="ic-16-bookmark-line" x="72" y="237" xmlns="http://www.w3.org/2000/svg"><g fill="none" fill-rule="evenodd"><path d="M0 0h16v16H0z"/><path fill="#FFF" stroke="#C5C5C6" d="M8 2.824L6.694 6.671l-.348.01-3.637.105 3.16 2.547-.09.318-1.022 3.631L8 10.956l.291.21 2.952 2.117-1.112-3.95.257-.207 2.903-2.34-3.985-.115-.112-.33L8 2.825zM2.455 6.582l-.001-.002.001.002z"/></g></svg><svg width="24" height="24" viewBox="-4 -4 24 24" id="ic-16-busy" x="96" y="237" xmlns="http://www.w3.org/2000/svg"><g fill="none" fill-rule="evenodd"><path d="M8 .25c-2.14 0-4.078.867-5.48 2.27A7.726 7.726 0 00.25 8c0 2.14.867 4.078 2.27 5.48A7.726 7.726 0 008 15.75c2.14 0 4.078-.867 5.48-2.27A7.726 7.726 0 0015.75 8c0-2.14-.867-4.078-2.27-5.48A7.726 7.726 0 008 .25z" stroke-opacity=".1" stroke="#000" stroke-width=".5" fill="#F9702B"/><path fill="#FFF" fill-rule="nonzero" d="M4 9h8V7H4z"/></g></svg><svg width="24" height="24" viewBox="-4 -4 24 24" id="ic-16-call" x="120" y="237" xmlns="http://www.w3.org/2000/svg"><path fill="#157EFB" fill-rule="evenodd" d="M11.77 14A12.473 12.473 0 012 4.226L4.223 2l3.399 3.396-.66.657-1.093 1.094a8.005 8.005 0 003.041 3.018l1.741-1.741L14 11.77 11.77 14z"/></svg><svg width="24" height="24" viewBox="-4 -4 24 24" id="ic-16-checkbox" x="144" y="237" xmlns="http://www.w3.org/2000/svg"><rect width="13" height="13" x=".5" y=".5" fill="#FFF" fill-rule="evenodd" stroke="#C5C5C6" rx="2" transform="translate(1 1)"/></svg><svg width="24" height="24" viewBox="-4 -4 24 24" id="ic-16-checkbox-checked" x="168" y="237" xmlns="http://www.w3.org/2000/svg"><g fill="none"><rect width="14" height="14" x="1" y="1" fill="#157EFB" rx="2"/><path fill="#FFF" d="M4.25 6.667l2.5 2.666 5-5.333L13 5.333 6.75 12 3 8z"/></g></svg><svg width="24" height="24" viewBox="-4 -4 24 24" id="ic-16-clock" x="192" y="237" xmlns="http://www.w3.org/2000/svg"><path fill="#157EFB" fill-rule="evenodd" d="M10.264 10L7 7.96V4h1.227v3.376L11 9.066l-.736.934zM1 7.5a6.5 6.5 0 1013.001-.001A6.5 6.5 0 001 7.5z"/></svg><svg width="24" height="24" viewBox="-4 -4 24 24" id="ic-16-close" x="216" y="237" xmlns="http://www.w3.org/2000/svg"><path fill="#767676" d="M13.923 1L15 2.077 9.076 8 15 13.923 13.923 15 8 9.076 2.077 15 1 13.923 6.924 8 1 2.077 2.077 1 8 6.923 13.923 1z"/></svg><svg width="24" height="24" viewBox="-4 -4 24 24" id="ic-16-close-ffffff" x="240" y="237" xmlns="http://www.w3.org/2000/svg"><path fill="#FFF" d="M13.923 1L15 2.077 9.076 8 15 13.923 13.923 15 8 9.076 2.077 15 1 13.923 6.924 8 1 2.077 2.077 1 8 6.923 13.923 1z"/></svg><svg width="24" height="24" viewBox="-4 -4 24 24" id="ic-16-line" x="264" y="237" xmlns="http://www.w3.org/2000/svg"><g fill="none" fill-rule="evenodd"><rect width="16" height="16" fill="#00B900" rx="4"/><path fill="#FFF" d="M8 2.5c3.308 0 6 2.197 6 4.897 0 1.081-.417 2.054-1.286 3.013l-.146.164C11.25 11.997 8.617 13.653 8 13.914c-.64.271-.546-.173-.52-.325l.086-.517c.02-.154.041-.393-.02-.546-.067-.168-.333-.255-.528-.297C4.135 11.846 2 9.819 2 7.397 2 4.697 4.692 2.5 8 2.5zM6.78 6.092h-.42l-.037.006a.12.12 0 00-.08.112v2.63l.006.036c.016.047.06.08.111.08h.42l.038-.005a.12.12 0 00.08-.112V6.21l-.006-.036a.117.117 0 00-.111-.08zm2.898 0h-.421l-.037.006a.118.118 0 00-.08.112v1.562L7.942 6.145l-.004-.006-.005-.006-.01-.01-.01-.008-.005-.004-.012-.007-.012-.005-.004-.001-.007-.002-.007-.002h-.008l-.434-.002-.037.006a.118.118 0 00-.08.112v2.63l.006.036c.015.047.06.08.11.08h.422l.037-.005a.12.12 0 00.08-.112V7.278l1.2 1.629.013.016.016.013.008.005.002.001.013.006.003.002.008.002a.117.117 0 00.032.004h.42l.038-.005a.12.12 0 00.08-.112V6.21l-.006-.036a.117.117 0 00-.111-.08zm-5.172 0h-.42l-.038.006a.12.12 0 00-.08.112v2.63l.004.03a.13.13 0 00.03.052l.002.002a.14.14 0 00.05.029l.031.004h1.681l.037-.006a.118.118 0 00.08-.112v-.423l-.006-.037a.115.115 0 00-.11-.08H4.622v-2.09l-.006-.036a.117.117 0 00-.111-.08zm7.496 0H10.32l-.03.004a.12.12 0 00-.082.083l-.004.03v2.63l.004.03c.005.02.015.038.03.052l.002.003.023.017.027.012.03.004h1.682l.037-.006a.12.12 0 00.08-.112v-.423l-.006-.037a.117.117 0 00-.111-.08h-1.144v-.445h1.144l.037-.006a.12.12 0 00.08-.112v-.423l-.006-.037a.117.117 0 00-.111-.08h-1.144V6.75h1.144l.037-.006a.12.12 0 00.08-.112V6.21l-.006-.037a.117.117 0 00-.111-.08z"/></g></svg><svg width="24" height="24" viewBox="-4 -4 24 24" id="ic-16-lineworks" y="261" xmlns="http://www.w3.org/2000/svg"><g fill="none" fill-rule="evenodd"><rect width="15.5" height="15.5" x=".25" y=".25" fill="#FFF" stroke="#000" stroke-opacity=".25" stroke-width=".5" rx="4"/><path fill="#028B3A" d="M5.023 12h1.664a.195.195 0 00.186-.144l2.143-7.6A.199.199 0 008.829 4H7.165a.195.195 0 00-.186.144l-2.142 7.6a.199.199 0 00.186.256"/><path fill="#88E518" d="M9.494 12h1.664a.195.195 0 00.186-.144l2.142-7.6A.199.199 0 0013.3 4h-1.664a.195.195 0 00-.186.144l-2.142 7.6a.199.199 0 00.186.256"/><path fill="#7EE5A3" d="M6.687 12h-1.85a.195.195 0 01-.187-.144l-2.142-7.6A.199.199 0 012.694 4h1.85c.087 0 .163.059.187.144l2.142 7.6a.199.199 0 01-.186.256"/><path fill="#00C63B" d="M11.158 12h-1.85a.195.195 0 01-.187-.144l-2.142-7.6A.199.199 0 017.165 4h1.85c.087 0 .163.059.187.144l2.142 7.6a.199.199 0 01-.186.256"/></g></svg><svg width="24" height="24" viewBox="-4 -4 24 24" id="ic-16-member-157-efb" x="24" y="261" xmlns="http://www.w3.org/2000/svg"><path fill="#157EFB" fill-rule="evenodd" d="M13.601 11.398l-3.96-2.437v-.854l.123-.103c.693-.578 1.108-1.484 1.108-2.423V4.07C10.872 2.38 9.584 1.001 8 1c-1.584.001-2.872 1.379-2.872 3.071v1.51c0 .939.414 1.845 1.108 2.423l.123.103v.854L2.4 11.398a.993.993 0 00-.399.803L2.003 14h11.994L14 12.2c0-.32-.15-.62-.399-.802"/></svg><svg width="24" height="24" viewBox="-4 -4 24 24" id="ic-16-member-c-5-c-5-c-6" x="48" y="261" xmlns="http://www.w3.org/2000/svg"><path fill="#C5C5C6" fill-rule="evenodd" d="M13.601 11.398l-3.96-2.437v-.854l.123-.103c.693-.578 1.108-1.484 1.108-2.423V4.07C10.872 2.38 9.584 1.001 8 1c-1.584.001-2.872 1.379-2.872 3.071v1.51c0 .939.414 1.845 1.108 2.423l.123.103v.854L2.4 11.398a.993.993 0 00-.399.803L2.003 14h11.994L14 12.2c0-.32-.15-.62-.399-.802"/></svg><svg width="24" height="24" viewBox="-4 -4 24 24" id="ic-16-menu-mail-157-efb" x="72" y="261" xmlns="http://www.w3.org/2000/svg"><defs><filter id="bma" width="105.5%" height="103.6%" x="-2.7%" y="-1.8%" filterUnits="objectBoundingBox"><feOffset dy="2" in="SourceAlpha" result="shadowOffsetOuter1"/><feGaussianBlur in="shadowOffsetOuter1" result="shadowBlurOuter1" stdDeviation="4"/><feColorMatrix in="shadowBlurOuter1" result="shadowMatrixOuter1" values="0 0 0 0 0 0 0 0 0 0 0 0 0 0 0 0 0 0 0.5 0"/><feMerge><feMergeNode in="shadowMatrixOuter1"/><feMergeNode in="SourceGraphic"/></feMerge></filter></defs><path fill="#157EFB" fill-rule="evenodd" d="M2 3v.653l5.999 4.334L14 3.653V3H2zm5.999 6.221L2 4.888V13h12V4.887L7.999 9.221z" filter="url(#bma)"/></svg><svg width="24" height="24" viewBox="-4 -4 24 24" id="ic-16-more" x="96" y="261" xmlns="http://www.w3.org/2000/svg"><path fill="#767676" fill-rule="evenodd" d="M8.5 5a1.5 1.5 0 110-3 1.5 1.5 0 010 3zm0 5a1.5 1.5 0 110-3 1.5 1.5 0 010 3zm0 5a1.5 1.5 0 110-3 1.5 1.5 0 010 3z"/></svg><svg width="24" height="24" viewBox="-4 -4 24 24" id="ic-16-new" x="120" y="261" xmlns="http://www.w3.org/2000/svg"><g fill="none" fill-rule="evenodd"><circle cx="8" cy="8" r="7.75" fill="#FD472B" stroke="#000" stroke-opacity=".1" stroke-width=".5"/><path fill="#FFF" fill-rule="nonzero" d="M6.248 11H5V5h1.123l3.589 4.204h.045V5H11v6H9.887L6.293 6.792h-.045z"/></g></svg><svg width="35" height="24" viewBox="-4 -4 35 24" id="ic-16-off" x="222" y="128" xmlns="http://www.w3.org/2000/svg"><g fill="none" fill-rule="evenodd"><path fill="#989898" d="M2 2h23a1 1 0 011 1v10a1 1 0 01-1 1H2a1 1 0 01-1-1V3a1 1 0 011-1z"/><path fill="#FFF" d="M6.16 8.327c0 1.415.7 2.325 1.846 2.325 1.13 0 1.832-.91 1.832-2.325 0-1.42-.707-2.32-1.832-2.32-1.13 0-1.846.9-1.846 2.32M8.006 5c1.841 0 2.992 1.279 2.992 3.327 0 2.043-1.142 3.33-2.992 3.33C6.142 11.658 5 10.376 5 8.328S6.164 5 8.006 5zm8.332.159v.98h-2.91v1.845h2.659v.945h-2.658v2.57h-1.134V5.16h4.043zm5.295 0v.98h-2.909v1.845h2.658v.945h-2.658v2.57H17.59V5.16h4.043z"/></g></svg><svg width="24" height="24" viewBox="-4 -4 24 24" id="ic-16-off2" x="144" y="261" xmlns="http://www.w3.org/2000/svg"><g fill="none" fill-rule="evenodd"><circle stroke-opacity=".1" stroke="#000" stroke-width=".5" fill="#999" fill-rule="nonzero" cx="8" cy="8" r="7.75"/><path fill="#FFF" d="M9.004 4v4l-2.828 2.828L4.76 9.414l2.242-2.243L7.004 4z"/></g></svg><svg width="24" height="24" viewBox="-4 -4 24 24" id="ic-16-onlycheck" x="168" y="261" xmlns="http://www.w3.org/2000/svg"><path fill="#157EFB" d="M2.273 6.75L6.09 10.5 13.727 3 15 4.25 6.09 13 1 8z"/></svg><svg width="24" height="24" viewBox="-4 -4 24 24" id="ic-16-print-767676" x="192" y="261" xmlns="http://www.w3.org/2000/svg"><path fill="#767676" d="M2.91 1v4.666H1V13h1.91v2h10.18v-2H15V5.666h-1.91V1H2.91zM4 5V2h8v3H4zm7 3V7h2v1h-2zm-7 6v-4h8v4H4z"/></svg><svg width="24" height="24" viewBox="-4 -4 24 24" id="ic-16-private-line-767676" x="216" y="261" xmlns="http://www.w3.org/2000/svg"><path fill="#767676" d="M8 2a3 3 0 013 3v1h2v8H3V6h2V5a3 3 0 013-3zm4 5H4v6h8V7zM9 9v2H7V9h2zM8 3a2 2 0 00-2 2v1h4V5a2 2 0 00-2-2z"/></svg><svg width="24" height="24" viewBox="-4 -4 24 24" id="ic-16-radio" x="240" y="261" xmlns="http://www.w3.org/2000/svg"><circle cx="8" cy="8" r="6.5" fill="#FFF" fill-rule="evenodd" stroke="#C5C5C6"/></svg><svg width="24" height="24" viewBox="-4 -4 24 24" id="ic-16-radio-checked" x="264" y="261" xmlns="http://www.w3.org/2000/svg"><g fill="none" fill-rule="evenodd"><circle cx="8" cy="8" r="6.5" fill="#157EFB" stroke="#157EFB"/><circle cx="8" cy="8" r="3" fill="#FFF"/></g></svg><svg width="24" height="24" viewBox="-4 -4 24 24" id="ic-16-refresh" x="288" xmlns="http://www.w3.org/2000/svg"><path fill="#767676" d="M12 4.794H9.426v1.098h4.154V1.75h-1.1v1.922l-.06-.061A6.218 6.218 0 008 1.786c-3.446 0-6.25 2.795-6.25 6.231 0 3.438 2.804 6.233 6.25 6.233s6.25-2.795 6.25-6.233v-.25h-1.1v.25c0 2.831-2.31 5.135-5.15 5.135-2.84 0-5.15-2.304-5.15-5.135 0-2.83 2.31-5.133 5.15-5.133 1.376 0 2.668.534 3.642 1.504.123.122.24.256.358.406z"/></svg><svg width="24" height="24" viewBox="-4 -4 24 24" id="ic-16-represent-c-5-c-5-c-6" x="288" y="24" xmlns="http://www.w3.org/2000/svg"><path fill="#C5C5C6" d="M6.232 10.143L13.303 3l1.415 1.429L6.232 13l-4.95-5 1.415-1.429z" fill-rule="evenodd"/></svg><svg width="24" height="24" viewBox="-4 -4 24 24" id="ic-16-schedule" x="288" y="48" xmlns="http://www.w3.org/2000/svg"><path fill="#989898" d="M2 14h11.999V2H2v12zm1-1V5h10v8H3zm6.999-5H12V7H9.999v1zm-3 0h2V7h-2v1zM4 8h2V7H4v1zm5.999 3H12v-1H9.999v1zm-3 0h2v-1h-2v1zM4 11h2v-1H4v1z"/></svg><svg width="24" height="24" viewBox="-4 -4 24 24" id="ic-16-schedule-989898" x="288" y="72" xmlns="http://www.w3.org/2000/svg"><path fill="#989898" d="M2 14h11.999V2H2v12zm1-1V5h10v8H3zm6.999-5H12V7H9.999v1zm-3 0h2V7h-2v1zM4 8h2V7H4v1zm5.999 3H12v-1H9.999v1zm-3 0h2v-1h-2v1zM4 11h2v-1H4v1z" fill-rule="nonzero"/></svg><svg width="24" height="24" viewBox="-4 -4 24 24" id="ic-16-search-157-efb" x="288" y="96" xmlns="http://www.w3.org/2000/svg"><path fill="#157EFB" d="M6.555 0a6.555 6.555 0 015.293 10.421L16 14.571 14.572 16l-4.15-4.152A6.555 6.555 0 116.555 0zm0 1.513a5.042 5.042 0 100 10.084 5.042 5.042 0 100-10.084z"/></svg><svg width="24" height="24" viewBox="-4 -4 24 24" id="ic-16-search-767676" x="288" y="120" xmlns="http://www.w3.org/2000/svg"><path fill="#767676" d="M6.555 0a6.555 6.555 0 015.293 10.421L16 14.571 14.572 16l-4.15-4.152A6.555 6.555 0 116.555 0zm0 1.513a5.042 5.042 0 100 10.084 5.042 5.042 0 000-10.084z"/></svg><svg width="24" height="24" viewBox="-4 -4 24 24" id="ic-16-setting-767676" x="288" y="144" xmlns="http://www.w3.org/2000/svg"><path fill="#767676" d="M7.777 9.928a1.9 1.9 0 01-1.888-1.91 1.9 1.9 0 011.888-1.91 1.9 1.9 0 011.889 1.91 1.9 1.9 0 01-1.889 1.91zm4.41-2.532L13.5 6.069 12.278 3.93l-1.82.494a4.44 4.44 0 00-.996-.573L8.971 2H6.528L6.03 3.876a4.484 4.484 0 00-.946.558L3.222 3.93 2 6.07l1.362 1.377a4.517 4.517 0 00-.003 1.11L2 9.93l1.222 2.14 1.827-.496c.303.239.635.438.993.592L6.528 14h2.443l.48-1.811a4.387 4.387 0 001.041-.604l1.786.484 1.222-2.14-1.31-1.322a4.553 4.553 0 00-.004-1.211z"/></svg><svg width="24" height="24" viewBox="-4 -4 24 24" id="ic-16-standby" x="288" y="168" xmlns="http://www.w3.org/2000/svg"><g fill="none" fill-rule="evenodd"><path fill="none" d="M0 0h16v16H0z"/><path fill="#999" d="M2 2h12v12H2z"/><path fill="#FFF" d="M4 7.25h1.5v1.5H4zM7.25 7.25h1.5v1.5h-1.5zM10.5 7.25H12v1.5h-1.5z"/></g></svg><svg width="24" height="24" viewBox="-4 -4 24 24" id="ic-16-tooltip" x="288" y="192" xmlns="http://www.w3.org/2000/svg"><g fill="none" fill-rule="evenodd"><rect width="13" height="13" x="1.5" y="1.5" fill="#FFF" stroke="#C5C5C6" rx="2"/><path fill="#767676" fill-rule="nonzero" d="M7.237 10.448h1.6V12h-1.6v-1.552zM5.277 6.58c.043-1.02.4-1.744 1.069-2.17.422-.272.941-.409 1.557-.409.81 0 1.482.194 2.017.58.535.387.803.96.803 1.72 0 .465-.116.857-.349 1.176-.136.193-.397.44-.784.74l-.382.296a1.16 1.16 0 00-.413.564c-.043.136-.066.347-.07.634h-1.45c.021-.605.079-1.023.172-1.254.093-.231.333-.497.72-.798l.392-.306a1.37 1.37 0 00.311-.317 1.08 1.08 0 00.215-.65c0-.272-.08-.52-.24-.744-.158-.223-.45-.335-.872-.335-.415 0-.71.137-.883.413a1.59 1.59 0 00-.26.86H5.276z"/></g></svg><svg width="24" height="24" viewBox="-4 -4 24 24" id="ic-16-tooltip-active" x="288" y="216" xmlns="http://www.w3.org/2000/svg"><g fill="none" fill-rule="evenodd"><rect width="13" height="13" x="1.5" y="1.5" fill="#FFF" stroke="#C5C5C6" rx="2"/><path fill="#767676" fill-rule="nonzero" d="M7.237 10.448h1.6V12h-1.6v-1.552zM5.277 6.58c.043-1.02.4-1.744 1.069-2.17.422-.272.941-.409 1.557-.409.81 0 1.482.194 2.017.58.535.387.803.96.803 1.72 0 .465-.116.857-.349 1.176-.136.193-.397.44-.784.74l-.382.296a1.16 1.16 0 00-.413.564c-.043.136-.066.347-.07.634h-1.45c.021-.605.079-1.023.172-1.254.093-.231.333-.497.72-.798l.392-.306a1.37 1.37 0 00.311-.317 1.08 1.08 0 00.215-.65c0-.272-.08-.52-.24-.744-.158-.223-.45-.335-.872-.335-.415 0-.71.137-.883.413a1.59 1.59 0 00-.26.86H5.276z"/><rect width="14" height="14" x="1" y="1" fill="#000" fill-opacity=".1" rx="2"/></g></svg><svg width="24" height="24" viewBox="-4 -4 24 24" id="ic-16-tooltip-c-5-c-5-c-6" x="288" y="240" xmlns="http://www.w3.org/2000/svg"><defs><filter id="cga" width="105.5%" height="102.4%" x="-2.7%" y="-1.2%" filterUnits="objectBoundingBox"><feOffset dy="2" in="SourceAlpha" result="shadowOffsetOuter1"/><feGaussianBlur in="shadowOffsetOuter1" result="shadowBlurOuter1" stdDeviation="4"/><feColorMatrix in="shadowBlurOuter1" result="shadowMatrixOuter1" values="0 0 0 0 0 0 0 0 0 0 0 0 0 0 0 0 0 0 0.5 0"/><feMerge><feMergeNode in="shadowMatrixOuter1"/><feMergeNode in="SourceGraphic"/></feMerge></filter></defs><g fill="none" fill-rule="evenodd" filter="url(#cga)"><rect width="13" height="13" x="1.5" y="1.5" fill="#FFF" stroke="#C5C5C6" rx="2"/><path fill="#767676" fill-rule="nonzero" d="M7.237 10.448h1.6V12h-1.6v-1.552zM5.277 6.58c.043-1.02.4-1.744 1.069-2.17.422-.272.941-.409 1.557-.409.81 0 1.482.194 2.017.58.535.387.803.96.803 1.72 0 .465-.116.857-.349 1.176-.136.193-.397.44-.784.74l-.382.296a1.16 1.16 0 00-.413.564c-.043.136-.066.347-.07.634h-1.45c.021-.605.079-1.023.172-1.254.093-.231.333-.497.72-.798l.392-.306a1.37 1.37 0 00.311-.317 1.08 1.08 0 00.215-.65c0-.272-.08-.52-.24-.744-.158-.223-.45-.335-.872-.335-.415 0-.71.137-.883.413a1.59 1.59 0 00-.26.86H5.276z"/></g></svg><svg width="24" height="24" viewBox="-4 -4 24 24" id="ic-16-voip-f-98326" y="285" xmlns="http://www.w3.org/2000/svg"><path fill="#F98326" fill-rule="evenodd" d="M10 1c-.492 0-.957.094-1.405.226l.28.955A3.947 3.947 0 0110 2c2.205 0 4 1.795 4 4 0 .393-.075.766-.182 1.124l.956.281C14.906 6.957 15 6.492 15 6a5 5 0 00-5-5zm2.864 5.844c.079-.27.136-.549.136-.844 0-1.656-1.344-3-3-3-.295 0-.574.057-.844.135l.282.956C9.617 4.037 9.803 4 10 4c1.102 0 2 .897 2 2 0 .197-.037.383-.091.562l.955.282zm-3.956 3.322a8.035 8.035 0 01-3.041-3.019l1.094-1.094.66-.657L4.223 2 2 4.226A12.47 12.47 0 0011.77 14L14 11.771l-3.35-3.347-1.742 1.742z"/></svg><svg width="28" height="28" viewBox="-4 -4 28 28" id="ic-20-add-item-157-efb" x="222" y="152" xmlns="http://www.w3.org/2000/svg"><g fill="none" fill-rule="evenodd"><path fill="none" d="M0 0h20v20H0z"/><path fill="#157EFB" d="M10.5 5.5h-1v4h-4v1h4v4h1v-4h4v-1h-4v-4zM10 19c-4.963 0-9-4.038-9-9s4.037-9 9-9c4.962 0 9 4.038 9 9s-4.038 9-9 9zm0-19C4.476 0 0 4.478 0 10c0 5.523 4.476 10 10 10 5.523 0 10-4.477 10-10 0-5.522-4.477-10-10-10z"/></g></svg><svg width="28" height="28" viewBox="-4 -4 28 28" id="ic-20-bookmark-line-c-5-c-5-c-6" x="222" y="180" xmlns="http://www.w3.org/2000/svg"><g fill-rule="nonzero" fill="none"><path d="M0 0h20v20H0z"/><path fill="#C5C5C6" d="M10.454 3.977L8.979 8.069a.963.963 0 01-.825.617l-4.196.298 3.264 2.791c.275.24.392.613.306.974L6.5 17.024l3.484-2.361a.94.94 0 011.03 0l3.564 2.345-1.106-4.261a.98.98 0 01.307-.974l3.228-2.826-4.164-.261a.959.959 0 01-.821-.615l-1.57-4.094zm-4 14.022a.952.952 0 01-.54-.171.977.977 0 01-.385-1.036l1.026-4.277-3.221-2.816a.98.98 0 01-.282-1.056.957.957 0 01.835-.657l4.199-.299 1.527-4.068A.948.948 0 0110.5 3c.396 0 .743.243.888.619l1.567 4.093 4.158.274c.383.029.71.285.835.657a.984.984 0 01-.282 1.056l-3.23 2.828 1.036 4.265a.978.978 0 01-.387 1.036.936.936 0 01-1.055.016L10.5 15.52l-3.53 2.324a.941.941 0 01-.516.155z"/></g></svg><svg width="28" height="28" viewBox="-4 -4 28 28" id="ic-20-close-767676" x="78" y="110" xmlns="http://www.w3.org/2000/svg"><path fill="#767676" fill-rule="evenodd" d="M10.7 10l6.3 6.3-.7.7-6.3-6.3L3.7 17l-.7-.7L9.3 10 3 3.7l.7-.7L10 9.3 16.3 3l.7.7z"/></svg><svg width="28" height="28" viewBox="-4 -4 28 28" id="ic-20-file-gul" x="106" y="110" xmlns="http://www.w3.org/2000/svg"><g fill="none"><path fill="#DDA33E" d="M20 19.167a.836.836 0 01-.833.833H.833A.835.835 0 010 19.167V.833C0 .375.375 0 .833 0h18.334c.458 0 .833.375.833.833v18.334z"/><path fill="#FFF" d="M10.417 5.415v1.539L14.63 10l-4.214 3.046v1.54l5.833-4.249v-.675l-5.833-4.248zM3.75 15h1.303L8.005 5H6.702L3.75 15z"/></g></svg><svg width="28" height="28" viewBox="-4 -4 28 28" id="ic-20-file-ms-excel" y="209" xmlns="http://www.w3.org/2000/svg"><g fill="none"><path fill="#30A364" d="M19.167 1.832h-2.5v16.335h2.5c.458 0 .833-.35.833-.778V2.61c0-.428-.375-.778-.833-.778M15.01.01L.823 2.1C.37 2.168 0 2.572 0 3v14c0 .429.37.833.823.9l14.187 2.09c.453.067.823-.228.823-.656V.666c0-.428-.37-.723-.823-.657"/><path fill="#FFF" d="M12.5 5h-1.425l-2.95 4.028L5.175 5H3.75l3.662 5-3.662 5h1.425l2.95-4.028L11.075 15H12.5l-3.663-5z"/></g></svg><svg width="28" height="28" viewBox="-4 -4 28 28" id="ic-20-file-vcard" x="28" y="209" xmlns="http://www.w3.org/2000/svg"><g fill="none"><path fill="#4890E8" d="M20 19.167a.836.836 0 01-.833.833H.833A.835.835 0 010 19.167V1.833C0 1.375.375 1 .833 1h18.334c.458 0 .833.375.833.833v17.334z"/><path fill="#FFF" d="M13.998 15H6v-1.857c0-.205.1-.398.265-.512l2.641-1.555v-.546l-.082-.064a1.988 1.988 0 01-.74-1.545v-.963C8.085 6.878 8.945 6 10 6s1.914.879 1.914 1.958v.963c0 .598-.275 1.176-.74 1.545l-.08.064v.546l2.64 1.555a.623.623 0 01.265.512L13.998 15z"/></g></svg><svg width="28" height="28" viewBox="-4 -4 28 28" id="ic-20-menu-bookmark-157-efb" x="56" y="209" xmlns="http://www.w3.org/2000/svg"><g fill-rule="nonzero" fill="none"><path d="M0 0h20v20H0z"/><path fill="#157EFB" d="M17.948 8.643a.956.956 0 00-.836-.656l-4.157-.275-1.568-4.092A.948.948 0 0010.5 3a.95.95 0 00-.888.62L8.086 7.688l-4.2.299a.956.956 0 00-.834.656.985.985 0 00.282 1.057l3.22 2.815-1.026 4.277a.98.98 0 00.387 1.037.943.943 0 001.054.015L10.5 15.52l3.53 2.323a.938.938 0 001.055-.015.98.98 0 00.386-1.037l-1.035-4.264 3.23-2.828a.985.985 0 00.282-1.057"/></g></svg><svg width="28" height="28" viewBox="-4 -4 28 28" id="ic-20-menu-depth" x="84" y="209" xmlns="http://www.w3.org/2000/svg"><g fill="none"><path d="M0 0h20v20H0z"/><path fill="#767676" d="M9 3.001V11h8v-1h-6.999V3.001z"/></g></svg><svg width="28" height="28" viewBox="-4 -4 28 28" id="ic-20-menu-tag-157-efb" x="112" y="209" xmlns="http://www.w3.org/2000/svg"><path d="M14 10.999a1 1 0 110-2 1 1 0 010 2m4.726-1.68v-.003l-.008-.008-.021-.023-4.156-4.561v.003a1.994 1.994 0 00-1.375-.726L10 4H6l-3.166.001A1.995 1.995 0 001 5.986v8.01c0 1.107.896 2.003 2 2.003h10c.624 0 1.174-.292 1.541-.74v.015l4.185-4.584v-.011a.993.993 0 00.274-.68.993.993 0 00-.274-.68" fill="#157EFB" fill-rule="evenodd"/></svg><svg width="28" height="28" viewBox="-4 -4 28 28" id="ic-20-more-767676" x="140" y="209" xmlns="http://www.w3.org/2000/svg"><path fill="#767676" fill-rule="evenodd" d="M10.5 15a1.5 1.5 0 110 3 1.5 1.5 0 010-3zm0-6a1.5 1.5 0 110 3 1.5 1.5 0 010-3zm0-6a1.5 1.5 0 110 3 1.5 1.5 0 010-3z"/></svg><svg width="28" height="28" viewBox="-4 -4 28 28" id="ic-20-popup-767676" x="168" y="209" xmlns="http://www.w3.org/2000/svg"><path fill="#767676" fill-rule="evenodd" d="M10.987 2v1.003h5.301l-9.287 9.288.708.709 9.288-9.288-.001 5.301L18 9.014V2h-7.013zM2 5.001V18h12.999v-6h-1v5h-11V6.001H8v-1H2z"/></svg><svg width="28" height="28" viewBox="-4 -4 28 28" id="ic-20-task-calendar-157efb" x="196" y="209" xmlns="http://www.w3.org/2000/svg"><path fill="#157EFB" fill-rule="evenodd" d="M0 4.003h19V0H0v4.003zm7.048 8.324h-.859v-1.282h.82c.677 0 1.146-.424 1.146-.989-.006-.577-.491-.966-1.146-.966-.69 0-1.136.452-1.164.932H4.331c.045-1.289 1.017-2.214 2.734-2.22 1.638-.006 2.66.847 2.678 2.022.017 1.097-.864 1.655-1.424 1.74v.091c.712.068 1.639.621 1.655 1.83.012 1.509-1.367 2.317-2.959 2.317-1.797 0-2.786-1.039-2.815-2.243h1.492c.033.531.582.926 1.323.926.813.006 1.343-.446 1.338-1.085-.005-.61-.503-1.073-1.305-1.073zm3.805-3.09l1.825-1.295H14.3v7.713h-1.622V9.542h-.079l-1.746 1.226V9.237zM0 19h19V5.003H0V19z"/></svg><svg width="28" height="28" viewBox="-4 -4 28 28" id="ic-20-task-mail-157efb" x="224" y="209" xmlns="http://www.w3.org/2000/svg"><path fill="#157EFB" fill-rule="evenodd" d="M0 4.136V17.98h20V4.136l-10 8.332L0 4.136zM0 1v1.833l10 8.334 10-8.334V1H0z"/></svg><svg width="28" height="28" viewBox="-4 -4 28 28" id="ic-20-task-message-157efb" x="260" xmlns="http://www.w3.org/2000/svg"><path fill="#157EFB" fill-rule="evenodd" d="M0 0v19.96L4.824 16H20V0H0zm14 8.98h2v-2h-2v2zm-5 0h2v-2H9v2zm-4.999 0h2v-2h-2v2z"/></svg><svg width="44" height="44" viewBox="-4 -4 44 44" id="ic-36-layer-confirm-green" x="118" y="139" xmlns="http://www.w3.org/2000/svg"><g fill="#07B53B" fill-rule="evenodd"><circle cx="18" cy="18" r="18" opacity=".16"/><path fill-rule="nonzero" d="M10.701 17.462L9.3 18.888l5.612 5.517L26.704 12.71l-1.408-1.42-10.391 10.305z"/></g></svg><svg width="44" height="44" viewBox="-4 -4 44 44" id="ic-36-layer-delete-red" x="162" y="139" xmlns="http://www.w3.org/2000/svg"><g fill="#FD472B" fill-rule="evenodd"><circle cx="18" cy="18" r="18" opacity=".16"/><path fill-rule="nonzero" d="M20 24v3h-3v-3h3zm0-14v5.143L19.208 22h-1.416L17 15.143V10h3z"/></g></svg><svg width="48" height="48" viewBox="-4 -4 48 48" id="ic-40-add-c-5-c-5-c-6" x="70" y="139" xmlns="http://www.w3.org/2000/svg"><g fill="none" fill-rule="evenodd"><path d="M0 0h40v40H0z"/><path fill="#C5C5C6" d="M21 1v18h18v2H21v18h-2V21H1v-2h18V1h2z"/></g></svg><svg width="14" height="14" viewBox="-4 -4 14 14" id="ic-6-point-c-5-c-5-c-6" x="128" y="92" xmlns="http://www.w3.org/2000/svg"><path fill="#C5C5C6" fill-rule="evenodd" d="M2 2h3v3H2z"/></svg><svg width="72" height="72" viewBox="-4 -4 72 72" id="ic-64-empty-contact" y="67" xmlns="http://www.w3.org/2000/svg"><path fill="#E5E5E6" d="M47.522 48H16.477c-.169 0-.32-.057-.477-.098.001-.826.033-1.254.31-2.181.316-1.051 3.553-2.802 7.756-4.983l.279-.145c1.168-.607 2.152-1.122 2.696-1.466.533-.355.949-1.061.993-1.778v-1.551c0-.386-.148-.755-.413-1.03a53.364 53.364 0 01-1.088-1.159c-.923-1.048-1.435-2.981-1.769-6.675-.241-2.66.46-5.038 1.971-6.694 1.339-1.466 3.222-2.219 5.308-2.236 2-.071 3.881.767 5.22 2.236 1.514 1.656 2.213 4.034 1.972 6.696-.334 3.692-.846 5.625-1.759 6.663-.195.217-.632.682-1.1 1.171a1.485 1.485 0 00-.411 1.028l.003 1.659c.042.596.442 1.298.977 1.662.559.353 1.55.871 2.723 1.482l.266.137c4.202 2.181 7.44 3.932 7.755 4.982.276.926.31 1.354.311 2.182-.157.041-.308.098-.478.098M49 10H15a5 5 0 00-5 5v34a5 5 0 005 5h34a5 5 0 005-5V15a5 5 0 00-5-5" fill-rule="evenodd"/></svg><svg width="72" height="72" viewBox="-4 -4 72 72" id="ic-64-empty-search" x="78" xmlns="http://www.w3.org/2000/svg"><path fill="#E5E5E6" fill-rule="nonzero" d="M16 28c0-6.617 5.383-12 12-12s12 5.383 12 12c0 3.255-1.307 6.207-3.418 8.371-.038.034-.08.059-.116.095-.036.036-.061.079-.095.116A11.955 11.955 0 0128 40c-6.617 0-12-5.383-12-12m37.121 20.879L42.655 38.413A17.878 17.878 0 0046 28c0-9.925-8.075-18-18-18s-18 8.075-18 18 8.075 18 18 18c3.881 0 7.47-1.247 10.413-3.345l10.466 10.466c.586.586 1.353.879 2.121.879s1.535-.293 2.121-.879a2.998 2.998 0 000-4.242"/></svg><svg width="16" height="16" viewBox="-4 -4 16 16" id="ic-8-arrow-down-157efb" x="312" y="57" xmlns="http://www.w3.org/2000/svg"><path fill="#157efb" d="M8 2L4 6 0 2h8z"/></svg><svg width="16" height="16" viewBox="-4 -4 16 16" id="ic-8-arrow-down-222222" x="312" y="73" xmlns="http://www.w3.org/2000/svg"><path fill="#222" d="M8 2L4 6 0 2h8z"/></svg><svg width="16" height="16" viewBox="-4 -4 16 16" id="ic-8-arrow-line-close-787878" x="312" y="89" xmlns="http://www.w3.org/2000/svg"><path fill="#787878" d="M2.25.002l-.752.707L4.994 4 1.498 7.293l.752.705L6.498 4z" fill-rule="evenodd"/></svg><svg width="16" height="16" viewBox="-4 -4 16 16" id="ic-8-arrow-line-open-767676" x="312" y="105" xmlns="http://www.w3.org/2000/svg"><path fill="#767676" d="M7.996 2.252L7.289 1.5 3.998 4.996.705 1.5 0 2.252 3.998 6.5z" fill-rule="evenodd"/></svg><svg width="16" height="16" viewBox="-4 -4 16 16" id="ic-8-arrow-next-222222" x="312" y="121" xmlns="http://www.w3.org/2000/svg"><path fill="#222" d="M2 0l4 4-4 4V0z"/></svg><svg width="16" height="17" viewBox="-4 -4 16 17" id="ic-8-arrow-up-157-efb" x="312" y="40" xmlns="http://www.w3.org/2000/svg"><path fill="#157EFB" d="M8 6.131H0l4-4z"/></svg><svg width="16" height="16" viewBox="-4 -4 16 16" id="ic-8-arrow-up-222222" x="312" y="137" xmlns="http://www.w3.org/2000/svg"><path fill="#222" d="M8 6H0l4-4z"/></svg><svg width="16" height="16" viewBox="-4 -4 16 16" id="ic-8-close-000000-40" x="312" y="153" xmlns="http://www.w3.org/2000/svg"><path d="M4.64 4L8 7.36 7.36 8 4 4.64.64 8 0 7.36 3.36 4 0 .64.64 0 4 3.36 7.36 0 8 .64z" opacity=".4"/></svg><svg width="16" height="16" viewBox="-4 -4 16 16" id="ic-8-close-000000-60" x="312" y="169" xmlns="http://www.w3.org/2000/svg"><path d="M4.64 4L8 7.36 7.36 8 4 4.64.64 8 0 7.36 3.36 4 0 .64.64 0 4 3.36 7.36 0 8 .64z" opacity=".6"/></svg><svg width="16" height="16" viewBox="-4 -4 16 16" id="ic-8-delete-989898" x="312" y="185" xmlns="http://www.w3.org/2000/svg"><path fill="#989898" d="M4.64 4L8 7.36 7.36 8 4 4.64.64 8 0 7.36 3.36 4 0 .64.64 0 4 3.36 7.36 0 8 .64z"/></svg><svg width="20" height="20" viewBox="-4 -4 20 20" id="ic12_close_FFFFFF" x="312" y="20" xmlns="http://www.w3.org/2000/svg"><path fill="#FFF" d="M6.77 6L11 10.23l-.77.77L6 6.77 1.77 11 1 10.23 5.23 6 1 1.77 1.77 1 6 5.23 10.23 1l.77.77L6.77 6z"/></svg><svg width="24" height="24" viewBox="-4 -4 24 24" id="ic16_close_767676" x="24" y="285" xmlns="http://www.w3.org/2000/svg"><path d="M9.077 8L15 13.923 13.923 15 8 9.077 2.077 15 1 13.923 6.923 8 1 2.077 2.077 1 8 6.923 13.923 1 15 2.077 9.077 8z" fill="#767676" fill-rule="nonzero"/></svg><svg width="24" height="24" fill="none" viewBox="-4 -4 24 24" id="ic16_conflict" x="48" y="285" xmlns="http://www.w3.org/2000/svg"><path opacity=".01" fill="#fff" d="M0 0h16v16H0z"/><path d="M.5 8a7.5 7.5 0 1115 0 7.5 7.5 0 01-15 0z" stroke="#FD472B"/><path d="M.5 8a7.5 7.5 0 1115 0 7.5 7.5 0 01-15 0z" stroke="#000" stroke-opacity=".1"/><path fill-rule="evenodd" clip-rule="evenodd" d="M9 5.562L8.69 9H7.31L7 5.562V4h2v1.562zM7 11.999h2V10H7v1.999z" fill="#FD472B"/></svg><svg width="24" height="24" viewBox="-4 -4 24 24" id="ic16_freeplan_alert" x="72" y="285" xmlns="http://www.w3.org/2000/svg"><g fill="none" fill-rule="evenodd"><path fill="#786DD8" stroke="#000" stroke-opacity=".1" stroke-width=".5" d="M8 .25a7.75 7.75 0 100 15.5A7.75 7.75 0 008 .25z"/><path fill="#FFF" d="M9 5.562L8.69 9H7.31L7 5.562V4h2zm-2 6.437h2V10H7z"/></g></svg><svg width="24" height="24" viewBox="-4 -4 24 24" id="ic16_lnb_folder_drag_no" x="96" y="285" xmlns="http://www.w3.org/2000/svg"><path d="M8 14a5.961 5.961 0 01-3.471-1.115l8.356-8.356A5.961 5.961 0 0114 8c0 3.308-2.692 6-6 6M8 2c1.293 0 2.49.416 3.471 1.115l-8.356 8.357A5.966 5.966 0 012 8c0-3.309 2.691-6 6-6m0-2a8 8 0 00-8 8 8 8 0 1016 0 8 8 0 00-8-8" fill="#FD472B" fill-rule="nonzero"/></svg><svg width="24" height="24" viewBox="-4 -4 24 24" id="ic16_refresh_000000_5" x="120" y="285" xmlns="http://www.w3.org/2000/svg"><g fill="none" fill-rule="evenodd"><rect width="13" height="13" x="1.5" y="1.5" fill="#FFF" stroke="#C5C5C6" rx="2"/><path fill="#767676" fill-rule="nonzero" d="M11 5.259V4h1v3H9V6h1.463A3.16 3.16 0 008.05 4.889C6.31 4.889 4.9 6.282 4.9 8c0 1.718 1.41 3.111 3.15 3.111A3.148 3.148 0 0011.034 9h.939a4.043 4.043 0 01-3.923 3C5.813 12 4 10.21 4 8s1.813-4 4.05-4c1.163 0 2.211.484 2.95 1.259z"/><rect width="14" height="14" x="1" y="1" fill="#000" fill-opacity=".05" rx="2"/></g></svg><svg width="24" height="24" viewBox="-4 -4 24 24" id="ic16_refresh_c5c5c6" x="144" y="285" xmlns="http://www.w3.org/2000/svg"><g fill="none" fill-rule="evenodd"><rect width="13" height="13" x="1.5" y="1.5" fill="#FFF" stroke="#C5C5C6" rx="2"/><path fill="#767676" fill-rule="nonzero" d="M11 5.259V4h1v3H9V6h1.463A3.16 3.16 0 008.05 4.889C6.31 4.889 4.9 6.282 4.9 8c0 1.718 1.41 3.111 3.15 3.111A3.148 3.148 0 0011.034 9h.939a4.043 4.043 0 01-3.923 3C5.813 12 4 10.21 4 8s1.813-4 4.05-4c1.163 0 2.211.484 2.95 1.259z"/></g></svg><svg width="24" height="24" viewBox="-4 -4 24 24" id="ic16_search_157efb" x="168" y="285" xmlns="http://www.w3.org/2000/svg"><path fill="#157EFB" d="M10.42 11.849a6.555 6.555 0 111.428-1.428L16 14.57 14.572 16l-4.151-4.151zm-3.865-.252a5.042 5.042 0 100-10.084 5.042 5.042 0 000 10.084z"/></svg><svg width="24" height="24" viewBox="-4 -4 24 24" id="ic16_search_767676" x="192" y="285" xmlns="http://www.w3.org/2000/svg"><path fill="#767676" d="M10.42 11.849a6.555 6.555 0 111.428-1.428L16 14.57 14.572 16l-4.151-4.151zm-3.865-.252a5.042 5.042 0 100-10.084 5.042 5.042 0 000 10.084z"/></svg><svg width="28" height="28" viewBox="-4 -4 28 28" id="ic20_menu_folder_767676" x="260" y="28" xmlns="http://www.w3.org/2000/svg"><path fill="#222" d="M7.656 3H4.343C3.601 3 3 3.603 3 4.346v10.652A2 2 0 005 17h10c1.104 0 2-.896 2-2.002V6.987a1.996 1.996 0 00-1.834-1.985H10L8.613 3.403v.001A1.335 1.335 0 007.656 3m0 1c.104 0 .181.046.229.09l1.359 1.567.3.345h5.574a.99.99 0 01.882.985v8.011c0 .553-.448 1.002-1 1.002H5c-.552 0-1-.449-1-1.002V4.346C4 4.155 4.154 4 4.343 4h3.313" fill-rule="nonzero"/></svg><svg width="28" height="28" viewBox="-4 -4 28 28" id="ic20_menu_help_line_d5d5d6" x="260" y="56" xmlns="http://www.w3.org/2000/svg"><path d="M10.049 4.5c-1.724 0-3.592.854-3.535 3.246h1.764c.007-.934.563-1.668 1.667-1.668.836 0 1.61.419 1.61 1.418 0 .781-.475 1.135-1.233 1.684-.869.627-1.521 1.368-1.465 2.56l.008.539h1.756v-.434c0-.903.346-1.168 1.288-1.861.765-.563 1.578-1.216 1.578-2.593 0-1.949-1.626-2.891-3.438-2.891m-.242 8.568c-.773 0-1.32.499-1.32 1.224 0 .709.547 1.208 1.32 1.208.805 0 1.353-.499 1.353-1.208 0-.725-.548-1.224-1.353-1.224M10 18c-4.411 0-8-3.589-8-8s3.589-8 8-8 8 3.589 8 8-3.589 8-8 8m0-18C4.477 0 0 4.477 0 10s4.477 10 10 10 10-4.477 10-10S15.523 0 10 0" fill="#D5D5D6" fill-rule="evenodd"/></svg><svg width="28" height="28" viewBox="-4 -4 28 28" id="ic20_menu_help_line_ffffff" x="260" y="84" xmlns="http://www.w3.org/2000/svg"><path d="M10.049 4.5c-1.724 0-3.592.854-3.535 3.246h1.764c.007-.934.563-1.668 1.667-1.668.836 0 1.61.419 1.61 1.418 0 .781-.475 1.135-1.233 1.684-.869.627-1.521 1.368-1.465 2.56l.008.539h1.756v-.434c0-.903.346-1.168 1.288-1.861.765-.563 1.578-1.216 1.578-2.593 0-1.949-1.626-2.891-3.438-2.891m-.242 8.568c-.773 0-1.32.499-1.32 1.224 0 .709.547 1.208 1.32 1.208.805 0 1.353-.499 1.353-1.208 0-.725-.548-1.224-1.353-1.224M10 18c-4.411 0-8-3.589-8-8s3.589-8 8-8 8 3.589 8 8-3.589 8-8 8m0-18C4.477 0 0 4.477 0 10s4.477 10 10 10 10-4.477 10-10S15.523 0 10 0" fill="#FFF" fill-rule="evenodd"/></svg><svg width="28" height="28" viewBox="-4 -4 28 28" id="ic20_menu_setting_d5d5d6" x="260" y="112" xmlns="http://www.w3.org/2000/svg"><path fill="#D5D5D6" fill-rule="evenodd" d="M12.918 10.03a3.182 3.182 0 11-6.365 0 3.182 3.182 0 016.365 0m4.32 0c0-.351-.025-.697-.073-1.035l2.212-2.214-2.057-3.562-3.068.82a7.481 7.481 0 00-1.678-.953L11.746 0H7.631l-.838 3.127a7.58 7.58 0 00-1.597.932l-3.138-.84L0 6.78l2.295 2.297a7.536 7.536 0 00-.007 1.85L0 13.219l2.058 3.563 3.08-.826a7.49 7.49 0 001.674.986L7.631 20h4.115l.808-3.017a7.506 7.506 0 001.756-1.008l3.01.806 2.057-3.564-2.205-2.205a7.54 7.54 0 00.066-.981"/></svg><svg width="28" height="28" viewBox="-4 -4 28 28" id="ic20_menu_setting_ffffff" x="260" y="140" xmlns="http://www.w3.org/2000/svg"><path fill="#FFF" fill-rule="evenodd" d="M12.918 10.03a3.182 3.182 0 11-6.365 0 3.182 3.182 0 016.365 0m4.32 0c0-.351-.025-.697-.073-1.035l2.212-2.214-2.057-3.562-3.068.82a7.481 7.481 0 00-1.678-.953L11.746 0H7.631l-.838 3.127a7.58 7.58 0 00-1.597.932l-3.138-.84L0 6.78l2.295 2.297a7.536 7.536 0 00-.007 1.85L0 13.219l2.058 3.563 3.08-.826a7.49 7.49 0 001.674.986L7.631 20h4.115l.808-3.017a7.506 7.506 0 001.756-1.008l3.01.806 2.057-3.564-2.205-2.205a7.54 7.54 0 00.066-.981"/></svg><svg width="51" height="38" viewBox="-4 -4 51 38" id="ic30_lnb_drag" x="150" y="72" xmlns="http://www.w3.org/2000/svg"><g fill="none" fill-rule="evenodd"><rect width="33" height="23" x=".5" y=".5" fill="#FFF" stroke="#989898" rx="2"/><g transform="translate(25 12)"><circle cx="9" cy="9" r="8.5" fill="#157EFB" stroke="#000" stroke-opacity=".15"/><path fill="#FFF" d="M7 4l7.04 6.988H9.988L7 14.06z"/></g></g></svg><svg width="50" height="38" viewBox="-4 -4 50 38" id="ic30_lnb_drag_no" x="78" y="72" xmlns="http://www.w3.org/2000/svg"><g fill="none" fill-rule="evenodd"><rect width="33" height="23" x=".5" y=".5" fill="#FFF" stroke="#989898" rx="2"/><g transform="translate(24 12)"><circle cx="9" cy="9" r="8.5" fill="#FD472B" stroke="#000" stroke-opacity=".15"/><path fill="#FFF" d="M7.707 11.708a3 3 0 004.001-4.001l-4.001 4zm-1.415-1.415l4.001-4a3 3 0 00-4.001 4.001zM9 14A5 5 0 119 4a5 5 0 010 10z"/></g></g></svg><svg width="72" height="72" fill="none" viewBox="-4 -4 72 72" id="ic64_empty_team_root" x="150" xmlns="http://www.w3.org/2000/svg"><path opacity=".01" fill="#fff" d="M12.8 11.2h38.4v38.4H12.8z"/><path fill-rule="evenodd" clip-rule="evenodd" d="M29.576 36.018c.705-.38 1.596-.857 2.244-1.228v-.258c-.314-.344-.62-.682-.816-.91-1.965-2.306-2.615-5.682-3.027-10.381-.278-3.187.287-6.162 1.597-8.65-1.57-1.7-3.727-2.671-6.022-2.586-2.462.022-4.685.94-6.264 2.726-1.783 2.019-2.609 4.918-2.325 8.16.394 4.503.998 6.859 2.087 8.139.219.255.733.818 1.283 1.41.313.336.487.787.487 1.256v1.89c-.052.876-.543 1.737-1.172 2.169-.641.419-1.801 1.046-3.179 1.786l-.331.178c-4.958 2.658-6.399 4.793-6.771 6.073-.299 1.033-.356 1.56-.365 2.408H7v2.31C7 51.885 8.084 53 9.42 53h11.073A6.524 6.524 0 0120 50.51V48.2c0-.06.001-.12.004-.177.017-1.064.113-1.938.521-3.348.883-3.034 3.737-5.808 8.713-8.475l.338-.182zM56.998 48.2c-.009-.85-.068-1.38-.365-2.41-.372-1.278-1.813-3.413-6.771-6.071l-.315-.168c-1.383-.744-2.552-1.376-3.211-1.805-.632-.445-1.104-1.301-1.154-2.027l-.002-2.023c0-.468.173-.92.485-1.254a73.803 73.803 0 001.297-1.427c1.077-1.266 1.68-3.621 2.075-8.122.284-3.244-.541-6.143-2.326-8.162-1.579-1.79-3.8-2.813-6.159-2.726-2.462.022-4.685.94-6.264 2.726-1.783 2.019-2.609 4.918-2.325 8.16.394 4.503.998 6.859 2.087 8.139.219.255.733.818 1.283 1.41.313.336.487.787.487 1.256v1.89c-.052.876-.543 1.737-1.172 2.169-.641.419-1.801 1.046-3.179 1.786l-.331.178c-4.958 2.658-6.399 4.793-6.771 6.073-.299 1.033-.356 1.56-.365 2.408H24v2.31c0 1.375 1.084 2.49 2.42 2.49h28.16c1.336 0 2.42-1.115 2.42-2.49V48.2h-.002z" fill="#E5E5E6"/></svg><svg width="16" height="16" viewBox="-4 -4 16 16" id="ic8_arrow_down_157efb" x="312" y="201" xmlns="http://www.w3.org/2000/svg"><path fill="#157efb" d="M8 2L4 6 0 2h8z"/></svg><svg width="16" height="16" viewBox="-4 -4 16 16" id="ic8_arrow_down_222222" x="312" y="217" xmlns="http://www.w3.org/2000/svg"><path fill="#222" d="M8 2L4 6 0 2h8z"/></svg><svg width="16" height="16" viewBox="-4 -4 16 16" id="ic8_arrow_line_close_157efb" x="312" y="233" xmlns="http://www.w3.org/2000/svg"><path fill="#157EFB" fill-rule="evenodd" d="M2.25.002l-.752.707L4.995 4 1.499 7.292l.75.705L6.5 4z"/></svg><svg width="16" height="16" viewBox="-4 -4 16 16" id="ic8_arrow_line_close_c5c5c6" x="312" y="249" xmlns="http://www.w3.org/2000/svg"><path fill="#C5C5C6" d="M2.25.002l-.752.707L4.995 4 1.499 7.292l.75.705L6.5 4z" fill-rule="evenodd"/></svg><svg width="16" height="16" viewBox="-4 -4 16 16" id="ic8_arrow_line_open_c5c5c6" x="312" y="265" xmlns="http://www.w3.org/2000/svg"><path fill="#C5C5C6" fill-rule="evenodd" d="M7.997 2.251L7.29 1.5 3.998 4.995.706 1.5 0 2.251 3.998 6.5z"/></svg><svg width="16" height="16" viewBox="-4 -4 16 16" id="ic8_arrow_up_157efb" x="312" y="281" xmlns="http://www.w3.org/2000/svg"><path fill="#157efb" d="M8 6H0l4-4z"/></svg><svg width="16" height="16" viewBox="-4 -4 16 16" id="ic8_arrow_up_222222" x="201" y="93" xmlns="http://www.w3.org/2000/svg"><path fill="#222" d="M8 6H0l4-4z"/></svg><svg width="24" height="24" viewBox="-4 -4 24 24" id="ico-16-camera-767676" x="216" y="285" xmlns="http://www.w3.org/2000/svg"><path fill="#767676" d="M8 10.02a2 2 0 110-4 2 2 0 010 4zM11.666 4L11 2H5l-.667 2H1v9h14V4h-3.334z"/></svg><svg width="70" height="70" viewBox="-4 -4 70 70" id="img-join-complete" y="139" xmlns="http://www.w3.org/2000/svg"><g fill="none" fill-rule="evenodd"><path fill="none" d="M0 0h62v62H0z"/><g stroke="#05C77A" stroke-linecap="round" stroke-linejoin="round" stroke-width="5"><path d="M18.47 28.146l10.127 11.991 24.873-27"/><path d="M42.842 6.746A26.844 26.844 0 0030.988 4C16.083 4 4 16.083 4 30.988s12.083 26.99 26.988 26.99c14.906 0 26.99-12.085 26.99-26.99 0-1.672-.16-3.306-.452-4.895"/></g></g></svg><svg width="78" height="67" viewBox="-4 -4 78 67" id="warning-illust" xmlns="http://www.w3.org/2000/svg"><g fill="none" fill-rule="evenodd"><path d="M0 0h70v59H0z"/><path fill="#FFF" d="M55.624 10.019l-20.406-5.79a2.308 2.308 0 00-1.25 0l-20.406 5.79a.567.567 0 00-.416.545v16.811c-.088 6.603 1.809 13.8 6.57 18.68 3.92 4.02 8.949 6.898 14.219 8.504.428.13.888.13 1.316 0 5.27-1.606 10.299-4.484 14.219-8.503 4.761-4.882 6.657-12.078 6.57-18.681v-16.81a.567.567 0 00-.416-.546"/><path stroke="#000" stroke-linecap="round" stroke-linejoin="round" stroke-width="1.43" d="M55.624 10.019l-20.406-5.79a2.308 2.308 0 00-1.25 0l-20.406 5.79a.567.567 0 00-.416.545v16.811c-.088 6.603 1.809 13.8 6.57 18.68 3.92 4.02 8.949 6.898 14.219 8.504.428.13.888.13 1.316 0 5.27-1.606 10.299-4.484 14.219-8.503 4.761-4.882 6.657-12.078 6.57-18.681v-16.81a.567.567 0 00-.416-.546z"/><path fill="#FFF" d="M45.477 36.13l-.018-.061-.03-.058c-.329-.654-1.81-1.665-5.66-3.861a50.15 50.15 0 01-1.466-.852c-.486-.282-.87-.944-.877-1.49l-.001-.104-.004-.01v-1.586c.421-.426.972-.994 1.188-1.236.669-.75 1.043-2.165 1.293-4.885.178-1.937-.336-3.667-1.448-4.87-.963-1.04-2.307-1.614-3.782-1.614h-.079l-.078-.001c-1.475 0-2.819.574-3.783 1.615-1.113 1.203-1.627 2.933-1.449 4.87.25 2.72.625 4.136 1.294 4.885.217.243.76.806 1.186 1.236v1.688c0 .548-.385 1.216-.86 1.49-.313.196-.83.492-1.474.858-3.862 2.204-5.343 3.214-5.673 3.868l-.028.057-.02.062c-.222.741-.221 1.025-.218 1.71v.519l.002.735h22.202v-.737l.002-.52c.003-.683.005-.967-.22-1.708"/><path stroke="#000" stroke-linecap="round" stroke-linejoin="round" stroke-width="1.43" d="M45.477 36.13l-.018-.061-.03-.058c-.329-.654-1.81-1.665-5.66-3.861a50.15 50.15 0 01-1.466-.852c-.486-.282-.87-.944-.877-1.49l-.001-.104-.004-.01v-1.586c.421-.426.972-.994 1.188-1.236.669-.75 1.043-2.165 1.293-4.885.178-1.937-.336-3.667-1.448-4.87-.963-1.04-2.307-1.614-3.782-1.614h-.079l-.078-.001c-1.475 0-2.819.574-3.783 1.615-1.113 1.203-1.627 2.933-1.449 4.87.25 2.72.625 4.136 1.294 4.885.217.243.76.806 1.186 1.236v1.688c0 .548-.385 1.216-.86 1.49-.313.196-.83.492-1.474.858-3.862 2.204-5.343 3.214-5.673 3.868l-.028.057-.02.062c-.222.741-.221 1.025-.218 1.71v.519l.002.735h22.202v-.737l.002-.52c.003-.683.005-.967-.22-1.708z"/><path fill="#00C73C" d="M64.976 33.814c4.79 4.79 4.79 12.556 0 17.346-4.79 4.79-12.556 4.79-17.346 0-4.79-4.79-4.79-12.556 0-17.346 4.79-4.79 12.556-4.79 17.346 0"/><path stroke="#000" stroke-linecap="round" stroke-linejoin="round" stroke-width="1.43" d="M64.976 33.814c4.79 4.79 4.79 12.556 0 17.346-4.79 4.79-12.556 4.79-17.346 0-4.79-4.79-4.79-12.556 0-17.346 4.79-4.79 12.556-4.79 17.346 0z"/><path stroke="#000" stroke-linecap="round" stroke-linejoin="round" stroke-width="1.716" d="M56.243 36.578v7.119"/><path fill="#000" d="M57.356 47.43a1.053 1.053 0 11-2.106-.002 1.053 1.053 0 012.106.003"/></g></svg></svg>