<svg xmlns="http://www.w3.org/2000/svg" width="117" height="11" viewBox="0 0 211 20"><g fill="none" fill-rule="evenodd"><g fill="#fff" fill-rule="nonzero"><g><g><path d="M142.855 0c5.718 0 10.198 4.369 10.198 9.946V10c0 5.607-4.503 10-10.252 10-5.718 0-10.198-4.37-10.198-9.946V10c0-5.607 4.504-10 10.252-10zm59.656 0c3.183 0 5.773.839 7.92 2.564l.103.083-2.795 3.954-.115-.08c-1.698-1.196-3.562-1.854-5.249-1.854-1.087 0-1.763.416-1.763 1.084v.055c0 .732.48 1.1 3.181 1.714 4.325.942 7.207 2.336 7.207 6.076v.054c0 3.917-3.003 6.35-7.837 6.35-3.514 0-6.714-1.135-9.011-3.195l-.102-.091 3.112-3.724.108.086c1.876 1.498 3.923 2.257 6.084 2.257 1.293 0 2.035-.425 2.035-1.166v-.054c0-.657-.464-1.077-3.1-1.688-3.84-.877-7.287-2.007-7.287-6.13v-.053c0-3.734 3.018-6.242 7.51-6.242zM89.165.462c2.87 0 4.957.479 6.565 1.507 1.731 1.106 2.608 2.889 2.608 5.299 0 2.548-1.125 4.555-3.339 5.483l-.578.242 4.816 6.544h-6.349l-3.64-5.33H87.1v5.33l-5.974.001V.462zm74.268 0c2.87 0 4.957.479 6.565 1.507 1.731 1.106 2.608 2.889 2.608 5.299 0 2.548-1.125 4.555-3.338 5.483l-.578.242 4.815 6.544h-6.348l-3.641-5.33h-2.147v5.33l-5.975.001V.462zm-128.145 0l7.468 19.075h-6.348l-.902-2.524h-7.158l-.902 2.524h-6.348L28.567.463h6.721zm42.663 0v4.676h-8.775v2.57h8.682v4.583h-8.682v2.572h8.962v4.674h-15.03V.463h14.843zm-32.114 0l4.481 12.543L54.8.462h6.349l-7.47 19.076h-6.72L39.488.462h6.348zm-39.955 0l7.094 10.21V.462h6.162v19.075h-5.882L6.162 9.33v10.208H0V.463h5.882zm175.574 0v6.821h1.568l4.4-6.82h6.139l-5.969 9.252 6.728 9.823h-6.14l-5.062-7.392h-1.664v7.392h-5.882V.462h5.882zm-70.928 0l3.112 10.21 2.688-10.21h4.524l2.687 10.21 3.112-10.21h5.763l-6.27 18.981-.03.095h-4.288l-3.223-10.21-.013.041-.013-.041-3.223 10.21h-4.287l-.031-.095-6.27-18.98h5.762zm32.273 4.566c-2.616 0-4.59 2.114-4.59 4.918V10c0 2.788 2.04 4.972 4.644 4.972 2.632 0 4.617-2.115 4.617-4.918V10c0-2.788-2.052-4.972-4.671-4.972zM31.927 6.473l-2.129 5.958h4.258l-2.129-5.958zm58.348-1.15h-3.268v4.022h3.268c1.108 0 2.007-.9 2.007-2.01 0-1.11-.899-2.011-2.007-2.011zm74.268 0h-3.268v4.022h3.268c1.108 0 2.007-.9 2.007-2.01 0-1.11-.899-2.011-2.007-2.011z" transform="translate(-82 -100) translate(16 100) translate(66)"/></g></g></g></g></svg>